<?xml version="1.0" encoding="UTF-8" standalone="no"?>
<svg width="40px" height="40px" viewBox="0 0 40 40" version="1.1" xmlns="http://www.w3.org/2000/svg" xmlns:xlink="http://www.w3.org/1999/xlink" xmlns:sketch="http://www.bohemiancoding.com/sketch/ns">
    <!-- Generator: Sketch 3.2.2 (9983) - http://www.bohemiancoding.com/sketch -->
    <title>Shape</title>
    <desc>Created with Sketch.</desc>
    <defs></defs>
    <g id="Page-1" stroke="none" stroke-width="1" fill="none" fill-rule="evenodd" sketch:type="MSPage">
        <g id="noun_52564_cc" sketch:type="MSLayerGroup" transform="translate(-30.000000, -30.000000)" fill="#000000">
            <path d="M68.0764789,41.4325687 C65.9095754,36.8668251 62.1349263,33.3154938 57.4484811,31.4332349 C55.0812755,30.4823344 52.5755019,30 50,30 C47.5421922,30 45.141677,30.4410295 42.8655179,31.3102085 C38.4486587,32.9974906 34.7566175,36.2134974 32.4706875,40.3648598 C30.8545035,43.2975062 30,46.6294331 30,50.0004441 C30,50.8936066 30.0595132,51.7920988 30.1767632,52.6710488 C30.3619648,54.0612023 30.6955054,55.4322578 31.1667259,56.7460194 L31.1667259,56.7460194 C32.5088826,60.4958806 34.9222775,63.7340943 38.1444306,66.1093469 L38.2234855,66.1670849 L38.225262,66.1670849 C41.509149,68.5641003 45.3939421,69.8867447 49.4657133,69.9924496 C49.6371469,69.9977793 49.8116895,70 49.9995559,70 C55.3308758,70 60.3464203,67.9276498 64.1215136,64.1622438 C67.5639545,60.7294975 69.6358145,56.1757456 69.955143,51.3395217 C69.9844555,50.894939 70,50.4441385 70,50.0004441 C70,47.0025094 69.3533487,44.1200506 68.0764789,41.4325687 L68.0764789,41.4325687 Z M63.6693907,63.1611556 L66.0654646,56.7677822 L68.9771718,51.2631298 L69.3502398,51.481646 C69.0087049,55.9954254 67.0945106,60.2444982 63.9372002,63.5031423 L63.6693907,63.1611556 L63.6693907,63.1611556 Z M49.4550542,68.2851813 L42.1473619,65.8970487 L40.5875822,60.8058893 L46.8240362,57.992272 L54.3271451,60.3333259 L55.7470243,65.327219 L49.4550542,68.2851813 L49.4550542,68.2851813 Z M43.2692308,35.160445 L49.7348552,36.8459506 L50.7416948,43.7687371 L44.937822,49.2871577 L38.0649316,47.5927694 L36.9124178,40.5887056 L43.2692308,35.160445 L43.2692308,35.160445 Z M68.5468112,50.8078879 L65.6550897,56.2752326 L61.1307515,54.5386512 L59.4808136,46.4566632 L62.7025227,41.2740112 L66.823148,42.8129511 L68.5468112,50.8078879 L68.5468112,50.8078879 Z M51.1356369,44.2133197 L58.9114408,46.6316537 L60.5471665,54.6443561 L54.5012436,59.7661611 L47.0572038,57.4433168 L45.3504175,49.7139748 L51.1356369,44.2133197 L51.1356369,44.2133197 Z M67.4649138,41.5316116 L66.9692663,42.2342386 L62.7509327,40.6588794 L57.6341268,34.9619151 L57.6341268,32.1527392 C61.9403979,33.9954698 65.4139279,37.3082987 67.4649138,41.5316116 L67.4649138,41.5316116 Z M57.0412151,31.911572 L57.0412151,34.8340032 L50.0075502,36.3041016 L43.4761947,34.6012747 L43.2825546,31.7889898 C45.4299165,30.9966468 47.6883105,30.5938132 50,30.5938132 C52.4320483,30.593369 54.7992539,31.0375075 57.0412151,31.911572 L57.0412151,31.911572 Z M32.9081542,40.8032244 L36.3412684,40.7708023 L37.4973352,47.796629 L34.7899272,54.1144989 L31.6934624,54.1144989 L30.7576834,52.5329218 C30.6488719,51.6983856 30.5933558,50.8469721 30.5933558,50.0004441 C30.5933558,46.7875464 31.3936756,43.6115121 32.9081542,40.8032244 L32.9081542,40.8032244 Z M31.7449813,56.5985654 L31.8107124,54.7083121 L34.8467756,54.7083121 L39.9613608,60.7872355 L41.49849,65.8046679 L38.4282288,65.5812662 C35.3499734,63.2912882 33.0409487,60.1880926 31.7449813,56.5985654 L31.7449813,56.5985654 Z M49.7717179,69.4061868 L49.7717179,68.7919433 L56.2093622,65.7655837 L63.2265944,63.5582155 L63.515278,63.9259621 C59.8743116,67.4621927 55.0857168,69.4070751 50,69.4070751 C49.9218334,69.4070751 49.8463315,69.406631 49.7717179,69.4061868 L49.7717179,69.4061868 Z" id="Shape" sketch:type="MSShapeGroup"></path>
        </g>
    </g>
</svg>