<?xml version="1.0" encoding="utf-8"?>
<!-- Generator: Adobe Illustrator 16.0.0, SVG Export Plug-In . SVG Version: 6.00 Build 0)  -->
<!DOCTYPE svg PUBLIC "-//W3C//DTD SVG 1.1//EN" "http://www.w3.org/Graphics/SVG/1.1/DTD/svg11.dtd">
<svg version="1.1" id="Layer_1" xmlns="http://www.w3.org/2000/svg" xmlns:xlink="http://www.w3.org/1999/xlink" x="0px" y="0px"
	 width="750.041px" height="94.862px" viewBox="0 0 750.041 94.862" enable-background="new 0 0 750.041 94.862"
	 xml:space="preserve">
<g>
	<path d="M121.338,4.014c-25.252,0-43.64,19.166-43.64,42.475c0,23.31,18.388,42.476,43.64,42.476s43.64-19.166,43.64-42.476
		C164.978,23.18,146.59,4.014,121.338,4.014z M121.338,77.956c-17.741,0-30.69-13.726-30.69-31.208c0-18,12.949-31.726,30.69-31.726
		c17.655,0,30.561,13.596,30.685,31.467C151.899,64.361,138.993,77.956,121.338,77.956z"/>
	<path d="M33.57,43.82c5.624-3.144,9.035-9.13,9.035-16.496c0-15.281-12.043-22.144-25.899-22.144H0v82.618h18.907
		c18.647,0,30.82-8.807,30.82-23.568C49.727,52.608,42.71,45.908,33.57,43.82z M12.432,15.54h4.403
		c8.158,0,12.82,5.309,12.82,12.949c0,7.252-4.403,12.173-12.82,12.173h-4.403V15.54z M20.59,77.438h-8.158V51.021h8.288
		c11.007,0,16.057,5.439,16.057,12.691C36.777,71.611,31.339,77.438,20.59,77.438z"/>
	<path d="M235.553,4.014c-25.251,0-43.64,19.166-43.64,42.475c0,23.31,18.389,42.476,43.64,42.476
		c25.252,0,43.641-19.166,43.641-42.476C279.194,23.18,260.805,4.014,235.553,4.014z M235.553,77.956
		c-17.74,0-30.69-13.726-30.69-31.208c0-18,12.95-31.726,30.69-31.726c17.656,0,30.561,13.596,30.685,31.467
		C266.114,64.361,253.208,77.956,235.553,77.956z"/>
	<polygon points="750.041,15.54 750.041,4.921 704.458,4.921 704.458,87.798 750.041,87.798 750.041,77.438 716.889,77.438 
		716.889,49.856 746.415,49.856 746.415,39.237 716.889,39.237 716.889,15.54 	"/>
	<path d="M523.941,87.798h13.208l8.259-18.129h36.97l7.865,18.129h13.985L564.732,0L523.941,87.798z M550.245,59.05l14.099-30.949
		L577.77,59.05H550.245z"/>
	<polygon points="621.063,16.057 640.098,16.057 640.098,87.798 652.53,87.798 652.53,16.057 671.437,16.057 671.437,4.921 
		621.063,4.921 	"/>
	<polygon points="479.134,1.424 450.776,63.064 423.582,1.295 422.028,1.295 405.193,87.798 418.013,87.798 426.948,37.813 
		449.999,90.129 451.292,90.129 475.121,38.072 483.02,87.798 495.839,87.798 480.689,1.424 	"/>
	<polygon points="374.631,4.921 358.833,4.921 326.201,39.237 326.201,4.921 313.769,4.921 313.769,87.798 326.201,87.798 
		326.201,53.611 328.791,51.021 359.093,87.798 375.28,87.798 337.726,42.604 	"/>
</g>
</svg>
