<?xml version="1.0" encoding="UTF-8" standalone="no"?>
<!-- Created with Inkscape (http://www.inkscape.org/) -->

<svg
   xmlns:dc="http://purl.org/dc/elements/1.1/"
   xmlns:cc="http://creativecommons.org/ns#"
   xmlns:rdf="http://www.w3.org/1999/02/22-rdf-syntax-ns#"
   xmlns:svg="http://www.w3.org/2000/svg"
   xmlns="http://www.w3.org/2000/svg"
   version="1.1"
   width="579.54877"
   height="178.21178"
   id="svg3425">
  <defs
     id="defs3427" />
  <metadata
     id="metadata3430">
    <rdf:RDF>
      <cc:Work
         rdf:about="">
        <dc:format>image/svg+xml</dc:format>
        <dc:type
           rdf:resource="http://purl.org/dc/dcmitype/StillImage" />
        <dc:title></dc:title>
      </cc:Work>
    </rdf:RDF>
  </metadata>
  <g
     transform="translate(-60.225625,-443.2563)"
     id="layer1">
    <path
       d="m 106.46982,555.57795 0,9.24028 15.16281,0 0,-61.22602 -16.38029,0 0,27.91975 c 0,6.79319 -0.41958,11.43759 -1.25387,13.95745 -0.82702,2.52471 -2.37677,4.53284 -4.627423,6.06561 -2.248228,1.53034 -4.794765,2.28703 -7.632335,2.28703 -2.2167,0 -4.108412,-0.52629 -5.682415,-1.59583 -1.578853,-1.0647 -2.706605,-2.56594 -3.409934,-4.49888 -0.698479,-1.91597 -1.047718,-6.17232 -1.047718,-12.73997 l 0,-31.39516 -16.37302,0 0,38.1059 c 0,4.68805 0.300734,8.28231 0.897351,10.80701 0.608744,2.50531 1.678289,4.75839 3.211062,6.74469 1.532773,1.97902 3.793127,3.59911 6.793191,4.88692 2.990361,1.27328 6.30086,1.90384 9.929068,1.90384 8.199849,0 14.997893,-3.48026 20.413523,-10.46262 z m 22.44106,-51.98574 16.12078,0 0,22.68844 23.10802,0 0,-22.68844 16.10866,0 0,61.22602 -16.10866,0 0,-25.52114 -23.10802,0 0,25.52114 -16.12078,0 0,-61.22602 z m 93.96479,0 -32.76786,0 0,19.14754 16.37543,-6.30329 0,48.46909 16.39243,0 0,-48.46909 16.39242,6.30329 0,-19.14754 -16.39242,0 z m 40.2862,14.78448 c 3.01462,-2.79149 6.60403,-4.14965 10.97195,-4.14965 4.39216,0 7.87,1.54247 10.63482,4.70988 1.71466,1.99843 2.61929,4.28788 3.17468,6.71558 -5.75033,0 -23.2026,0 -29.35066,0 0.95799,-2.87153 2.44225,-5.30165 4.56921,-7.27581 z m 27.01027,26.39425 c 0,0 -2.84242,6.27174 -8.42296,9.05111 -2.0809,1.0356 -4.68806,1.5546 -7.72694,1.5546 -5.40836,0 -9.55314,-2.0154 -12.65022,-6.16504 -2.24095,-2.96854 -3.58213,-6.30814 -4.08659,-10.10854 6.45608,0 46.20632,0 46.20632,0 0,0 1.94991,-16.62525 -6.40757,-27.26977 -5.63392,-7.18366 -13.19591,-11.04955 -23.07405,-11.04955 -10.10855,0 -18.24775,3.51665 -24.2018,10.4505 -5.45686,6.33239 -8.24108,14.26061 -8.24108,23.56396 0,9.05111 2.78422,16.88475 8.24108,23.3093 6.02922,7.10605 14.183,10.71242 24.2018,10.71242 7.04785,0 13.24925,-1.93293 18.43207,-5.72121 9.4707,-6.94114 13.15954,-18.32778 13.15954,-18.32778 l -15.4296,0 z m 58.37876,3.84404 c -2.47863,3.02675 -5.58783,4.54012 -9.31063,4.54012 -3.89013,0 -7.18365,-1.64919 -9.89026,-4.9427 -2.70175,-3.29838 -4.05749,-8.39388 -4.05749,-15.29378 0,-6.00497 1.29026,-10.55236 3.88529,-13.61548 2.59506,-3.06798 5.84006,-4.58619 9.77871,-4.58619 3.76402,0 6.92173,1.54975 9.46827,4.67592 2.55381,3.12133 3.83678,7.89912 3.83678,14.33579 0,6.8999 -1.24174,11.85231 -3.71067,14.88632 z m 12.75937,-38.27323 c -4.92816,-5.56115 -10.91616,-8.35264 -17.97371,-8.35264 -4.06234,0 -7.75117,0.98709 -11.0738,2.94914 -3.31535,1.96931 -5.95163,4.47705 -7.89184,7.52561 l 0,-8.92015 -15.03911,0 0,84.01631 16.12079,0 0,-30.56814 c 3.01461,3.24502 5.87644,5.5272 8.60728,6.8611 2.73087,1.33633 5.794,2.01055 9.15299,2.01055 7.05755,0 13.06737,-2.8303 18.03918,-8.48846 4.95483,-5.66301 7.43588,-13.59122 7.43588,-23.79435 0,-9.9315 -2.4568,-17.68267 -7.37767,-23.23897 z m 107.70638,32.24886 c -0.38562,-11.71165 18.17258,-17.68266 30.99984,-11.0835 l 0,21.95357 c -14.16601,5.90069 -30.26256,0.67423 -30.99984,-10.87007 z m 30.99984,22.22762 18.09981,0 0,-30.07823 c 0,-9.91451 0.62572,-16.41183 -3.50451,-22.8194 -4.1448,-6.41484 -12.3689,-8.9444 -18.17257,-8.9444 -13.82164,0 -19.94788,0 -33.15834,0 -3.1092,0.12362 -2.36949,-3.60639 -2.12211,-4.35579 7.85788,-29.64655 14.19754,-38.36782 24.90998,-37.4923 4.61287,0.62086 7.46742,0.74455 9.59438,3.36385 1.7462,2.11726 2.37434,2.36949 5.73093,-2.74299 2.10271,-3.48268 3.73491,-6.22567 4.98151,-8.34051 1.12047,-1.99357 3.99685,-4.60559 -0.24982,-5.10762 -50.95013,-1.1229 -51.68257,19.0578 -69.12028,52.18702 -1.86989,3.11405 -3.87559,2.99036 -9.71808,2.99036 -3.86345,0 -13.07465,0 -17.06907,0 -23.04252,0 -34.99912,18.06102 -36.36212,28.15258 -1.12291,6.09471 -1.75106,11.32602 1.23931,17.81121 2.36222,4.85296 8.09314,11.45699 16.56705,15.19191 2.25065,0.87066 3.61607,-0.74456 3.73491,-0.86825 2.50289,-2.25307 10.2201,-9.0972 12.46349,-10.84097 1.36542,-1.24902 -0.25951,-1.99358 -1.25388,-2.11242 -14.31881,-1.74862 -19.55497,-5.60966 -22.04087,-15.08519 -0.74941,-7.08908 2.6096,-22.9067 28.27141,-23.16137 10.3438,0.25467 18.67946,-0.98708 14.82085,8.22168 -13.94775,34.63048 -17.19277,40.98712 -31.7638,69.00145 -8.84255,12.95823 -19.79267,14.83055 -37.74697,9.21603 -4.65652,-1.46001 -6.10926,1.76803 -6.74952,3.15529 -0.95556,2.04693 -2.629,5.8061 -3.25715,7.13758 -0.99922,2.03238 -0.19403,2.73571 1.25387,2.72358 25.04093,-0.25465 49.85876,-5.04215 68.91656,-26.71438 17.81606,-22.79514 21.92688,-41.10354 33.63126,-64.26974 1.87232,-4.10841 4.62742,-7.84576 9.3761,-7.84576 7.16427,0 23.31417,0 28.10893,0 9.00261,0 10.58873,3.73735 10.58873,8.59516 -6.48032,-1.99115 -11.95416,-2.87151 -19.66169,-1.99115 -16.57916,1.74378 -27.04665,8.46421 -27.77907,23.41603 0.11637,11.21446 10.95252,22.79513 30.00062,22.41679 7.90882,0.37107 13.23472,-0.73971 17.44014,-5.1149 l 0,4.30485 z m 43.2111,0 0,-26.35543 c 2.33796,0 4.11084,0.51415 5.30407,1.52064 1.17625,1.0162 2.59747,3.28625 4.21513,6.83927 l 7.14728,17.99552 17.12,0 -7.99855,-17.22186 c -0.22798,-0.42442 -0.43898,-0.82216 -0.62571,-1.19808 -3.48999,-7.41407 -7.75846,-11.8135 -12.81273,-13.22502 3.50938,-1.2951 6.17233,-4.75353 8.0422,-10.34621 1.36544,-4.1545 2.64355,-6.6501 3.81011,-7.49652 1.18354,-0.79792 3.88772,-1.20537 8.10768,-1.20537 l -0.0582,-10.71727 c -3.00493,-0.18433 -5.1222,-0.28376 -6.32512,-0.28376 -3.96289,0 -7.14486,0.84642 -9.57741,2.52471 -2.42528,1.68556 -4.6638,5.51992 -6.71558,11.52247 -1.56187,4.50373 -2.89091,7.41892 -3.98715,8.76009 -1.10592,1.33633 -2.99036,2.15849 -5.64604,2.46408 l 0,-24.80328 -16.11837,0 0,61.22602 16.11837,0 z m 90.77313,-42.97826 -15.80551,2.78422 c -0.53841,-3.1383 -1.76803,-5.49083 -3.66459,-7.07453 -1.90385,-1.59097 -4.37519,-2.38404 -7.41405,-2.38404 -4.03081,0 -7.254,1.38968 -9.65503,4.16904 -2.41314,2.78421 -3.61122,7.43589 -3.61122,13.95018 0,7.26612 1.2102,12.38587 3.6476,15.35926 2.43741,3.00248 5.71151,4.49887 9.80053,4.49887 3.06313,0 5.57572,-0.88765 7.52805,-2.6484 1.95478,-1.76802 3.33232,-4.81173 4.13023,-9.12872 l 15.81764,2.63142 c -1.63706,7.36555 -4.78749,12.917 -9.44644,16.68345 -4.6444,3.76403 -10.8919,5.63391 -18.71341,5.63391 -8.89347,0 -15.97527,-2.81575 -21.2648,-8.44965 -5.28466,-5.63876 -7.93306,-13.44814 -7.93306,-23.41601 0,-10.08913 2.66052,-17.94702 7.95732,-23.56881 5.31378,-5.62179 12.49743,-8.43025 21.534,-8.43025 7.41649,0 13.2905,1.59583 17.67054,4.79476 4.37034,3.19167 7.51592,8.05192 9.42219,14.5953 z m -331.31415,71.32486 7.94518,0 4.13266,7.1691 4.009,-7.1691 7.87486,0 -7.26128,11.27752 7.9452,12.02451 -8.11496,0 -4.60075,-7.4844 -4.62257,7.4844 -8.04463,0 8.05675,-12.14093 -7.31946,-11.1611 z m -22.32708,14.41098 -2.54896,-8.3769 -2.54654,8.3769 5.0955,0 z m 1.5255,5.06154 -8.15863,0 -1.16413,3.82951 -7.35341,0 8.75524,-23.30203 7.89183,0 8.73097,23.30203 -7.53774,0 -1.16413,-3.82951 z m -44.36067,-19.47252 17.81849,0 0,5.01789 -10.58875,0 0,4.03808 9.06325,0 0,4.71716 -9.06325,0 0,9.5289 -7.22974,0 0,-23.30203 z m -29.44039,9.42219 3.06311,0 c 0.32983,0 0.97012,-0.0995 1.91597,-0.31286 0.48262,-0.0946 0.87309,-0.33711 1.1811,-0.72274 0.30801,-0.38804 0.45595,-0.84399 0.45595,-1.34602 0,-0.75183 -0.2304,-1.3242 -0.72758,-1.72679 -0.46807,-0.39533 -1.37755,-0.6039 -2.70176,-0.6039 l -3.1868,0 0,4.71231 z m -7.22974,13.87984 0,-23.30203 12.0245,0 c 2.22882,0 3.93621,0.18918 5.11975,0.56752 1.17627,0.37833 2.12211,1.09137 2.8497,2.11483 0.72758,1.04044 1.08168,2.29917 1.08168,3.78343 0,1.28297 -0.28376,2.40587 -0.82218,3.3396 -0.56751,0.94101 -1.31935,1.6977 -2.28702,2.28219 -0.61603,0.37348 -1.4673,0.6815 -2.54896,0.92402 0.86338,0.28861 1.48911,0.57721 1.88686,0.8634 0.26435,0.19403 0.64996,0.60146 1.152,1.22719 0.50202,0.64027 0.83915,1.11805 1.01134,1.45516 l 3.50452,6.74469 -8.13922,0 -3.87802,-7.12303 c -0.4802,-0.92888 -0.9216,-1.51822 -1.29993,-1.79713 -0.53357,-0.36622 -1.12534,-0.54325 -1.78744,-0.54325 l -0.63784,0 0,9.46341 -7.22974,0 z m -35.0258,-23.30203 19.3076,0 0,4.98152 -12.07786,0 0,3.70096 11.19021,0 0,4.74869 -11.19021,0 0,4.57406 12.41982,0 0,5.2968 -19.64956,0 0,-23.30203 z m -36.54645,0 21.91477,0 0,5.7576 -7.35342,0 0,17.54443 -7.19579,0 0,-17.54443 -7.36556,0 0,-5.7576 z m -36.847174,0 6.739834,0 8.76736,12.88063 0,-12.88063 6.79319,0 0,23.30203 -6.79319,0 -8.718854,-12.81515 0,12.81515 -6.78834,0 0,-23.30203 z m -23.82831,0 7.229982,0 0,23.30324 -7.229982,0 0,-23.30324 z"
       id="path86"
       style="fill:#09abb0;fill-opacity:1;fill-rule:nonzero;stroke:none" />
  </g>
</svg>
