<?xml version="1.0" encoding="utf-8"?>
<!-- Generator: Adobe Illustrator 17.0.0, SVG Export Plug-In . SVG Version: 6.00 Build 0)  -->
<!DOCTYPE svg PUBLIC "-//W3C//DTD SVG 1.1//EN" "http://www.w3.org/Graphics/SVG/1.1/DTD/svg11.dtd">
<svg version="1.1" id="Layer_1" xmlns="http://www.w3.org/2000/svg" xmlns:xlink="http://www.w3.org/1999/xlink" x="0px" y="0px"
	 width="140px" height="60px" viewBox="0 0 140 60" enable-background="new 0 0 140 60" xml:space="preserve">
<g>
	<path fill="#FF7A01" d="M7.142,10.884c1.813-2.546,4.696-4.242,7.777-4.703c0.008,1.094,0.005,2.188,0.005,3.283
		c-1.821,0.502-3.592,1.392-4.782,2.901c-1.823,2.152-2.318,5.231-1.455,7.893c-0.957,0.564-1.919,1.12-2.899,1.642
		C5.368,20.647,5.042,19.35,5,18.023v-1.351C5.2,14.6,5.91,12.569,7.142,10.884L7.142,10.884z"/>
	<path fill="#2D2696" d="M18.071,6.435c0.732-0.003,1.486-0.003,2.176,0.285c3.578,1.214,6.474,4.297,7.375,7.979
		c0.658,2.378,0.414,4.932-0.462,7.22c-0.964-0.55-1.918-1.115-2.883-1.66c0.814-2.46,0.467-5.284-1.063-7.397
		c-1.19-1.764-3.122-2.861-5.147-3.392C18.074,8.457,18.071,7.446,18.071,6.435L18.071,6.435z"/>
	<path fill="#2D2696" d="M16.432,15.087c2.183-0.41,4.362-0.854,6.558-1.193c-1.423,1.696-2.858,3.387-4.309,5.059
		C17.923,17.67,17.197,16.366,16.432,15.087L16.432,15.087z"/>
	<path fill="#FF0800" d="M7.372,24.619c0.962-0.558,1.932-1.102,2.891-1.664c1.341,1.444,3.138,2.496,5.114,2.736
		c2.699,0.4,5.523-0.696,7.323-2.733c0.957,0.558,1.932,1.086,2.883,1.652c-2.305,3.007-6.169,4.729-9.945,4.4
		C12.408,28.832,9.39,27.112,7.372,24.619L7.372,24.619z"/>
	<path d="M59.76,24.555c1.164-0.003,2.326-0.003,3.487-0.003c0.942,2.763,1.8,5.552,2.697,8.327
		c0.202,0.445,0.127,1.143,0.415,1.472c0.817-3.313,2.139-6.483,3.145-9.742c1.185-0.037,2.388-0.143,3.568,0.019
		c0.679,4.384,1.239,8.79,1.903,13.178c-1.25,0.002-2.502-0.005-3.755,0.008c-0.331-2.613-0.669-5.22-0.943-7.841
		c-0.602,2.661-1.585,5.215-2.338,7.836c-1.182-0.005-2.369,0.008-3.554-0.018c-0.746-2.588-1.635-5.132-2.348-7.732
		c-0.128,2.605-0.602,5.175-0.95,7.752c-1.104-0.008-2.209-0.005-3.313-0.003C58.482,33.398,59.026,28.961,59.76,24.555
		L59.76,24.555z"/>
	<path d="M93.976,24.552c3.392,0.01,6.784,0.003,10.174,0.005c0.009,4.417,0.002,8.836,0.002,13.254
		c-1.231-0.008-2.462-0.005-3.694-0.003c0-3.445,0-6.885,0.002-10.33c-1.165,0.025-2.327,0.02-3.488,0.002
		c-0.338,2.792-0.044,5.795-1.377,8.364c-0.765,1.492-2.451,2.246-4.078,2.198c-0.182-0.873-0.328-1.75-0.508-2.625
		c1.338-0.309,1.908-1.679,2.071-2.911C93.457,29.867,93.594,27.193,93.976,24.552L93.976,24.552z"/>
	<path d="M119.169,32.072c0.175-2.38-0.119-5.205-2.17-6.753c-2.785-1.947-7.09-1.167-8.985,1.667
		c-1.289,1.844-1.391,4.252-0.943,6.389c0.511,2.211,2.31,4.062,4.54,4.545c2.404,0.491,5.016,0.243,7.152-1.017
		c-0.381-0.812-0.785-1.611-1.198-2.405c-1.538,0.782-3.449,1.318-5.095,0.554c-1.133-0.536-1.558-1.824-1.735-2.974
		C113.547,32.075,116.359,32.087,119.169,32.072z M110.679,29.573c0.207-0.66,0.343-1.396,0.861-1.894
		c0.859-0.971,2.606-1.06,3.454-0.03c0.469,0.529,0.513,1.26,0.639,1.922C113.981,29.576,112.331,29.573,110.679,29.573z"/>
	<path d="M33.34,25.893c1.442-1.667,3.983-2.111,5.946-1.154c1.611,0.701,2.546,2.376,2.904,4.03
		c0.275,1.457,0.309,2.969,0.036,4.429c-0.41,2.084-1.846,4.029-3.913,4.692c-1.613,0.445-3.446,0.369-4.872-0.574
		c0.023,1.695-0.005,3.392,0.018,5.084c-1.218,0.405-2.443,0.812-3.718,1.002c0.005-6.28-0.008-12.563,0.008-18.844
		c1.211,0.003,2.422-0.015,3.63,0.02C33.37,25.015,33.355,25.456,33.34,25.893L33.34,25.893z M33.451,28.47
		c-0.002,2.008,0,4.019-0.002,6.027c1.102,0.87,2.857,1.191,3.962,0.164c1.138-1.12,1.185-2.883,1.071-4.378
		c-0.099-1.184-0.581-2.55-1.813-2.969C35.468,26.857,34.249,27.61,33.451,28.47L33.451,28.47z"/>
	<path d="M82.734,19.089c1.854-0.493,3.762-0.733,5.643-1.098c0.148,1.024,0.331,2.044,0.487,3.066
		c-2.103,0.479-4.369,0.43-6.332,1.409c-1.311,0.647-1.955,2.06-2.165,3.443c1.37-1.221,3.335-1.662,5.098-1.144
		c2.103,0.496,3.67,2.388,4.077,4.465c0.438,2.114,0.272,4.49-1.004,6.298c-1.973,2.972-6.67,3.531-9.348,1.227
		c-1.919-1.758-2.385-4.497-2.486-6.973c-0.027-2.35,0.109-4.811,1.212-6.937C78.868,20.955,80.717,19.63,82.734,19.089
		L82.734,19.089z M82.379,27.347c-0.741,0.218-1.425,0.721-1.795,1.406c-0.087,1.791-0.077,3.7,0.723,5.35
		c0.553,1.194,2.216,1.659,3.281,0.857c1.051-0.756,1.239-2.168,1.279-3.369c0.003-1.267-0.062-2.701-0.962-3.688
		C84.279,27.206,83.24,27.054,82.379,27.347L82.379,27.347z"/>
	<path d="M125.537,25.865c1.219-1.394,3.231-1.936,4.999-1.451c1.478,0.322,2.703,1.431,3.307,2.802
		c0.749,1.513,0.666,3.253,0.64,4.897c-0.015,2.289-1.341,4.603-3.454,5.567c-1.73,0.701-3.843,0.67-5.435-0.369
		c0.047,1.695,0.014,3.392,0.024,5.086c-1.2,0.405-2.407,0.814-3.67,0.984c0.009-6.275-0.015-12.55,0.014-18.826
		c1.19-0.003,2.38-0.005,3.57,0C125.535,24.993,125.537,25.428,125.537,25.865L125.537,25.865z M125.616,28.473
		c0,2.001,0.01,4.004-0.005,6.005c1.117,0.911,2.933,1.219,4.039,0.129c1.086-1.151,1.084-2.858,0.985-4.343
		c-0.067-1.229-0.642-2.646-1.939-2.997C127.517,26.915,126.396,27.656,125.616,28.473L125.616,28.473z"/>
	<path d="M44.616,26.138c1.564-1.374,3.714-1.962,5.769-1.885c1.219,0.029,2.485,0.296,3.495,1.012
		c0.945,0.764,1.382,1.998,1.414,3.187c0.092,3.121-0.224,6.278,0.396,9.363c-1.218-0.018-2.434-0.008-3.654-0.01
		c-0.041-0.425-0.082-0.85-0.119-1.272c-0.809,0.708-1.712,1.406-2.816,1.53c-1.642,0.314-3.636-0.18-4.473-1.743
		c-1.048-1.892-0.28-4.497,1.644-5.499c1.638-0.911,3.555-1.161,5.401-1.138c-0.059-0.794,0.128-1.92-0.806-2.279
		c-1.59-0.665-3.379,0.061-4.684,1.024C45.672,27.661,45.05,26.96,44.616,26.138L44.616,26.138z M48.241,32.826
		c-0.723,0.627-0.775,2.026,0.179,2.461c1.097,0.412,2.466,0.023,3.184-0.906c0.176-0.774-0.027-1.609,0.099-2.405
		C50.526,32.022,49.178,31.996,48.241,32.826L48.241,32.826z"/>
</g>
</svg>
