<svg xmlns="http://www.w3.org/2000/svg" viewBox="0 0 820 360"><path d="M278 90h-23c-2 0-3 2-3 3v72h-44V93c0-2-1-3-3-3h-23c-2 0-3 1-3 3v184c0 2 1 3 3 3h24c2 0 3-1 3-3v-88h44v88c0 2 1 3 3 3h23c2 0 3-2 3-3V93c0-2-1-3-3-3m531.86 164.09c0-1 .14-1.09-.86-1.09-2 0-12 4-27 4-29 0-43-28-43-72 0-39 12-77 31-77 5 0 12 2 22 11 1 1 2 2 3 2s2-1 3-3l10-17c1-1 1-2 1-3 0-2-2-3-4-4-16-8-26-9-35-9-36 0-63 42-63 109 0 57 27 90 64 90 16 0 33-8 40-13 2-1 2-3 2-4l-3-13m-162-79l45-83c1-1 0-3-1-3h-22c-6 0-9 2-11 7l-34 71c-2 4-4 7-6 8V92c0-2-1-3-2-3h-25c-1 0-2 1-2 3v184c0 1 1 3 2 3h25c2 0 2-1 2-3v-95l3 3 43 89c2 5 6 6 11 6h24c2 0 2-2 1-3l-53-101m-217 80h-5c-6 0-7-2-7-7V92c0-2-1-3-2-3h-76c-2 0-3 1-3 3v14c0 46-3 105-27 150h-8c-2 0-3 1-3 3v55c0 2 2 3 3 3h18c4 0 6-3 6-6v-31h81v34c0 2 1 3 3 3h19c2 0 5-2 5-6v-52c0-2-1.91-3.91-3.91-3.91M392 256h-55c19-33 27-70 30-115 1-10 1-20 1-27h24v142M510 86c-41 0-59 51-59 108s26 91 64 91c19 0 35-7 43-13 2-1 2-2 2-3l-3-13c0-2-1-2-3-2s-13 4-28 4c-29 0-43-25-43-59v-9s15 2 23 2h55v-16c0-59-21-90-51-90m-3.034 82.966c-9 0-22.966 1.034-22.966 1.034s0-6 1-12c3-32 11-48 25-48 12 0 20 17 22 46v13h-25"/><path d="M136-4H93C51-4 15 28 15 91c0 37 17 65 48 79L5 275c-2 3 0 6 3 6h27c2 0 4-1 5-3l53-103h19v103c0 1 1 3 3 3h23c2 0 3-1 3-3V1c0-3-2.91-4.91-4.91-4.91M112 151H96c-25 0-49-18-49-64 0-47 23-67 46-67h19v130" fill="#f00"/></svg>