<?xml version="1.0" encoding="UTF-8" standalone="no"?>
<svg width="184px" height="98px" viewBox="0 0 184 98" version="1.1" xmlns="http://www.w3.org/2000/svg" xmlns:xlink="http://www.w3.org/1999/xlink" xmlns:sketch="http://www.bohemiancoding.com/sketch/ns">
    <!-- Generator: Sketch 3.2.2 (9983) - http://www.bohemiancoding.com/sketch -->
    <title>Artboard</title>
    <desc>Created with Sketch.</desc>
    <defs>
        <radialGradient cx="57.7032432%" cy="87.6744292%" fx="57.7032432%" fy="87.6744292%" r="63.2767568%" id="radialGradient-1">
            <stop stop-color="#52A347" offset="0%"></stop>
            <stop stop-color="#83B03E" offset="50.2%"></stop>
            <stop stop-color="#2EA64C" offset="70.59%"></stop>
            <stop stop-color="#264122" offset="92.94%"></stop>
            <stop stop-color="#264122" offset="93.33%"></stop>
        </radialGradient>
        <radialGradient cx="53.2520245%" cy="32.8278509%" fx="53.2520245%" fy="32.8278509%" r="57.4547239%" id="radialGradient-2">
            <stop stop-color="#52A347" offset="0%"></stop>
            <stop stop-color="#83B03E" offset="50.2%"></stop>
            <stop stop-color="#2B9940" offset="70.59%"></stop>
            <stop stop-color="#264122" offset="92.94%"></stop>
            <stop stop-color="#264122" offset="93.33%"></stop>
        </radialGradient>
    </defs>
    <g id="Courses" stroke="none" stroke-width="1" fill="none" fill-rule="evenodd" sketch:type="MSPage">
        <g id="Artboard" sketch:type="MSArtboardGroup">
            <rect id="Rectangle-5" fill="#F5F2F0" sketch:type="MSShapeGroup" x="0" y="0" width="184" height="98"></rect>
            <text id="Банковская-квитанция" sketch:type="MSTextLayer" font-family="Open Sans Condensed" font-size="20" font-style="condensed" font-weight="bold" sketch:alignment="middle" line-spacing="21" fill="#555555">
                <tspan x="54" y="34">Банковская </tspan>
                <tspan x="56.3095703" y="55">квитанция</tspan>
            </text>
            <rect id="Rectangle-9" fill="#E7E5E3" sketch:type="MSShapeGroup" x="0" y="0" width="36" height="98"></rect>
            <text id="(RUB)" sketch:type="MSTextLayer" font-family="Open Sans" font-size="16" font-weight="normal" fill="#555555">
                <tspan x="89" y="82">(RUB)</tspan>
            </text>
            <g id="Shape-+-Shape-+-Shape" sketch:type="MSLayerGroup" transform="translate(19.000000, 49.500000) rotate(-90.000000) translate(-19.000000, -49.500000) translate(-23.000000, 41.000000)">
                <path d="M81.0152284,2.635 L82.9979695,2.635 C82.6423553,2.83305 82.1664975,3.20875 81.5691168,3.76125 L79.586802,5.78 L80.6741117,7.33125 C81.8113096,8.94625 82.8060914,10.17875 83.6588832,11.02875 L80.8233503,11.02875 C80.4681624,10.2068 80.0059492,9.37125 79.4375635,8.52125 L78.1583756,6.60875 L79.2674315,5.20625 C80.2617868,3.917225 80.8446701,3.06 81.0152284,2.635 L81.0152284,2.635 Z M78.0091371,3.57 L78.0091371,10.0725 L78.0944162,10.56125 C78.1511269,10.64625 78.2794721,10.717225 78.4777462,10.77375 L78.4777462,11.02875 L75.7274924,11.02875 L75.7274924,10.77375 L76.1112487,10.56125 C76.1679594,10.47625 76.1965279,10.313475 76.1965279,10.0725 L76.1965279,3.57 L76.1112487,3.1025 C76.0545381,3.003475 75.9261929,2.939725 75.7274924,2.91125 L75.7274924,2.635 L78.4777462,2.635 L78.4777462,2.91125 C78.2790457,2.9393 78.1507005,3.003475 78.0944162,3.1025 L78.0091371,3.57 L78.0091371,3.57 Z M73.915736,3.57 L73.915736,10.0725 L74.0010152,10.56125 L74.3847716,10.77375 L74.3847716,11.02875 L71.613198,11.02875 L71.613198,10.77375 C71.8118985,10.717225 71.9543147,10.64625 72.0395939,10.56125 L72.1031269,10.0725 L72.1031269,6.69375 L68.8625178,6.69375 L68.8625178,10.0725 L68.947797,10.56125 C69.004934,10.64625 69.1324264,10.717225 69.3311269,10.77375 L69.3311269,11.02875 L66.5382335,11.02875 L66.5382335,10.77375 C66.7659289,10.717225 66.9074924,10.64625 66.9646294,10.56125 L67.0499086,10.0725 L67.0499086,3.57 L66.9646294,3.1025 C66.9074924,3.003475 66.7659289,2.939725 66.5382335,2.91125 L66.5382335,2.635 L69.3311269,2.635 L69.3311269,2.91125 C69.132,2.9393 69.0045076,3.003475 68.947797,3.1025 L68.8625178,3.57 L68.8625178,6.14125 L72.1031269,6.14125 L72.1031269,3.57 L72.0395939,3.1025 C71.9543147,3.003475 71.8118985,2.939725 71.613198,2.91125 L71.613198,2.635 L74.3847716,2.635 L74.3847716,2.91125 C74.1856447,2.9393 74.0577259,3.003475 74.0010152,3.1025 L73.915736,3.57 L73.915736,3.57 Z M83.6588832,13.96125 L21.9593909,13.96125 L21.9593909,13.1325 L83.6588832,13.1325 L83.6588832,13.96125 L83.6588832,13.96125 Z M60.5055838,2.91125 L60.5055838,2.635 L62.9356142,2.635 C62.9637563,3.0175 63.0639594,3.428475 63.2340914,3.8675 L65.0249543,8.8825 C65.3234315,9.760975 65.6146599,10.47625 65.899066,11.02875 L63.7670863,11.02875 L62.8507614,8.01125 L60.1427208,8.01125 L59.5670863,10.00875 L59.3965279,11.02875 L57.8615025,11.02875 L60.5900102,4.73875 C60.8603452,4.0732 60.9950863,3.619725 60.9950863,3.37875 C60.9959391,3.109725 60.832203,2.95375 60.5055838,2.91125 L60.5055838,2.91125 Z M61.5076142,4.0375 L60.3563452,7.41625 L62.6588832,7.41625 L61.5076142,4.0375 L61.5076142,4.0375 Z M57.2010152,4.4625 L56.7315533,4.4625 L56.6249543,4.10125 C56.5111066,3.690275 56.3405482,3.42125 56.1132792,3.29375 L54.9406904,3.145 L53.8111675,3.145 C53.5549036,3.145 53.3847716,3.1875 53.2994924,3.2725 C53.2287107,3.343475 53.1928934,3.47055 53.1928934,3.655 L53.1928934,5.6525 L53.6619289,5.6525 C55.0263959,5.6525 55.9717157,5.787225 56.4974619,6.05625 C57.2509036,6.424725 57.6274112,7.147225 57.6274112,8.22375 C57.6274112,9.272225 57.328934,10.022775 56.7315533,10.47625 C56.2058071,10.844725 55.3888325,11.02875 54.2797766,11.02875 L50.9116751,11.02875 L50.9116751,10.77375 L51.3163249,10.56125 L51.3802843,10.0725 L51.3802843,3.57 L51.3163249,3.1025 C51.2596142,3.003475 51.1248731,2.939725 50.9116751,2.91125 L50.9116751,2.635 L57.2010152,2.635 L57.2010152,4.4625 L57.2010152,4.4625 Z M53.1928934,6.18375 L53.1928934,9.775 C53.1928934,10.058475 53.2427817,10.2425 53.342132,10.3275 C53.4564061,10.440975 53.6551066,10.4975 53.9390863,10.4975 L54.1949239,10.4975 C54.7355939,10.4975 55.1329949,10.31305 55.3892589,9.945 C55.6165279,9.605 55.7303756,9.059725 55.7303756,8.30875 C55.7303756,7.572225 55.6092792,7.0482 55.3675127,6.73625 C55.1116751,6.367775 54.6353909,6.18375 53.9390863,6.18375 L53.1928934,6.18375 L53.1928934,6.18375 Z M50.1654822,5.03625 C50.1654822,6.01375 49.8670051,6.715 49.2696244,7.14 C48.7579492,7.508475 47.9622944,7.6925 46.8818071,7.6925 L46.0290152,7.6925 L46.0290152,10.0725 L46.1142944,10.56125 C46.156934,10.64625 46.2916751,10.717225 46.5189442,10.77375 L46.5189442,11.02875 L43.7473706,11.02875 L43.7473706,10.77375 L44.1311269,10.56125 L44.2164061,10.0725 L44.2164061,3.57 L44.1311269,3.1025 C44.0744162,3.003475 43.9460711,2.939725 43.7473706,2.91125 L43.7473706,2.635 L47.2438173,2.635 C48.1959594,2.635 48.892264,2.776525 49.3331574,3.06 C49.8883249,3.428475 50.1654822,4.087225 50.1654822,5.03625 L50.1654822,5.03625 Z M46.1573604,3.23 C46.0720812,3.286525 46.0294416,3.414025 46.0294416,3.6125 L46.0294416,7.16125 L46.8822335,7.16125 C47.4079797,7.16125 47.777665,6.962775 47.9908629,6.56625 C48.1759188,6.212225 48.2680203,5.67375 48.2680203,4.95125 C48.2680203,3.747225 47.7631675,3.145 46.7543147,3.145 L46.5411168,3.145 L46.1573604,3.23 L46.1573604,3.23 Z M42.4690355,4.4625 L42.0213198,4.4625 L41.9147208,4.10125 C41.772731,3.690275 41.5949239,3.42125 41.3817259,3.29375 L40.2304569,3.145 L39.2923858,3.145 L38.951269,3.23 L38.8659898,3.54875 L38.8659898,6.14125 L39.9746193,6.14125 C40.742132,6.14125 41.2465584,6.05625 41.4883249,5.88625 L41.4883249,6.94875 C41.2469848,6.77875 40.742132,6.69375 39.9746193,6.69375 L38.8659898,6.69375 L38.8659898,9.83875 C38.8659898,10.09375 38.951269,10.270975 39.1218274,10.37 L40.1878173,10.4975 L40.422335,10.4975 L41.5736041,10.3275 C41.772731,10.2 41.9292183,9.888475 42.0426396,9.3925 L42.1279188,9.07375 L42.6609137,9.07375 L42.6609137,11.02875 L36.5847716,11.02875 L36.5847716,10.77375 C36.7979695,10.717225 36.9331371,10.64625 36.9898477,10.56125 L37.0751269,10.0725 L37.0751269,3.57 L36.9898477,3.1025 C36.9331371,3.003475 36.7979695,2.939725 36.5847716,2.91125 L36.5847716,2.635 L42.4690355,2.635 L42.4690355,4.4625 L42.4690355,4.4625 Z M35.1989848,4.4625 L34.751269,4.4625 L34.6446701,4.10125 C34.5167513,3.690275 34.3389442,3.42125 34.1116751,3.29375 L32.9817259,3.145 L31.8091371,3.145 C31.5673706,3.145 31.3968122,3.1875 31.2974619,3.2725 C31.2548223,3.343475 31.2335025,3.47055 31.2335025,3.655 L31.2335025,5.6525 L31.7025381,5.6525 C33.052934,5.6525 33.9978274,5.787225 34.5380711,6.05625 C35.2770152,6.424725 35.6467005,7.147225 35.6467005,8.22375 C35.6467005,9.272225 35.3482234,10.022775 34.751269,10.47625 C34.2395939,10.844725 33.4221929,11.02875 32.2994924,11.02875 L28.9096447,11.02875 L28.9096447,10.77375 C29.1373401,10.717225 29.2793299,10.64625 29.3360406,10.56125 L29.4213198,10.0725 L29.4213198,3.57 L29.3360406,3.1025 C29.2793299,3.003475 29.1373401,2.939725 28.9096447,2.91125 L28.9096447,2.635 L35.1989848,2.635 L35.1989848,4.4625 L35.1989848,4.4625 Z M26.7137056,3.315 C26.457868,3.130975 26.0600406,3.03875 25.519797,3.03875 C24.6670051,3.03875 24.062802,3.350275 23.7076142,3.97375 C23.4091371,4.512225 23.2598985,5.390275 23.2598985,6.60875 C23.2598985,7.827225 23.4232081,8.726525 23.7502538,9.3075 C24.1480812,10.03 24.8303147,10.39125 25.7969543,10.39125 C26.5077563,10.39125 27.2113096,10.22125 27.9076142,9.88125 L28.1634518,10.4125 C27.3532995,10.90805 26.4011574,11.15625 25.306599,11.15625 C22.6343756,11.15625 21.2984772,9.746525 21.2984772,6.9275 C21.2984772,3.96695 22.684264,2.48625 25.4558376,2.48625 C26.5218274,2.48625 27.3392284,2.61375 27.9076142,2.86875 L27.9076142,4.61125 L27.3746193,4.61125 L27.2253807,4.10125 C27.111533,3.747225 26.9409746,3.485 26.7137056,3.315 L26.7137056,3.315 Z M31.2335025,6.18375 L31.2335025,9.775 C31.2335025,10.058475 31.2761421,10.2425 31.3614213,10.3275 C31.475269,10.440975 31.6812183,10.4975 31.9796954,10.4975 L32.2142132,10.4975 C33.2375635,10.4975 33.7492386,9.767775 33.7492386,8.30875 C33.7492386,7.572225 33.6285685,7.0482 33.386802,6.73625 C33.1168934,6.367775 32.6333604,6.18375 31.9370558,6.18375 L31.2335025,6.18375 L31.2335025,6.18375 Z" id="Shape" fill="#006236" sketch:type="MSShapeGroup"></path>
                <path d="M13.964467,1.29625 L14.7106599,1.97625 L5.28730964,7.37375 L0.724873096,4.73875 L1.15126904,3.88875 L5.28730964,6.2475 L13.964467,1.29625 L13.964467,1.29625 Z M12.0670051,0.2125 L13.0690355,0.7225 L5.28730964,5.185 L1.66294416,3.12375 L2.28121827,2.38 L5.28730964,4.10125 L12.0670051,0.2125 L12.0670051,0.2125 Z M15.3715736,2.6775 L15.9258883,3.42125 L5.28730964,9.52 L0.149238579,6.5875 L0.383756345,5.6525 L5.28730964,8.4575 L15.3715736,2.6775 L15.3715736,2.6775 Z" id="Shape" fill="url(#radialGradient-1)" sketch:type="MSShapeGroup"></path>
                <path d="M16.906599,5.41875 C17.2191472,6.297225 17.3756345,7.217775 17.3756345,8.18125 C17.3756345,9.144725 17.2191472,10.079725 16.906599,10.98625 L16.693401,11.560425 C16.252934,12.59445 15.6346599,13.515425 14.8385787,14.322925 C14.0284264,15.115975 13.1048528,15.725425 12.0670051,16.150425 C10.9728731,16.617925 9.84292386,16.851675 8.67715736,16.851675 C7.4973198,16.851675 6.36737056,16.6175 5.28730964,16.150425 C4.27803046,15.725425 3.36127919,15.115975 2.53705584,14.322925 C1.72690355,13.515425 1.10862944,12.59445 0.682233503,11.560425 C0.227269036,10.469025 0,9.342775 0,8.18125 L0,7.6075 L5.28730964,10.60375 L16.4375635,4.22875 L16.906599,5.41875 L16.906599,5.41875 Z" id="Shape" fill="url(#radialGradient-2)" sketch:type="MSShapeGroup"></path>
            </g>
        </g>
    </g>
</svg>