<?xml version="1.0" encoding="UTF-8" standalone="no"?>
<svg width="184px" height="98px" viewBox="0 0 184 98" version="1.1" xmlns="http://www.w3.org/2000/svg" xmlns:xlink="http://www.w3.org/1999/xlink" xmlns:sketch="http://www.bohemiancoding.com/sketch/ns">
    <!-- Generator: Sketch 3.2.2 (9983) - http://www.bohemiancoding.com/sketch -->
    <title>Artboard</title>
    <desc>Created with Sketch.</desc>
    <defs>
        <path id="path-1" d="M0.06,0 L80,0 L80,23.94 L0.06,23.94"></path>
    </defs>
    <g id="Courses" stroke="none" stroke-width="1" fill="none" fill-rule="evenodd" sketch:type="MSPage">
        <g id="Artboard" sketch:type="MSArtboardGroup">
            <rect id="Rectangle-7" fill="#F5F2F0" sketch:type="MSShapeGroup" x="0" y="0" width="184" height="98"></rect>
            <rect id="Rectangle-11" fill="#E7E5E3" sketch:type="MSShapeGroup" x="0" y="0" width="36" height="98"></rect>
            <g id="interkassa-2" sketch:type="MSLayerGroup" transform="translate(19.000000, 49.000000) rotate(-90.000000) translate(-19.000000, -49.000000) translate(-21.000000, 37.000000)">
                <g id="Group-6">
                    <mask id="mask-2" sketch:name="Clip 2" fill="white">
                        <use xlink:href="#path-1"></use>
                    </mask>
                    <g id="Clip-2"></g>
                    <path d="M0.02,17.67 L0.02,20.23 C0.02,20.23 4.08,24 8.43,24 C12.77,24 16.48,20.23 16.48,20.23 L16.48,17.71 C16.48,17.69 12.55,20.2 8.48,20.19 C4.32,20.19 0.02,17.67 0.02,17.67" id="Fill-1" fill="#5CB45A" sketch:type="MSShapeGroup" mask="url(#mask-2)"></path>
                    <path d="M16.48,8.27 L16.48,8.17 C16.35,3.64 12.72,0 8.25,0 C3.78,0 0.15,3.64 0.03,8.17 L0.02,8.17 L0.02,16.35 C0.02,16.35 3.66,18.65 8.61,18.65 C13.31,18.65 16.48,16.31 16.48,16.31 L16.48,8.27" id="Fill-3" fill="#13A85D" sketch:type="MSShapeGroup" mask="url(#mask-2)"></path>
                    <path d="M8.55,12.69 C10.23,12.69 11.58,11.31 11.58,9.6 C11.58,7.89 10.23,6.5 8.55,6.5 C6.88,6.5 5.53,7.89 5.53,9.6 C5.53,11.31 6.88,12.69 8.55,12.69" id="Fill-4" fill="#FFFFFF" sketch:type="MSShapeGroup" mask="url(#mask-2)"></path>
                    <path d="M12.8,17.98 C12.6,15.3 10.78,13.2 8.55,13.2 C6.31,13.2 4.47,15.35 4.31,18.07 C1.79,17.36 0,16.31 0,16.31 L0,17.7 C0,17.7 4.5,20.26 8.55,20.26 C12.61,20.26 16.5,17.83 16.5,17.83 L16.5,16.31 C16.5,16.31 14.54,17.47 12.8,17.98" id="Fill-5" fill="#FFFFFF" sketch:type="MSShapeGroup" mask="url(#mask-2)"></path>
                </g>
                <path d="M22.69,7.25 L22.69,8.92 C22.69,10.32 22.61,11.67 22.54,12.46 L22.58,12.46 C22.83,11.65 23.16,10.79 23.4,10.18 L24.51,7.25 L26.37,7.25 L26.37,14.94 L24.59,14.94 L24.59,13.26 C24.59,11.7 24.66,10.82 24.71,9.8 L24.66,9.8 C24.43,10.6 24.24,11.25 23.95,11.98 C23.76,12.5 23.17,14.01 22.75,14.94 L20.92,14.94 L20.92,7.25 L22.69,7.25" id="Fill-7" fill="#233540" sketch:type="MSShapeGroup"></path>
                <path d="M29.71,7.25 L29.71,10.16 L31.26,10.16 L31.26,7.25 L33.23,7.25 L33.23,14.94 L31.26,14.94 L31.26,11.91 L29.71,11.91 L29.71,14.94 L27.74,14.94 L27.74,7.25 L29.71,7.25" id="Fill-8" fill="#233540" sketch:type="MSShapeGroup"></path>
                <path d="M39.28,7.25 L39.28,8.92 L37.64,8.92 L37.64,14.94 L35.65,14.94 L35.65,8.92 L34.01,8.92 L34.01,7.25 L39.28,7.25" id="Fill-9" fill="#233540" sketch:type="MSShapeGroup"></path>
                <path d="M41.43,11.83 C41.46,13.02 42.12,13.46 42.99,13.46 C43.55,13.46 44.04,13.34 44.39,13.21 L44.66,14.69 C44.15,14.89 43.38,15.03 42.63,15.03 C40.63,15.03 39.53,13.65 39.53,11.25 C39.53,8.67 40.81,7.13 42.48,7.13 C44.06,7.13 44.97,8.43 44.97,10.76 C44.97,11.31 44.96,11.61 44.91,11.83 L41.43,11.83 L41.43,11.83 Z M43.18,10.38 C43.18,9.39 42.94,8.62 42.36,8.62 C41.71,8.62 41.46,9.61 41.44,10.38 L43.18,10.38 L43.18,10.38 Z" id="Fill-10" fill="#233540" sketch:type="MSShapeGroup"></path>
                <path d="M45.83,9.69 C45.83,8.76 45.8,7.98 45.77,7.25 L47.48,7.25 L47.59,8.13 L47.62,8.13 C47.92,7.5 48.47,7.13 49.15,7.13 C50.77,7.13 51.44,8.95 51.44,11.09 C51.44,13.82 50.28,15.06 49.04,15.06 C48.44,15.06 48.04,14.67 47.83,14.31 L47.8,14.31 L47.8,17.96 L45.83,17.96 L45.83,9.69 L45.83,9.69 Z M47.8,12.13 C47.8,12.39 47.83,12.63 47.9,12.79 C48.05,13.26 48.31,13.38 48.53,13.38 C49.22,13.38 49.47,12.31 49.47,11.1 C49.47,9.64 49.13,8.86 48.55,8.86 C48.25,8.86 47.96,9.16 47.89,9.52 C47.81,9.67 47.8,9.88 47.8,10.07 L47.8,12.13 L47.8,12.13 Z" id="Fill-11" fill="#233540" sketch:type="MSShapeGroup"></path>
                <path d="M54.37,7.25 L54.37,10.32 L54.58,10.32 L55.85,7.25 L57.9,7.25 L56,10.55 C56.74,10.81 57.12,11.75 57.31,12.75 C57.43,13.34 57.73,14.42 57.96,14.94 L55.99,14.94 C55.78,14.51 55.63,13.85 55.46,13.07 C55.28,12.3 54.98,11.75 54.5,11.75 L54.37,11.75 L54.37,14.94 L52.44,14.94 L52.44,7.25 L54.37,7.25" id="Fill-12" fill="#13A85D" sketch:type="MSShapeGroup"></path>
                <path d="M62.17,14.94 L62.06,14.18 L62.03,14.18 C61.63,14.78 61.06,15.06 60.41,15.06 C59.3,15.06 58.47,14.09 58.47,12.72 C58.47,10.71 60.17,9.88 61.84,9.86 L61.84,9.69 C61.84,9.09 61.49,8.65 60.8,8.65 C60.21,8.65 59.73,8.81 59.3,9.09 L58.94,7.71 C59.34,7.46 60.2,7.13 61.22,7.13 C63.46,7.13 63.82,8.76 63.82,10.32 L63.82,13.18 C63.82,13.79 63.85,14.42 63.94,14.94 L62.17,14.94 L62.17,14.94 Z M61.9,11.2 C61.24,11.21 60.34,11.43 60.34,12.5 C60.34,13.27 60.74,13.56 61.04,13.56 C61.36,13.56 61.72,13.35 61.85,12.9 C61.88,12.79 61.9,12.66 61.9,12.53 L61.9,11.2 L61.9,11.2 Z" id="Fill-13" fill="#13A85D" sketch:type="MSShapeGroup"></path>
                <path d="M69.18,14.81 C68.98,14.91 68.48,15.03 67.93,15.03 C66.06,15.03 64.84,13.68 64.84,11.17 C64.84,8.79 66.18,7.14 68.21,7.14 C68.68,7.14 69.1,7.25 69.3,7.35 L69.04,8.97 C68.87,8.9 68.63,8.83 68.3,8.83 C67.36,8.83 66.8,9.77 66.8,11.1 C66.8,12.5 67.36,13.35 68.27,13.35 C68.56,13.35 68.8,13.3 69.01,13.19 L69.18,14.81" id="Fill-14" fill="#13A85D" sketch:type="MSShapeGroup"></path>
                <path d="M73.91,14.81 C73.71,14.91 73.22,15.03 72.66,15.03 C70.8,15.03 69.58,13.68 69.58,11.17 C69.58,8.79 70.92,7.14 72.95,7.14 C73.41,7.14 73.83,7.25 74.03,7.35 L73.77,8.97 C73.61,8.9 73.37,8.83 73.04,8.83 C72.09,8.83 71.53,9.77 71.53,11.1 C71.53,12.5 72.09,13.35 73.01,13.35 C73.29,13.35 73.53,13.3 73.74,13.19 L73.91,14.81" id="Fill-15" fill="#13A85D" sketch:type="MSShapeGroup"></path>
                <path d="M78.23,14.94 L78.12,14.18 L78.09,14.18 C77.68,14.78 77.11,15.06 76.47,15.06 C75.35,15.06 74.53,14.09 74.53,12.72 C74.53,10.71 76.23,9.88 77.89,9.86 L77.89,9.69 C77.89,9.09 77.55,8.65 76.86,8.65 C76.27,8.65 75.79,8.81 75.35,9.09 L74.99,7.71 C75.4,7.46 76.26,7.13 77.28,7.13 C79.52,7.13 79.88,8.76 79.88,10.32 L79.88,13.18 C79.88,13.79 79.91,14.42 80,14.94 L78.23,14.94 L78.23,14.94 Z M77.95,11.2 C77.29,11.21 76.39,11.43 76.39,12.5 C76.39,13.27 76.8,13.56 77.1,13.56 C77.41,13.56 77.77,13.35 77.91,12.9 C77.94,12.79 77.95,12.66 77.95,12.53 L77.95,11.2 L77.95,11.2 Z" id="Fill-16" fill="#13A85D" sketch:type="MSShapeGroup"></path>
            </g>
            <text id="Терминалы-и-банки" sketch:type="MSTextLayer" font-family="Open Sans Condensed" font-size="20" font-style="condensed" font-weight="bold" sketch:alignment="middle" line-spacing="21" fill="#555555">
                <tspan x="54" y="34">Терминалы </tspan>
                <tspan x="68.4238281" y="55">и банки</tspan>
            </text>
            <text id="(Украина)" sketch:type="MSTextLayer" font-family="Open Sans" font-size="16" font-weight="normal" fill="#555555">
                <tspan x="72" y="82">(Украина)</tspan>
            </text>
        </g>
    </g>
</svg>