<svg width="31" height="31" xmlns="http://www.w3.org/2000/svg">
  <g fill-rule="evenodd" fill="none">
    <g>
      <path fill="#FFFFFF"
            d="M14.637 23.98c.028.02.057.037.086.054.033.018.065.034.1.05.017.008.033.02.052.027l.03.01c.035.015.07.026.107.037.03.008.058.017.088.024.035.01.07.014.106.02.032.003.06.01.092.01.037.003.073.003.11.003.03 0 .06 0 .088-.002.038 0 .076-.007.114-.013.028-.004.056-.008.084-.015.037-.006.074-.018.11-.03.03-.007.057-.016.084-.026l.04-.013c.02-.008.042-.02.064-.032.027-.012.054-.026.08-.04l.097-.06c.022-.017.047-.033.07-.05l.09-.08c.013-.01.03-.022.04-.035l6.438-6.436c.536-.54.536-1.41 0-1.946-.537-.535-1.41-.535-1.945 0l-4.09 4.092V6.788c0-.475-.24-.894-.606-1.14-.22-.15-.485-.236-.77-.236-.38 0-.723.154-.972.403-.25.25-.403.593-.403.973V19.52l-4.09-4.09c-.536-.535-1.406-.536-1.944 0-.267.27-.402.622-.402.974 0 .35.134.703.402.972l6.44 6.436c.012.014.028.025.042.038.027.025.056.05.086.074.025.02.052.038.08.056"/>
      <circle r="14.5" cy="15.5" cx="15.5" stroke="#FFFFFF"/>
    </g>
  </g>
</svg>
