<?xml version="1.0" encoding="UTF-8" standalone="no"?>
<svg width="252px" height="82px" viewBox="0 0 252 82" version="1.1" xmlns="http://www.w3.org/2000/svg" xmlns:xlink="http://www.w3.org/1999/xlink" xmlns:sketch="http://www.bohemiancoding.com/sketch/ns">
    <!-- Generator: Sketch 3.0.4 (8053) - http://www.bohemiancoding.com/sketch -->
    <title>JavaScript.ru</title>
    <desc>Created with Sketch.</desc>
    <style>
        #overlay {
            cursor: pointer;
        }
    </style>
    <defs></defs>
    <g id="Other" stroke="none" stroke-width="1" fill="none" fill-rule="evenodd" sketch:type="MSPage">
        <g id="Logo" sketch:type="MSArtboardGroup" transform="translate(-86.000000, -30.000000)">
            <g id="Group" sketch:type="MSLayerGroup" transform="translate(86.000000, 31.000000)">
                <path d="M93.147,78.8 L83.057,28.47 C82.827,27.28 81.647,26.32 80.437,26.32 L79.871,26.32 C80.225,25.768 80.437,25.115 80.437,24.41 C80.437,22.45 78.847,20.86 76.887,20.86 C74.917,20.86 73.327,22.45 73.327,24.41 C73.327,25.115 73.538,25.768 73.893,26.32 L73.877,26.32 C72.667,26.32 71.497,27.28 71.257,28.47 L61.167,78.8 C60.937,79.98 61.717,80.94 62.927,80.94 L66.757,80.94 C67.967,80.94 69.107,79.97 69.297,78.78 L70.022,74.255 L83.506,69.358 L85.017,78.78 C85.207,79.97 86.347,80.94 87.557,80.94 L91.387,80.94 C92.597,80.94 93.387,79.98 93.147,78.8 L93.147,78.8 Z M80.124,48.258 L73.711,51.243 L74.875,43.984 L79.807,46.279 L80.124,48.258 L80.124,48.258 Z M77.157,29.751 L79.389,43.677 L75.234,41.743 L77.157,29.751 L77.157,29.751 Z M71.209,66.855 L72.443,59.155 L80.163,63.6 L71.209,66.855 L71.209,66.855 Z M74.333,54.567 L80.663,51.622 L81.827,58.882 L74.333,54.567 L74.333,54.567 Z" id="Lighthouse" fill="#C13335" sketch:type="MSShapeGroup"></path>
                <path d="M0.5,59.17 C0.5,57.82 1.48,56.22 2.68,55.6 L5.45,54.18 C6.65,53.56 7.63,54.15 7.63,55.5 L7.63,66.68 C7.63,67.13 7.78,67.38 8.29,67.38 L10.97,67.38 C11.47,67.38 11.62,67.08 11.62,66.63 L11.62,44.51 L6.14,44.51 C4.78,44.51 3.89,43.43 4.14,42.1 L4.5,40.2 C4.75,38.87 6.05,37.79 7.4,37.79 L16.55,37.79 C17.91,37.79 19,38.89 19,40.24 L19,68.67 C19,71.5 17.24,73.84 14.05,73.84 L5.35,73.84 C2.47,73.84 0.5,72.05 0.5,69.22 L0.5,59.17" id="J" fill="#333333" sketch:type="MSShapeGroup"></path>
                <path d="M29.52,63.65 L32.91,63.65 L31.24,50.87 L29.52,63.65 L29.52,63.65 Z M28.71,69.37 L28.41,71.42 C28.21,72.76 26.95,73.84 25.6,73.84 L23.12,73.84 C21.77,73.84 20.87,72.76 21.11,71.44 L26.85,40.2 C27.1,38.87 28.39,37.79 29.75,37.79 L32.68,37.79 C34.03,37.79 35.33,38.87 35.57,40.2 L41.31,71.44 C41.56,72.76 40.66,73.84 39.3,73.84 L36.82,73.84 C35.47,73.84 34.21,72.76 34.02,71.42 L33.71,69.37 L28.71,69.37 L28.71,69.37 Z" id="A" fill="#333333" sketch:type="MSShapeGroup"></path>
                <path d="M52.78,40.21 C52.97,38.88 54.23,37.79 55.58,37.79 L58.11,37.79 C59.46,37.79 60.36,38.87 60.11,40.2 L54.24,71.44 C53.99,72.76 52.69,73.84 51.33,73.84 L48.6,73.84 C47.25,73.84 45.95,72.76 45.7,71.44 L39.83,40.2 C39.58,38.87 40.47,37.79 41.83,37.79 L44.36,37.79 C45.71,37.79 46.96,38.88 47.15,40.21 L47.47,42.42 L49.94,61.06 L52.47,42.32 L52.78,40.21" id="V" fill="#333333" sketch:type="MSShapeGroup"></path>
                <path d="M99.8,73.84 C98.43,73.84 97.11,72.75 96.85,71.41 L96.5,69.56 C96.24,68.22 97.14,67.13 98.51,67.13 L103.78,67.13 C104.43,67.13 104.63,66.93 104.63,66.38 L104.63,59.82 C104.63,58.83 104.28,58.78 103.29,58.78 L99.56,58.78 C97.42,58.78 95.53,58.28 95.53,54.7 L95.53,42.47 C95.53,39.63 97.02,37.79 100.4,37.79 L107.87,37.79 C109.24,37.79 110.55,38.88 110.79,40.23 L111.14,42.07 C111.38,43.42 110.48,44.51 109.11,44.51 L103.44,44.51 C102.84,44.51 102.54,44.75 102.54,45.3 L102.54,51.86 C102.54,52.61 102.89,52.81 103.63,52.81 L108.16,52.81 C110.44,52.81 111.74,53.8 111.74,56.49 L111.74,68.37 C111.74,72.35 110.34,73.84 106.22,73.84 L99.8,73.84" id="S" fill="#333333" sketch:type="MSShapeGroup"></path>
                <path d="M120.33,73.84 C116.21,73.84 114.71,72.25 114.71,68.27 L114.71,42.22 C114.71,39.38 116.55,37.79 118.94,37.79 L125.96,37.79 C127.32,37.79 128.63,38.88 128.88,40.23 L129.22,42.07 C129.47,43.42 128.57,44.51 127.2,44.51 L122.77,44.51 C122.27,44.51 122.12,44.75 122.12,45.2 L122.12,66.43 C122.12,66.88 122.27,67.13 122.77,67.13 L127.2,67.13 C128.57,67.13 129.46,68.22 129.21,69.56 L128.85,71.41 C128.59,72.75 127.27,73.84 125.91,73.84 L120.33,73.84" id="C" fill="#333333" sketch:type="MSShapeGroup"></path>
                <path d="M138.75,44.11 L138.75,56.54 L142.27,56.54 C142.82,56.54 142.97,56.34 142.97,55.79 L142.97,44.85 C142.97,44.41 142.77,44.11 142.27,44.11 L138.75,44.11 L138.75,44.11 Z M150.08,59.17 C150.08,60.76 148.93,62.35 146.85,62.35 L149.85,71.49 C150.28,72.79 149.52,73.84 148.15,73.84 L145.64,73.84 C144.28,73.84 142.85,72.78 142.45,71.47 L139.69,62.35 L138.75,62.35 L138.75,71.36 C138.75,72.73 137.64,73.84 136.27,73.84 L134.01,73.84 C132.65,73.84 131.54,72.73 131.54,71.36 L131.54,40.27 C131.54,38.9 132.65,37.79 134.01,37.79 L145.21,37.79 C148.59,37.79 150.08,39.63 150.08,42.47 L150.08,59.17 L150.08,59.17 Z" id="R" fill="#333333" sketch:type="MSShapeGroup"></path>
                <path d="M153.78,40.27 C153.78,38.9 154.88,37.79 156.25,37.79 L158.51,37.79 C159.87,37.79 160.98,38.9 160.98,40.27 L160.98,71.36 C160.98,72.73 159.87,73.84 158.51,73.84 L156.25,73.84 C154.88,73.84 153.78,72.73 153.78,71.36 L153.78,40.27" id="I" fill="#333333" sketch:type="MSShapeGroup"></path>
                <path d="M171.74,44.11 L171.74,58.28 L175.32,58.28 C175.91,58.28 176.01,58.08 176.01,57.53 L176.01,44.8 C176.01,44.36 175.86,44.11 175.37,44.11 L171.74,44.11 L171.74,44.11 Z M178.75,37.79 C181.58,37.79 183.02,39.53 183.02,42.17 L183.02,59.42 C183.02,62.16 181.93,64.24 177.9,64.24 L171.74,64.24 L171.74,71.36 C171.74,72.73 170.63,73.84 169.26,73.84 L167.06,73.84 C165.69,73.84 164.58,72.73 164.58,71.36 L164.58,40.27 C164.58,38.9 165.69,37.79 167.06,37.79 L178.75,37.79 L178.75,37.79 Z" id="P" fill="#333333" sketch:type="MSShapeGroup"></path>
                <path d="M200.21,37.79 L202,44.51 L197.18,44.51 L197.18,73.84 L189.83,73.84 L189.83,44.51 L185.01,44.51 L186.89,37.79 L200.21,37.79" id="T" fill="#333333" sketch:type="MSShapeGroup"></path>
                <path d="M204.39,66.01 C206.52,66.01 208.26,67.75 208.26,69.89 C208.26,72.03 206.52,73.72 204.39,73.72 C202.25,73.72 200.51,72.03 200.51,69.89 C200.51,67.75 202.25,66.01 204.39,66.01" id="Dot" fill="#333333" sketch:type="MSShapeGroup"></path>
                <path d="M218.45,44.11 L218.45,56.54 L221.98,56.54 C222.53,56.54 222.68,56.34 222.68,55.79 L222.68,44.85 C222.68,44.41 222.48,44.11 221.98,44.11 L218.45,44.11 L218.45,44.11 Z M229.78,59.17 C229.78,60.76 228.64,62.35 226.55,62.35 L229.56,71.49 C229.98,72.79 229.22,73.84 227.85,73.84 L225.35,73.84 C223.98,73.84 222.55,72.78 222.16,71.47 L219.4,62.35 L218.45,62.35 L218.45,71.36 C218.45,72.73 217.34,73.84 215.98,73.84 L213.72,73.84 C212.35,73.84 211.24,72.73 211.24,71.36 L211.24,40.27 C211.24,38.9 212.35,37.79 213.72,37.79 L224.91,37.79 C228.29,37.79 229.78,39.63 229.78,42.47 L229.78,59.17 L229.78,59.17 Z" id="R2" fill="#333333" sketch:type="MSShapeGroup"></path>
                <path d="M238.48,73.84 C234.35,73.84 232.86,72.25 232.86,68.27 L232.86,40.27 C232.86,38.9 233.97,37.79 235.34,37.79 L237.74,37.79 C239.11,37.79 240.22,38.9 240.22,40.27 L240.22,66.73 C240.22,67.28 240.32,67.53 240.91,67.53 L243.45,67.53 C244.04,67.53 244.14,67.28 244.14,66.73 L244.14,40.27 C244.14,38.9 245.25,37.79 246.62,37.79 L249.02,37.79 C250.39,37.79 251.5,38.9 251.5,40.27 L251.5,68.27 C251.5,72.25 250.01,73.84 245.88,73.84 L238.48,73.84" id="U" fill="#333333" sketch:type="MSShapeGroup"></path>
                <path d="M96.503,17.81 L97.263,18.76 L87.783,22.29 L87.643,22.06 L91.503,18.98 L89.983,18.71 L94.103,15.94 L93.523,14.78 L105.293,10 L105.433,10.17 L100.263,14.33 L101.473,14.61 L96.503,17.81" id="Ray-right-top" fill="#C13335" sketch:type="MSShapeGroup">
                    <animate attributeName="opacity" from="1" to="0" dur="2s" begin="overlay.mouseover" end="overlay.mouseout" repeatCount="indefinite" />
                    <animateMotion from="0,0" to="15,-10" dur="2s" begin="overlay.mouseover" end="overlay.mouseout" repeatCount="indefinite" />
                </path>
                <path d="M93.873,28.29 L92.903,27.28 L98.523,26.4 L97.913,25.03 L109.693,26.4 L109.723,26.68 L104.603,27.51 L104.943,28.59 L98.373,28.8 L99.073,30.15 L90.193,29.53 L90.123,29.28 L93.873,28.29" id="Ray-right-bottom" fill="#C13335" sketch:type="MSShapeGroup">
                    <animate attributeName="opacity" from="1" to="0" dur="2s" begin="overlay.mouseover" end="overlay.mouseout" repeatCount="indefinite" />
                    <animateMotion from="0,0" to="15,-6" dur="2s" begin="overlay.mouseover" end="overlay.mouseout" repeatCount="indefinite" />
                </path>
                <path d="M56.803,17.81 L56.053,18.76 L65.533,22.29 L65.673,22.06 L61.813,18.98 L63.333,18.71 L59.213,15.94 L59.783,14.78 L48.023,10 L47.883,10.17 L53.053,14.33 L51.843,14.61 L56.803,17.81" id="Ray-left-top" fill="#C13335" sketch:type="MSShapeGroup">
                    <animate attributeName="opacity" from="1" to="0" dur="2s" begin="overlay.mouseover" end="overlay.mouseout" repeatCount="indefinite" />
                    <animateMotion from="0,0" to="-15,-10" dur="2s" begin="overlay.mouseover" end="overlay.mouseout" repeatCount="indefinite" />
                </path>
                <path d="M59.443,28.29 L60.403,27.28 L54.793,26.4 L55.403,25.03 L43.623,26.4 L43.593,26.68 L48.703,27.51 L48.373,28.59 L54.943,28.8 L54.243,30.15 L63.123,29.53 L63.193,29.28 L59.443,28.29" id="Ray-left-bottom" fill="#C13335" sketch:type="MSShapeGroup">
                    <animate attributeName="opacity" from="1" to="0" dur="2s" begin="overlay.mouseover" end="overlay.mouseout" repeatCount="indefinite" />
                    <animateMotion from="0,0" to="-15,-6" dur="2s" begin="overlay.mouseover" end="overlay.mouseout" repeatCount="indefinite" />
                </path>
            </g>
        </g>
    </g>
    <rect id="overlay" x="0" y="0" width="252" height="82" pointer-events="all" fill="none" />
</svg>