<?xml version="1.0" encoding="UTF-8" standalone="no"?>
<svg width="121px" height="35px" viewBox="0 0 252 72" version="1.1" xmlns="http://www.w3.org/2000/svg" xmlns:xlink="http://www.w3.org/1999/xlink" xmlns:sketch="http://www.bohemiancoding.com/sketch/ns">
    <!-- Generator: Sketch 3.0.4 (8054) - http://www.bohemiancoding.com/sketch -->
    <title>Javascript.ru</title>
    <desc>Created with Sketch.</desc>
    <defs></defs>
    <g id="Other" stroke="none" stroke-width="1" fill="none" fill-rule="evenodd" sketch:type="MSPage">
        <g id="Logo" sketch:type="MSArtboardGroup" transform="translate(-86.000000, -30.000000)" fill="#898786">
            <g id="Group" sketch:type="MSLayerGroup" transform="translate(86.000000, 31.000000)">
                <path d="M93.147,68.8 L83.057,18.47 C82.827,17.28 81.647,16.32 80.437,16.32 L79.871,16.32 C80.225,15.768 80.437,15.115 80.437,14.41 C80.437,12.45 78.847,10.86 76.887,10.86 C74.917,10.86 73.327,12.45 73.327,14.41 C73.327,15.115 73.538,15.768 73.893,16.32 L73.877,16.32 C72.667,16.32 71.497,17.28 71.257,18.47 L61.167,68.8 C60.937,69.98 61.717,70.94 62.927,70.94 L66.757,70.94 C67.967,70.94 69.107,69.97 69.297,68.78 L70.022,64.255 L83.506,59.358 L85.017,68.78 C85.207,69.97 86.347,70.94 87.557,70.94 L91.387,70.94 C92.597,70.94 93.387,69.98 93.147,68.8 L93.147,68.8 Z M80.124,38.258 L73.711,41.243 L74.875,33.984 L79.807,36.279 L80.124,38.258 L80.124,38.258 Z M77.157,19.751 L79.389,33.677 L75.234,31.743 L77.157,19.751 L77.157,19.751 Z M71.209,56.855 L72.443,49.155 L80.163,53.6 L71.209,56.855 L71.209,56.855 Z M74.333,44.567 L80.663,41.622 L81.827,48.882 L74.333,44.567 L74.333,44.567 Z" id="Fill-1" sketch:type="MSShapeGroup"></path>
                <path d="M0.5,49.17 C0.5,47.82 1.48,46.22 2.68,45.6 L5.45,44.18 C6.65,43.56 7.63,44.15 7.63,45.5 L7.63,56.68 C7.63,57.13 7.78,57.38 8.29,57.38 L10.97,57.38 C11.47,57.38 11.62,57.08 11.62,56.63 L11.62,34.51 L6.14,34.51 C4.78,34.51 3.89,33.43 4.14,32.1 L4.5,30.2 C4.75,28.87 6.05,27.79 7.4,27.79 L16.55,27.79 C17.91,27.79 19,28.89 19,30.24 L19,58.67 C19,61.5 17.24,63.84 14.05,63.84 L5.35,63.84 C2.47,63.84 0.5,62.05 0.5,59.22 L0.5,49.17" id="Fill-2" sketch:type="MSShapeGroup"></path>
                <path d="M29.52,53.65 L32.91,53.65 L31.24,40.87 L29.52,53.65 L29.52,53.65 Z M28.71,59.37 L28.41,61.42 C28.21,62.76 26.95,63.84 25.6,63.84 L23.12,63.84 C21.77,63.84 20.87,62.76 21.11,61.44 L26.85,30.2 C27.1,28.87 28.39,27.79 29.75,27.79 L32.68,27.79 C34.03,27.79 35.33,28.87 35.57,30.2 L41.31,61.44 C41.56,62.76 40.66,63.84 39.3,63.84 L36.82,63.84 C35.47,63.84 34.21,62.76 34.02,61.42 L33.71,59.37 L28.71,59.37 L28.71,59.37 Z" id="Fill-3" sketch:type="MSShapeGroup"></path>
                <path d="M52.78,30.21 C52.97,28.88 54.23,27.79 55.58,27.79 L58.11,27.79 C59.46,27.79 60.36,28.87 60.11,30.2 L54.24,61.44 C53.99,62.76 52.69,63.84 51.33,63.84 L48.6,63.84 C47.25,63.84 45.95,62.76 45.7,61.44 L39.83,30.2 C39.58,28.87 40.47,27.79 41.83,27.79 L44.36,27.79 C45.71,27.79 46.96,28.88 47.15,30.21 L47.47,32.42 L49.94,51.06 L52.47,32.32 L52.78,30.21" id="Fill-4" sketch:type="MSShapeGroup"></path>
                <path d="M99.8,63.84 C98.43,63.84 97.11,62.75 96.85,61.41 L96.5,59.56 C96.24,58.22 97.14,57.13 98.51,57.13 L103.78,57.13 C104.43,57.13 104.63,56.93 104.63,56.38 L104.63,49.82 C104.63,48.83 104.28,48.78 103.29,48.78 L99.56,48.78 C97.42,48.78 95.53,48.28 95.53,44.7 L95.53,32.47 C95.53,29.63 97.02,27.79 100.4,27.79 L107.87,27.79 C109.24,27.79 110.55,28.88 110.79,30.23 L111.14,32.07 C111.38,33.42 110.48,34.51 109.11,34.51 L103.44,34.51 C102.84,34.51 102.54,34.75 102.54,35.3 L102.54,41.86 C102.54,42.61 102.89,42.81 103.63,42.81 L108.16,42.81 C110.44,42.81 111.74,43.8 111.74,46.49 L111.74,58.37 C111.74,62.35 110.34,63.84 106.22,63.84 L99.8,63.84" id="Fill-5" sketch:type="MSShapeGroup"></path>
                <path d="M120.33,63.84 C116.21,63.84 114.71,62.25 114.71,58.27 L114.71,32.22 C114.71,29.38 116.55,27.79 118.94,27.79 L125.96,27.79 C127.32,27.79 128.63,28.88 128.88,30.23 L129.22,32.07 C129.47,33.42 128.57,34.51 127.2,34.51 L122.77,34.51 C122.27,34.51 122.12,34.75 122.12,35.2 L122.12,56.43 C122.12,56.88 122.27,57.13 122.77,57.13 L127.2,57.13 C128.57,57.13 129.46,58.22 129.21,59.56 L128.85,61.41 C128.59,62.75 127.27,63.84 125.91,63.84 L120.33,63.84" id="Fill-6" sketch:type="MSShapeGroup"></path>
                <path d="M138.75,34.11 L138.75,46.54 L142.27,46.54 C142.82,46.54 142.97,46.34 142.97,45.79 L142.97,34.85 C142.97,34.41 142.77,34.11 142.27,34.11 L138.75,34.11 L138.75,34.11 Z M150.08,49.17 C150.08,50.76 148.93,52.35 146.85,52.35 L149.85,61.49 C150.28,62.79 149.52,63.84 148.15,63.84 L145.64,63.84 C144.28,63.84 142.85,62.78 142.45,61.47 L139.69,52.35 L138.75,52.35 L138.75,61.36 C138.75,62.73 137.64,63.84 136.27,63.84 L134.01,63.84 C132.65,63.84 131.54,62.73 131.54,61.36 L131.54,30.27 C131.54,28.9 132.65,27.79 134.01,27.79 L145.21,27.79 C148.59,27.79 150.08,29.63 150.08,32.47 L150.08,49.17 L150.08,49.17 Z" id="Fill-7" sketch:type="MSShapeGroup"></path>
                <path d="M153.78,30.27 C153.78,28.9 154.88,27.79 156.25,27.79 L158.51,27.79 C159.87,27.79 160.98,28.9 160.98,30.27 L160.98,61.36 C160.98,62.73 159.87,63.84 158.51,63.84 L156.25,63.84 C154.88,63.84 153.78,62.73 153.78,61.36 L153.78,30.27" id="Fill-8" sketch:type="MSShapeGroup"></path>
                <path d="M171.74,34.11 L171.74,48.28 L175.32,48.28 C175.91,48.28 176.01,48.08 176.01,47.53 L176.01,34.8 C176.01,34.36 175.86,34.11 175.37,34.11 L171.74,34.11 L171.74,34.11 Z M178.75,27.79 C181.58,27.79 183.02,29.53 183.02,32.17 L183.02,49.42 C183.02,52.16 181.93,54.24 177.9,54.24 L171.74,54.24 L171.74,61.36 C171.74,62.73 170.63,63.84 169.26,63.84 L167.06,63.84 C165.69,63.84 164.58,62.73 164.58,61.36 L164.58,30.27 C164.58,28.9 165.69,27.79 167.06,27.79 L178.75,27.79 L178.75,27.79 Z" id="Fill-9" sketch:type="MSShapeGroup"></path>
                <path d="M200.21,27.79 L202,34.51 L197.18,34.51 L197.18,63.84 L189.83,63.84 L189.83,34.51 L185.01,34.51 L186.89,27.79 L200.21,27.79" id="Fill-10" sketch:type="MSShapeGroup"></path>
                <path d="M204.39,56.01 C206.52,56.01 208.26,57.75 208.26,59.89 C208.26,62.03 206.52,63.72 204.39,63.72 C202.25,63.72 200.51,62.03 200.51,59.89 C200.51,57.75 202.25,56.01 204.39,56.01" id="Fill-11" sketch:type="MSShapeGroup"></path>
                <path d="M218.45,34.11 L218.45,46.54 L221.98,46.54 C222.53,46.54 222.68,46.34 222.68,45.79 L222.68,34.85 C222.68,34.41 222.48,34.11 221.98,34.11 L218.45,34.11 L218.45,34.11 Z M229.78,49.17 C229.78,50.76 228.64,52.35 226.55,52.35 L229.56,61.49 C229.98,62.79 229.22,63.84 227.85,63.84 L225.35,63.84 C223.98,63.84 222.55,62.78 222.16,61.47 L219.4,52.35 L218.45,52.35 L218.45,61.36 C218.45,62.73 217.34,63.84 215.98,63.84 L213.72,63.84 C212.35,63.84 211.24,62.73 211.24,61.36 L211.24,30.27 C211.24,28.9 212.35,27.79 213.72,27.79 L224.91,27.79 C228.29,27.79 229.78,29.63 229.78,32.47 L229.78,49.17 L229.78,49.17 Z" id="Fill-12" sketch:type="MSShapeGroup"></path>
                <path d="M238.48,63.84 C234.35,63.84 232.86,62.25 232.86,58.27 L232.86,30.27 C232.86,28.9 233.97,27.79 235.34,27.79 L237.74,27.79 C239.11,27.79 240.22,28.9 240.22,30.27 L240.22,56.73 C240.22,57.28 240.32,57.53 240.91,57.53 L243.45,57.53 C244.04,57.53 244.14,57.28 244.14,56.73 L244.14,30.27 C244.14,28.9 245.25,27.79 246.62,27.79 L249.02,27.79 C250.39,27.79 251.5,28.9 251.5,30.27 L251.5,58.27 C251.5,62.25 250.01,63.84 245.88,63.84 L238.48,63.84" id="Fill-13" sketch:type="MSShapeGroup"></path>
                <path d="M96.503,7.81 L97.263,8.76 L87.783,12.29 L87.643,12.06 L91.503,8.98 L89.983,8.71 L94.103,5.94 L93.523,4.78 L105.293,-0.06 L105.433,0.17 L100.263,4.33 L101.473,4.61 L96.503,7.81" id="Fill-14" sketch:type="MSShapeGroup"></path>
                <path d="M93.873,18.29 L92.903,17.28 L98.523,16.4 L97.913,15.03 L109.693,16.4 L109.723,16.68 L104.603,17.51 L104.943,18.59 L98.373,18.8 L99.073,20.15 L90.193,19.53 L90.123,19.28 L93.873,18.29" id="Fill-15" sketch:type="MSShapeGroup"></path>
                <path d="M56.803,7.81 L56.053,8.76 L65.533,12.29 L65.673,12.06 L61.813,8.98 L63.333,8.71 L59.213,5.94 L59.783,4.78 L48.023,-0.06 L47.883,0.17 L53.053,4.33 L51.843,4.61 L56.803,7.81" id="Fill-16" sketch:type="MSShapeGroup"></path>
                <path d="M59.443,18.29 L60.403,17.28 L54.793,16.4 L55.403,15.03 L43.623,16.4 L43.593,16.68 L48.703,17.51 L48.373,18.59 L54.943,18.8 L54.243,20.15 L63.123,19.53 L63.193,19.28 L59.443,18.29" id="Fill-17" sketch:type="MSShapeGroup"></path>
            </g>
        </g>
    </g>
</svg>