<svg width="252" height="72" viewBox="0 0 252 72" xmlns="http://www.w3.org/2000/svg"><title>Group</title><desc>Created with Sketch.</desc><g fill="none" fill-rule="evenodd"><path d="M93.147 69.8l-10.09-50.33c-.23-1.19-1.41-2.15-2.62-2.15h-.566c.356-.552.568-1.205.568-1.91 0-1.96-1.59-3.55-3.55-3.55-1.97 0-3.56 1.59-3.56 3.55 0 .705.21 1.358.566 1.91h-.016c-1.21 0-2.38.96-2.62 2.15L61.168 69.8c-.23 1.18.55 2.14 1.76 2.14h3.83c1.21 0 2.35-.97 2.54-2.16l.724-4.525 13.484-4.897 1.51 9.422c.19 1.19 1.33 2.16 2.54 2.16h3.83c1.21 0 2-.96 1.76-2.14zM80.124 39.258l-6.413 2.985 1.166-7.26 4.932 2.296.317 1.977zM77.157 20.75l2.232 13.927-4.157-1.934 1.923-11.992zM71.21 57.856l1.233-7.7 7.72 4.445-8.954 3.256zm3.123-12.288l6.33-2.945 1.164 7.26-7.494-4.315z" fill="#C13335"/><path d="M.5 50.17c0-1.35.98-2.95 2.18-3.57l2.77-1.42c1.2-.62 2.18-.03 2.18 1.32v11.18c0 .45.15.7.66.7h2.68c.5 0 .65-.3.65-.75V35.51H6.14c-1.36 0-2.25-1.08-2-2.41l.36-1.9c.25-1.33 1.55-2.41 2.9-2.41h9.15c1.36 0 2.45 1.1 2.45 2.45v28.43c0 2.83-1.76 5.17-4.95 5.17h-8.7C2.47 64.84.5 63.05.5 60.22V50.17" fill="#333"/><path d="M29.52 54.65h3.39l-1.67-12.78-1.72 12.78zm-.81 5.72l-.3 2.05c-.2 1.34-1.46 2.42-2.81 2.42h-2.48c-1.35 0-2.25-1.08-2.01-2.4l5.74-31.24c.25-1.33 1.54-2.41 2.9-2.41h2.93c1.35 0 2.65 1.08 2.89 2.41l5.74 31.24c.25 1.32-.65 2.4-2.01 2.4h-2.48c-1.35 0-2.61-1.08-2.8-2.42l-.31-2.05h-5zM52.78 31.21c.19-1.33 1.45-2.42 2.8-2.42h2.53c1.35 0 2.25 1.08 2 2.41l-5.87 31.24c-.25 1.32-1.55 2.4-2.91 2.4H48.6c-1.35 0-2.65-1.08-2.9-2.4L39.83 31.2c-.25-1.33.64-2.41 2-2.41h2.53c1.35 0 2.6 1.09 2.79 2.42l.32 2.21 2.47 18.64 2.53-18.74.31-2.11M99.8 64.84c-1.37 0-2.69-1.09-2.95-2.43l-.35-1.85c-.26-1.34.64-2.43 2.01-2.43h5.27c.65 0 .85-.2.85-.75v-6.56c0-.99-.35-1.04-1.34-1.04h-3.73c-2.14 0-4.03-.5-4.03-4.08V33.47c0-2.84 1.49-4.68 4.87-4.68h7.47c1.37 0 2.68 1.09 2.92 2.44l.35 1.84c.24 1.35-.66 2.44-2.03 2.44h-5.67c-.6 0-.9.24-.9.79v6.56c0 .75.35.95 1.09.95h4.53c2.28 0 3.58.99 3.58 3.68v11.88c0 3.98-1.4 5.47-5.52 5.47H99.8M120.33 64.84c-4.12 0-5.62-1.59-5.62-5.57V33.22c0-2.84 1.84-4.43 4.23-4.43h7.02c1.36 0 2.67 1.09 2.92 2.44l.34 1.84c.25 1.35-.65 2.44-2.02 2.44h-4.43c-.5 0-.65.24-.65.69v21.23c0 .45.15.7.65.7h4.43c1.37 0 2.26 1.09 2.01 2.43l-.36 1.85c-.26 1.34-1.58 2.43-2.94 2.43h-5.58" fill="#333"/><path d="M138.75 35.11v12.43h3.52c.55 0 .7-.2.7-.75V35.85c0-.44-.2-.74-.7-.74h-3.52zm11.33 15.06c0 1.59-1.15 3.18-3.23 3.18l3 9.14c.43 1.3-.33 2.35-1.7 2.35h-2.51c-1.36 0-2.79-1.06-3.19-2.37l-2.76-9.12h-.94v9.01c0 1.37-1.11 2.48-2.48 2.48h-2.26c-1.36 0-2.47-1.11-2.47-2.48V31.27c0-1.37 1.11-2.48 2.47-2.48h11.2c3.38 0 4.87 1.84 4.87 4.68v16.7zM153.78 31.27c0-1.37 1.1-2.48 2.47-2.48h2.26c1.36 0 2.47 1.11 2.47 2.48v31.09c0 1.37-1.11 2.48-2.47 2.48h-2.26c-1.37 0-2.47-1.11-2.47-2.48V31.27" fill="#333"/><path d="M171.74 35.11v14.17h3.58c.59 0 .69-.2.69-.75V35.8c0-.44-.15-.69-.64-.69h-3.63zm7.01-6.32c2.83 0 4.27 1.74 4.27 4.38v17.25c0 2.74-1.09 4.82-5.12 4.82h-6.16v7.12c0 1.37-1.11 2.48-2.48 2.48h-2.2c-1.37 0-2.48-1.11-2.48-2.48V31.27c0-1.37 1.11-2.48 2.48-2.48h11.69zM200.21 28.79l1.79 6.72h-4.82v29.33h-7.35V35.51h-4.82l1.88-6.72h13.32M204.39 57.01c2.13 0 3.87 1.74 3.87 3.88 0 2.14-1.74 3.83-3.87 3.83-2.14 0-3.88-1.69-3.88-3.83s1.74-3.88 3.88-3.88" fill="#333"/><path d="M218.45 35.11v12.43h3.53c.55 0 .7-.2.7-.75V35.85c0-.44-.2-.74-.7-.74h-3.53zm11.33 15.06c0 1.59-1.14 3.18-3.23 3.18l3.01 9.14c.42 1.3-.34 2.35-1.71 2.35h-2.5c-1.37 0-2.8-1.06-3.19-2.37l-2.76-9.12h-.95v9.01c0 1.37-1.11 2.48-2.47 2.48h-2.26c-1.37 0-2.48-1.11-2.48-2.48V31.27c0-1.37 1.11-2.48 2.48-2.48h11.19c3.38 0 4.87 1.84 4.87 4.68v16.7zM238.48 64.84c-4.13 0-5.62-1.59-5.62-5.57v-28c0-1.37 1.11-2.48 2.48-2.48h2.4c1.37 0 2.48 1.11 2.48 2.48v26.46c0 .55.1.8.69.8h2.54c.59 0 .69-.25.69-.8V31.27c0-1.37 1.11-2.48 2.48-2.48h2.4c1.37 0 2.48 1.11 2.48 2.48v28c0 3.98-1.49 5.57-5.62 5.57h-7.4" fill="#333"/><path d="M96.503 8.81l.76.95-9.48 3.53-.14-.23 3.86-3.08-1.52-.27 4.12-2.77-.58-1.16 11.77-4.84.14.23-5.17 4.16 1.21.28-4.97 3.2M93.873 19.29l-.97-1.01 5.62-.88-.61-1.37 11.78 1.37.03.28-5.12.83.34 1.08-6.57.21.7 1.35-8.88-.62-.07-.25 3.75-.99M56.803 8.81l-.75.95 9.48 3.53.14-.23-3.86-3.08 1.52-.27-4.12-2.77.57-1.16L48.023.94l-.14.23 5.17 4.16-1.21.28 4.96 3.2M59.443 19.29l.96-1.01-5.61-.88.61-1.37-11.78 1.37-.03.28 5.11.83-.33 1.08 6.57.21-.7 1.35 8.88-.62.07-.25-3.75-.99" fill="#C13335"/></g></svg>