<svg width="60" height="60" viewBox="0 0 60 60" xmlns="http://www.w3.org/2000/svg" xmlns:xlink="http://www.w3.org/1999/xlink"><style>a { cursor: pointer; }</style><a xlink:href="/" target="_top"><g fill="none" fill-rule="evenodd"><path d="M8.215 14.084l-.45.37 3.85 2.758.09-.094-1.372-1.908.716.043-1.53-1.79.395-.49L5.192 9.33l-.09.094 1.836 2.573-.578-.003 1.855 2.09" id="flash2" fill="#C13335"><animate attributeName="opacity" from="1" to="0" dur="1s" begin="overlay.mouseover" end="overlay.mouseout" repeatCount="indefinite"/><animateMotion from="0,0" to="-10,-10" dur="1s" begin="overlay.mouseover" end="overlay.mouseout" repeatCount="indefinite"/></path><path d="M8.013 20.033l.538-.394-2.456-.97.416-.6-5.487-.485-.042.132 2.236.896-.26.49 2.962.738-.455.584 4.094.564.058-.114-1.602-.84" id="flash1" fill="#C13335"><animate attributeName="opacity" from="1" to="0" dur="1s" begin="overlay.mouseover" end="overlay.mouseout" repeatCount="indefinite"/><animateMotion from="0,0" to="-10,-6" dur="1s" begin="overlay.mouseover" end="overlay.mouseout" repeatCount="indefinite"/></path><path d="M20.646 14.084l.45.37-3.852 2.758-.09-.094 1.374-1.908-.716.043 1.527-1.79-.395-.49L23.67 9.33l.09.094-1.837 2.573.578-.003-1.854 2.09" id="flash3" fill="#C13335"><animate attributeName="opacity" from="1" to="0" dur="1s" begin="overlay.mouseover" end="overlay.mouseout" repeatCount="indefinite"/><animateMotion from="0,0" to="10,-10" dur="1s" begin="overlay.mouseover" end="overlay.mouseout" repeatCount="indefinite"/></path><path d="M20.85 20.033l-.54-.394 2.458-.97-.416-.6 5.487-.485.04.132-2.234.896.26.49-2.962.738.455.584-4.096.564-.057-.114 1.602-.84" id="flash4" fill="#C13335"><animate attributeName="opacity" from="1" to="0" dur="1s" begin="overlay.mouseover" end="overlay.mouseout" repeatCount="indefinite"/><animateMotion from="0,0" to="10,-6" dur="1s" begin="overlay.mouseover" end="overlay.mouseout" repeatCount="indefinite"/></path><path d="M24.463 35.037c1.177 1.66 2.93 2.24 4.417 2.24 3.716 0 5.016-2.2 5.016-4.855V23.5h-8.298v2.552h5.264v6.12c0 1.87-.702 2.47-2.085 2.47-.887 0-1.775-.518-2.56-1.493l-1.754 1.886zm11.295.177c1.42 1.263 3.243 1.916 5.027 1.916 3.283 0 5.128-1.916 5.128-4.117 0-1.875-1.095-2.956-2.838-3.608l-1.6-.693c-1.278-.47-2.17-.754-2.17-1.57 0-.753.67-1.202 1.824-1.202 1.133 0 1.964.388 2.876 1.06l1.52-1.895c-1.195-1.142-2.796-1.753-4.398-1.753-2.86 0-4.845 1.753-4.845 3.954 0 1.936 1.338 3.077 2.817 3.628l1.703.733c1.277.49 2.047.755 2.047 1.59 0 .795-.608 1.284-1.986 1.284-1.156 0-2.392-.57-3.385-1.384l-1.723 2.06zm15.707-9.233h1.46c1.58 0 2.412.45 2.412 1.755s-.83 1.977-2.412 1.977h-1.46v-3.73zm7.44 10.906l-2.98-5.32c1.398-.63 2.35-1.875 2.35-3.83 0-3.16-2.31-4.14-5.107-4.14h-4.682v13.29h2.98v-4.79h1.56l2.534 4.79h3.344z" fill="#333"/><path d="M12.572 23.476L7.954 38.183c-.187.598.167 1.083.805 1.083h.91c.315 0 .64-.245.727-.55l1.086-3.783 6.27 1.864.067.02.55 1.9c.09.302.413.55.726.55h1.022c.63 0 .988-.49.8-1.084l-4.583-14.525c.828-.567 1.37-1.522 1.37-2.602 0-1.737-1.4-3.147-3.132-3.147-1.73 0-3.132 1.41-3.132 3.145 0 .973.44 1.843 1.133 2.42zm4.686 11.4l-.793-2.74-3.126 1.574 3.917 1.165zm-5.04-2.507l.546-1.9c.078-.27.152-.533.225-.793l2.287 1.152-3.06 1.54zM13.445 28c.272-1.006.544-1.997.89-3.076h.102c.448 1.463.778 2.763 1.157 4.158l-2.064-1.04-.085-.042zm-.303-6.947c0-.8.642-1.446 1.43-1.446.79 0 1.432.645 1.432 1.445s-.64 1.445-1.43 1.445c-.79 0-1.432-.645-1.432-1.444z" fill="#C13335"/></g><path id="overlay" pointer-events="all" fill="none" d="M0 0h60v60H0z"/></a></svg>