<?xml version="1.0" encoding="UTF-8" standalone="no"?>
<svg width="252px" height="82px" viewBox="0 0 252 82" version="1.1" xmlns="http://www.w3.org/2000/svg" xmlns:xlink="http://www.w3.org/1999/xlink" xmlns:sketch="http://www.bohemiancoding.com/sketch/ns">
    <!-- Generator: Sketch 3.2.2 (9983) - http://www.bohemiancoding.com/sketch -->
    <title>sitetoolbar__logo2</title>
    <desc>Created with Sketch.</desc>
    <defs></defs>
    <g id="Page-1" stroke="none" stroke-width="1" fill="none" fill-rule="evenodd" sketch:type="MSPage">
        <g id="sitetoolbar__logo2" sketch:type="MSArtboardGroup">
            <g id="Navigation" sketch:type="MSLayerGroup" transform="translate(8.000000, 24.000000)">
                <g id="JSR_Lesson" sketch:type="MSShapeGroup">
                    <g id="Group-3">
                        <path d="M71.594747,21.4514361 C71.3094627,20.5644292 70.3052359,19.8453681 69.3555546,19.8453681 L68.2442749,19.8453681 C67.2928875,19.8453681 66.2901851,20.5684879 66.007578,21.4514361 L59.0130349,43.3044574 C58.7291287,44.1914644 59.2648929,44.9105256 60.2297671,44.9105256 L61.6094133,44.9105256 C62.0854541,44.9105256 62.5774228,44.547896 62.7101073,44.0942403 L66.2879659,31.8613367 C67.1447547,28.9530131 67.7289288,26.5038985 68.6636074,23.6338423 L68.8193872,23.6338423 C69.7151209,26.5038985 70.2992951,28.9530131 71.1560838,31.8613367 L74.7704513,44.0942403 C74.9036524,44.5450621 75.3926014,44.9105256 75.8669915,44.9105256 L77.4130032,44.9105256 C78.3666852,44.9105256 78.907223,44.1874058 78.6232441,43.3044574 L71.594747,21.4514361 L71.594747,21.4514361 Z" id="V" fill="#C13335"></path>
                        <ellipse id="Oval-4" stroke="#C13335" stroke-width="2.57191204" fill="#FFFFFF" cx="69.0252708" cy="17.888889" rx="3.45126354" ry="3.40740741"></ellipse>
                        <path d="M66.8682311,29.388889 L71.4555803,31.6534172" id="Line" stroke="#C13335" stroke-width="2.57191204"></path>
                        <path d="M65.2336897,32.7962964 L72.1362167,36.2037038" id="Line-2" stroke="#C13335" stroke-width="2.57191204" transform="translate(68.684953, 34.500000) scale(-1, 1) translate(-68.684953, -34.500000) "></path>
                        <path d="M64.4619632,37.1975308 L74.2021662,40.0370371" id="Line-3" stroke="#C13335" stroke-width="2.57191204"></path>
                        <path d="M0.700767627,40.1191432 C2.48041831,42.5823292 5.13428336,43.4444445 7.38226318,43.4444445 C13.0022127,43.4444445 14.969195,40.180723 14.969195,36.2396252 L14.969195,23 L2.41797442,23 L2.41797442,26.7871485 L10.3795696,26.7871485 L10.3795696,35.8701472 C10.3795696,38.6412316 9.31802357,39.5341366 7.22615347,39.5341366 C5.88360997,39.5341366 4.54106647,38.7643908 3.35463268,37.3172691 L0.700767627,40.1191432 L0.700767627,40.1191432 Z M24.7416629,34.7617136 L25.209992,32.9143239 C25.740765,30.9129853 26.3027599,28.5729585 26.802311,26.4484605 L26.9271988,26.4484605 C27.4579718,28.5421687 28.0199667,30.9129853 28.5507397,32.9143239 L29.0190688,34.7617136 L24.7416629,34.7617136 L24.7416629,34.7617136 Z M31.1733828,43.0749665 L36.0440058,43.0749665 L29.7059515,23 L24.2108898,23 L17.8728357,43.0749665 L22.5561269,43.0749665 L23.8050046,38.3025436 L29.9557271,38.3025436 L31.1733828,43.0749665 L31.1733828,43.0749665 Z M42.9440549,43.0749665 L48.4703386,43.0749665 L54.5898392,23 L49.906548,23 L47.5024585,32.3601072 C46.9092416,34.5461847 46.4721343,36.5783132 45.8476955,38.7951807 L45.7228077,38.7951807 C45.1295908,36.5783132 44.7237056,34.5461847 44.0992668,32.3601072 L41.6639553,23 L36.7933324,23 L42.9440549,43.0749665 L42.9440549,43.0749665 Z" id="JAV-3" fill="#333333"></path>
                        <g id="Fill-19-+-Fill-20" transform="translate(47.454873, 0.000000)" fill="#C13335">
                            <path d="M11.9519872,7.5440334 L11.2710008,8.09195948 L17.0971759,12.1860511 L17.2337212,12.0464192 L15.1555199,9.21439288 L16.2393274,9.27792666 L13.9285116,6.62213639 L14.5244686,5.89507373 L7.37958851,0.48936728 L7.24304307,0.628999127 L10.0203264,4.44677424 L9.14591104,4.44234404 L11.9519872,7.5440334" id="Fill-19"></path>
                            <path d="M11.6464943,16.3711963 L12.4611547,15.7875104 L8.74389617,14.3494298 L9.37358021,13.4578912 L1.07294712,12.7388084 L1.00926783,12.9346715 L4.39084588,14.2649082 L3.998066,14.9894821 L8.47767731,16.0869633 L7.78926308,16.9512254 L13.9829492,17.7883726 L14.0694829,17.6197259 L11.6464943,16.3711963" id="Fill-20"></path>
                        </g>
                        <g id="Fill-19-+-Fill-21" transform="translate(81.088309, 8.903226) scale(-1, 1) translate(-81.088309, -8.903226) translate(72.012359, 0.000000)" fill="#C13335">
                            <path d="M11.9519872,7.5440334 L11.2710008,8.09195948 L17.0971759,12.1860511 L17.2337212,12.0464192 L15.1555199,9.21439288 L16.2393274,9.27792666 L13.9285116,6.62213639 L14.5244686,5.89507373 L7.37958851,0.48936728 L7.24304307,0.628999127 L10.0203264,4.44677424 L9.14591104,4.44234404 L11.9519872,7.5440334" id="Fill-19"></path>
                            <path d="M11.6464943,16.3711963 L12.4611547,15.7875104 L8.74389617,14.3494298 L9.37358021,13.4578912 L1.07294712,12.7388084 L1.00926783,12.9346715 L4.39084588,14.2649082 L3.998066,14.9894821 L8.47767731,16.0869633 L7.78926308,16.9512254 L13.9829492,17.7883726 L14.0694829,17.6197259 L11.6464943,16.3711963" id="Fill-20"></path>
                        </g>
                        <path d="M82.8303248,38.8978742 C84.9764846,40.7729563 87.7358328,41.7407407 90.4338622,41.7407407 C95.400689,41.7407407 98.1906966,38.8978742 98.1906966,35.6316021 C98.1906966,32.849222 96.5350877,31.2463292 93.8983772,30.2785448 L91.4762827,29.2502739 C89.544739,28.554679 88.1957242,28.1312733 88.1957242,26.9215429 C88.1957242,25.8025421 89.2074852,25.1371904 90.9550724,25.1371904 C92.6720003,25.1371904 93.9290366,25.7118125 95.3087107,26.7098401 L97.6081675,23.8972168 C95.7992616,22.2035941 93.377167,21.2962964 90.9550724,21.2962964 C86.6320936,21.2962964 83.62747,23.8972168 83.62747,27.1634889 C83.62747,30.0365988 85.650992,31.7302213 87.88913,32.5467894 L90.4645217,33.6355468 C92.3960654,34.3613851 93.5611235,34.7545474 93.5611235,35.9945212 C93.5611235,37.1740083 92.6413408,37.8998466 90.5564999,37.8998466 C88.8089127,37.8998466 86.9386878,37.0530353 85.436376,35.8433049 L82.8303248,38.8978742 L82.8303248,38.8978742 Z M101.379277,31.6394916 C101.379277,38.2627657 105.671596,41.7407407 110.82238,41.7407407 C113.336452,41.7407407 115.482612,40.7427131 117.138221,38.8373876 L114.654808,36.1457374 C113.673706,37.2042516 112.539307,37.8998466 111.098314,37.8998466 C108.093691,37.8998466 106.00885,35.5408723 106.00885,31.4882752 C106.00885,27.526408 108.093691,25.1371904 110.914358,25.1371904 C112.355351,25.1371904 113.397771,25.7118125 114.348213,26.5586237 L116.831627,23.806487 C115.482612,22.5060268 113.45909,21.2962964 110.914358,21.2962964 C105.579618,21.2962964 101.379277,25.1069472 101.379277,31.6394916 L101.379277,31.6394916 L101.379277,31.6394916 Z M124.741758,25.197677 L126.949237,25.197677 C129.340672,25.197677 130.597708,25.8630287 130.597708,27.7985974 C130.597708,29.7341661 129.340672,30.7321937 126.949237,30.7321937 L124.741758,30.7321937 L124.741758,25.197677 L124.741758,25.197677 Z M135.993767,41.3778216 L131.486832,33.4843305 C133.602332,32.5467894 135.043325,30.7019505 135.043325,27.7985974 C135.043325,23.1108919 131.54815,21.6592154 127.31715,21.6592154 L120.234823,21.6592154 L120.234823,41.3778216 L124.741758,41.3778216 L124.741758,34.2706553 L127.102534,34.2706553 L130.934962,41.3778216 L135.993767,41.3778216 L135.993767,41.3778216 Z M138.753115,41.3778216 L152.611175,41.3778216 L152.611175,37.6276572 L147.950943,37.6276572 L147.950943,25.4093798 L152.611175,25.4093798 L152.611175,21.6592154 L138.753115,21.6592154 L138.753115,25.4093798 L143.413348,25.4093798 L143.413348,37.6276572 L138.753115,37.6276572 L138.753115,41.3778216 L138.753115,41.3778216 Z M157.14877,41.3778216 L161.655705,41.3778216 L161.655705,34.6940609 L164.445714,34.6940609 C168.676714,34.6940609 172.263867,32.6375192 172.263867,28.0103003 C172.263867,23.2318649 168.768691,21.6592154 164.445714,21.6592154 L157.14877,21.6592154 L157.14877,41.3778216 L157.14877,41.3778216 Z M161.655705,31.1555994 L161.655705,25.197677 L164.169778,25.197677 C166.561213,25.197677 167.81825,25.9537585 167.81825,28.0103003 C167.81825,30.066842 166.653192,31.1555994 164.169778,31.1555994 L161.655705,31.1555994 L161.655705,31.1555994 Z M180.204657,41.3778216 L184.742252,41.3778216 L184.742252,25.4093798 L190.72084,25.4093798 L190.72084,21.6592154 L174.22607,21.6592154 L174.22607,25.4093798 L180.204657,25.4093798 L180.204657,41.3778216 L180.204657,41.3778216 Z M193.774991,38.2022791 C193.774991,40.1983344 195.215984,41.7407407 197.331483,41.7407407 C199.446984,41.7407407 200.887977,40.1983344 200.887977,38.2022791 C200.887977,36.206224 199.446984,34.6335744 197.331483,34.6335744 C195.215984,34.6335744 193.774991,36.206224 193.774991,38.2022791 L193.774991,38.2022791 L193.774991,38.2022791 Z M210.823989,25.197677 L213.031467,25.197677 C215.422903,25.197677 216.679938,25.8630287 216.679938,27.7985974 C216.679938,29.7341661 215.422903,30.7321937 213.031467,30.7321937 L210.823989,30.7321937 L210.823989,25.197677 L210.823989,25.197677 Z M222.075997,41.3778216 L217.569062,33.4843305 C219.684563,32.5467894 221.125556,30.7019505 221.125556,27.7985974 C221.125556,23.1108919 217.630381,21.6592154 213.39938,21.6592154 L206.317054,21.6592154 L206.317054,41.3778216 L210.823989,41.3778216 L210.823989,34.2706553 L213.184764,34.2706553 L217.017193,41.3778216 L222.075997,41.3778216 L222.075997,41.3778216 Z M224.528751,33.786763 C224.528751,38.8978742 226.950847,41.7407407 231.825695,41.7407407 C236.669883,41.7407407 239,38.8978742 239,33.786763 L239,21.6592154 L234.646362,21.6592154 L234.646362,34.2404121 C234.646362,36.5993864 233.726578,37.8998466 231.825695,37.8998466 C229.92481,37.8998466 229.035688,36.5993864 229.035688,34.2404121 L229.035688,21.6592154 L224.528751,21.6592154 L224.528751,33.786763 L224.528751,33.786763 Z" id="SCRIPT.RU" fill="#333333"></path>
                    </g>
                </g>
            </g>
        </g>
    </g>
</svg>