<svg width="59" height="60" xmlns="http://www.w3.org/2000/svg"><title>Slice 1</title><desc>Created with Sketch.</desc><title>Layer 1</title><title>Layer 1</title><g fill-rule="evenodd" fill="none"><g><path fill="#C13335" d="M14.87 22.75h-.733c-.63 0-1.313.11-1.5.706L8.013 38.183c-.188.598.166 1.083.804 1.083h.912c.313 0 .64-.245.726-.55l2.365-8.244c.568-1.96.954-3.61 1.57-5.545h.105c.592 1.934.978 3.585 1.544 5.545l2.39 8.244c.087.304.41.55.724.55h1.022c.63 0 .988-.488.8-1.083L16.33 23.456c-.188-.597-.83-.705-1.46-.705z"/><ellipse ry="2.296" rx="2.282" cy="21.056" cx="14.632" stroke-width="1.701" stroke="#C13335"/><path stroke-linecap="square" stroke-width="1.701" stroke="#C13335" d="M13.206 28.806l3.032 1.526"/><path stroke-linecap="square" stroke-width="1.701" stroke="#C13335" d="M16.688 31.102l-4.563 2.296"/><path stroke-linecap="square" stroke-width="1.701" stroke="#C13335" d="M11.615 34.068l6.44 1.913"/><path fill="#333" d="M24.463 35.037c1.177 1.66 2.93 2.24 4.417 2.24 3.716 0 5.016-2.2 5.016-4.855V23.5h-8.298v2.552h5.264v6.12c0 1.87-.702 2.47-2.085 2.47-.887 0-1.775-.518-2.56-1.493l-1.754 1.886z"/><g fill="#C13335"><path d="M8.273 14.084l-.45.37 3.852 2.758.09-.094-1.375-1.908.717.043-1.527-1.79.394-.49L5.25 9.33l-.09.094 1.836 2.573-.578-.003 1.855 2.09"/><path d="M8.07 20.033l.54-.394-2.458-.97.417-.6-5.49-.486-.04.132 2.234.896-.26.49 2.96.738-.454.584 4.096.564.057-.114-1.602-.84"/></g><g fill="#C13335"><path d="M20.706 14.084l.45.37-3.852 2.758-.09-.094 1.374-1.908-.717.043 1.53-1.79-.394-.49 4.722-3.643.09.094-1.835 2.573.578-.003-1.853 2.09"/><path d="M20.908 20.033l-.54-.394 2.46-.97-.418-.6 5.488-.486.042.132-2.236.896.26.49-2.96.738.454.584-4.095.564-.057-.114 1.602-.84"/></g><path fill="#333" d="M35.758 35.214c1.42 1.263 3.243 1.916 5.027 1.916 3.283 0 5.128-1.916 5.128-4.117 0-1.875-1.095-2.956-2.838-3.608l-1.6-.693c-1.278-.47-2.17-.754-2.17-1.57 0-.753.67-1.202 1.824-1.202 1.133 0 1.964.388 2.876 1.06l1.52-1.895c-1.195-1.142-2.796-1.753-4.398-1.753-2.86 0-4.845 1.753-4.845 3.954 0 1.936 1.338 3.077 2.817 3.628l1.703.733c1.277.49 2.047.755 2.047 1.59 0 .795-.608 1.284-1.986 1.284-1.156 0-2.392-.57-3.385-1.384l-1.723 2.06v-.002zm15.706-9.23h1.46c1.58 0 2.412.45 2.412 1.753s-.83 1.977-2.412 1.977h-1.46v-3.73zm7.44 10.904l-2.98-5.32c1.398-.63 2.35-1.875 2.35-3.83 0-3.16-2.31-4.14-5.107-4.14h-4.682v13.29h2.98v-4.79h1.56l2.534 4.79h3.343z"/></g></g></svg>