<?xml version="1.0" encoding="UTF-8" standalone="no"?>
<svg width="160px" height="60px" viewBox="0 0 160 60" version="1.1" xmlns="http://www.w3.org/2000/svg" xmlns:xlink="http://www.w3.org/1999/xlink" xmlns:sketch="http://www.bohemiancoding.com/sketch/ns">
    <!-- Logo with animation
    * We use SMIL, not CSS translate, because SMIL looks smoother.

    * SMIL works on mouseover/mouseout. We need the animation to start onmouseout the whole picture and end when mouseover.

    * I can't use the root document element.mouseover, because mouseover/out bubbles up, so that moving the pointer
      around the document subelements causes the animation to restart.
      To fix that I added an <rect id="overlay"> below, which is invisible, but covers the whole element and gets all pointer events
      Then I use it for animation.

    * For SMIL to work, the SVG is not <img>, but <embed> (can also be object/iframe)

    * For <a><embed></a>, the embed is not clickable, so we move the <a> here, into the SVG
    -->
    <title>JavaScript.ru</title>
    <style>
        a {
            cursor: pointer;
        }
    </style>
    <defs></defs>
    <g id="Other" stroke="none" stroke-width="1" fill="none" fill-rule="evenodd" sketch:type="MSPage">
        <g id="Logo-New-Header" sketch:type="MSArtboardGroup">
            <g id="Group-3" sketch:type="MSLayerGroup" transform="translate(1.000000, 9.000000)">
                <path d="M45.871155,13.7514648 L45.1365015,13.7514648 C44.5075508,13.7514648 43.823637,13.8613723 43.6368089,14.4564026 L39.0128013,29.1834387 C38.8251144,29.7812043 39.1793016,30.265789 39.8171682,30.265789 L40.7292356,30.265789 C41.0439404,30.265789 41.3691749,30.0214082 41.456891,29.7156837 L43.8221699,21.4717704 C44.3885826,19.5118132 44.774773,17.8613229 45.3926777,15.9271546 L45.4956618,15.9271546 C46.0878205,17.8613229 46.474011,19.5118132 47.0404236,21.4717704 L49.4298381,29.7156837 C49.5178957,30.0194984 49.841134,30.265789 50.1547475,30.265789 L51.1767971,30.265789 C51.8072647,30.265789 52.1646077,29.7784691 51.9768727,29.1834387 L47.3304185,14.4564026 C47.1418205,13.8586371 46.4989778,13.7514648 45.871155,13.7514648 Z" id="V" fill="#C13335" sketch:type="MSShapeGroup"></path>
                <ellipse id="Oval-4" stroke="#C13335" stroke-width="1.70099997" sketch:type="MSShapeGroup" cx="45.631769" cy="12.0555556" rx="2.28158845" ry="2.2962963"></ellipse>
                <path d="M44.2057762,19.8055556 L47.2384171,21.3316507" id="Line" stroke="#C13335" stroke-width="1.70099997" stroke-linecap="square" sketch:type="MSShapeGroup"></path>
                <path d="M43.1252004,22.1018519 L47.6883773,24.3981482" id="Line-2" stroke="#C13335" stroke-width="1.70099997" stroke-linecap="square" sketch:type="MSShapeGroup" transform="translate(45.406789, 23.250000) scale(-1, 1) translate(-45.406789, -23.250000) "></path>
                <path d="M42.6150217,25.0679012 L49.0541517,26.9814815" id="Line-3" stroke="#C13335" stroke-width="1.70099997" stroke-linecap="square" sketch:type="MSShapeGroup"></path>
                <path d="M0.463268975,27.0368139 C1.63977445,28.6967871 3.39421243,29.2777778 4.88032461,29.2777778 C8.59560505,29.2777778 9.89595321,27.0783133 9.89595321,24.4223561 L9.89595321,15.5 L1.59849355,15.5 L1.59849355,18.0522088 L6.86180751,18.0522088 L6.86180751,24.1733601 C6.86180751,26.04083 6.16003232,26.6425703 4.77712238,26.6425703 C3.88958316,26.6425703 3.00204394,26.1238286 2.21770696,25.1485944 L0.463268975,27.0368139 Z M16.3564131,23.4263722 L16.6660198,22.1813922 C17.0169074,20.832664 17.3884354,19.2556894 17.7186826,17.8239625 L17.8012444,17.8239625 C18.152132,19.2349398 18.52366,20.832664 18.8745476,22.1813922 L19.1841543,23.4263722 L16.3564131,23.4263722 Z M20.6083451,29.0287818 L23.8282549,29.0287818 L19.6382441,15.5 L16.0055255,15.5 L11.8155148,29.0287818 L14.9115818,29.0287818 L15.7371997,25.8125837 L19.8033677,25.8125837 L20.6083451,29.0287818 Z M28.3897936,29.0287818 L32.0431527,29.0287818 L36.0886803,15.5 L32.9926133,15.5 L31.4032989,21.8078983 C31.0111304,23.2811245 30.7221641,24.6506024 30.3093552,26.1445783 L30.2267934,26.1445783 C29.8346249,24.6506024 29.5662991,23.2811245 29.1534902,21.8078983 L27.5435353,15.5 L24.3236256,15.5 L28.3897936,29.0287818 Z" id="JAV-3" fill="#333333" sketch:type="MSShapeGroup"></path>
                <g id="Fill-19-+-Fill-20" transform="translate(31.371841, 0.000000)" fill="#C13335" sketch:type="MSShapeGroup">
                    <path d="M7.90131371,5.08402251 L7.45112188,5.45327704 L11.3027355,8.21233878 L11.393004,8.11823905 L10.0191303,6.20969955 L10.7356223,6.25251579 L9.20797001,4.46274409 L9.60194997,3.97276708 L4.87855642,0.329790993 L4.78828789,0.423890716 L6.62431617,2.99673916 L6.04625081,2.99375359 L7.90131371,5.08402251" id="Fill-19"></path>
                    <path d="M7.69935608,11.0327627 L8.2379182,10.6394092 L5.78048366,9.67026794 L6.19676014,9.06944842 L0.709312319,8.58484913 L0.667214716,8.71684385 L2.90273493,9.61330771 L2.64307292,10.1016075 L5.6044896,10.8412144 L5.14938731,11.4236519 L9.24395802,11.9878163 L9.30116442,11.8741631 L7.69935608,11.0327627" id="Fill-20"></path>
                </g>
                <g id="Fill-19-+-Fill-21" transform="translate(53.046931, 6.314815) scale(-1, 1) translate(-53.046931, -6.314815) translate(46.487365, 0.000000)" fill="#C13335" sketch:type="MSShapeGroup">
                    <path d="M7.90131371,5.08402251 L7.45112188,5.45327704 L11.3027355,8.21233878 L11.393004,8.11823905 L10.0191303,6.20969955 L10.7356223,6.25251579 L9.20797001,4.46274409 L9.60194997,3.97276708 L4.87855642,0.329790993 L4.78828789,0.423890716 L6.62431617,2.99673916 L6.04625081,2.99375359 L7.90131371,5.08402251" id="Fill-19"></path>
                    <path d="M7.69935608,11.0327627 L8.2379182,10.6394092 L5.78048366,9.67026794 L6.19676014,9.06944842 L0.709312319,8.58484913 L0.667214716,8.71684385 L2.90273493,9.61330771 L2.64307292,10.1016075 L5.6044896,10.8412144 L5.14938731,11.4236519 L9.24395802,11.9878163 L9.30116442,11.8741631 L7.69935608,11.0327627" id="Fill-20"></path>
                </g>
                <path d="M54.7581227,26.2137848 C56.1769229,27.4774271 58.0010945,28.1296296 59.784729,28.1296296 C63.0682379,28.1296296 64.9126781,26.2137848 64.9126781,24.0126014 C64.9126781,22.1375192 63.8181751,21.0573088 62.0750778,20.4051063 L60.4738605,19.7121411 C59.1969404,19.2433706 58.3051231,18.958032 58.3051231,18.1427789 C58.3051231,17.3886697 58.973986,16.9402805 60.1292947,16.9402805 C61.2643349,16.9402805 62.0953464,17.3275258 63.0074322,18.0001096 L64.5275752,16.1046461 C63.3317294,14.9632917 61.7305121,14.3518519 60.1292947,14.3518519 C57.2714259,14.3518519 55.2851057,16.1046461 55.2851057,18.3058295 C55.2851057,20.2420557 56.6228315,21.38341 58.1024374,21.9337059 L59.8049976,22.6674337 C61.0819177,23.1565856 61.8521235,23.4215428 61.8521235,24.2571773 C61.8521235,25.0520491 61.2440663,25.541201 59.8658033,25.541201 C58.7104946,25.541201 57.4741116,24.9705238 56.4809515,24.1552707 L54.7581227,26.2137848 Z M67.0206098,21.3222661 C67.0206098,25.7857769 69.85821,28.1296296 73.2633304,28.1296296 C74.9253534,28.1296296 76.3441536,27.4570458 77.4386566,26.1730221 L75.7969021,24.3590839 C75.1483078,25.0724304 74.3983705,25.541201 73.4457476,25.541201 C71.4594274,25.541201 70.0811644,23.9514574 70.0811644,21.2203594 C70.0811644,18.5504054 71.4594274,16.9402805 73.3241361,16.9402805 C74.2767591,16.9402805 74.9658906,17.3275258 75.5942164,17.8982029 L77.2359708,16.0435021 C76.3441536,15.167105 75.0064277,14.3518519 73.3241361,14.3518519 C69.7974043,14.3518519 67.0206098,16.9198992 67.0206098,21.3222661 L67.0206098,21.3222661 Z M82.4652628,16.9810432 L83.9246001,16.9810432 C85.5055488,16.9810432 86.3365604,17.4294324 86.3365604,18.7338374 C86.3365604,20.0382424 85.5055488,20.7108262 83.9246001,20.7108262 L82.4652628,20.7108262 L82.4652628,16.9810432 Z M89.9038293,27.8850537 L86.924349,22.5655271 C88.3228806,21.9337059 89.2755035,20.6904449 89.2755035,18.7338374 C89.2755035,15.5747315 86.9648861,14.5964278 84.167823,14.5964278 L79.4857825,14.5964278 L79.4857825,27.8850537 L82.4652628,27.8850537 L82.4652628,23.0954416 L84.025943,23.0954416 L86.5595147,27.8850537 L89.9038293,27.8850537 Z M91.7280009,27.8850537 L100.889396,27.8850537 L100.889396,25.357769 L97.808573,25.357769 L97.808573,17.1237125 L100.889396,17.1237125 L100.889396,14.5964278 L91.7280009,14.5964278 L91.7280009,17.1237125 L94.8088241,17.1237125 L94.8088241,25.357769 L91.7280009,25.357769 L91.7280009,27.8850537 Z M103.889145,27.8850537 L106.868625,27.8850537 L106.868625,23.3807802 L108.713066,23.3807802 C111.510129,23.3807802 113.881552,21.9948499 113.881552,18.8765067 C113.881552,15.6562568 111.570934,14.5964278 108.713066,14.5964278 L103.889145,14.5964278 L103.889145,27.8850537 Z M106.868625,20.9961648 L106.868625,16.9810432 L108.530648,16.9810432 C110.111597,16.9810432 110.942609,17.4905764 110.942609,18.8765067 C110.942609,20.262437 110.172403,20.9961648 108.530648,20.9961648 L106.868625,20.9961648 Z M119.131112,27.8850537 L122.130861,27.8850537 L122.130861,17.1237125 L126.083233,17.1237125 L126.083233,14.5964278 L115.178741,14.5964278 L115.178741,17.1237125 L119.131112,17.1237125 L119.131112,27.8850537 Z M128.102295,25.7450142 C128.102295,27.0901819 129.054918,28.1296296 130.453449,28.1296296 C131.851981,28.1296296 132.804604,27.0901819 132.804604,25.7450142 C132.804604,24.3998466 131.851981,23.3400175 130.453449,23.3400175 C129.054918,23.3400175 128.102295,24.3998466 128.102295,25.7450142 L128.102295,25.7450142 Z M139.373181,16.9810432 L140.832518,16.9810432 C142.413467,16.9810432 143.244478,17.4294324 143.244478,18.7338374 C143.244478,20.0382424 142.413467,20.7108262 140.832518,20.7108262 L139.373181,20.7108262 L139.373181,16.9810432 Z M146.811747,27.8850537 L143.832267,22.5655271 C145.230799,21.9337059 146.183422,20.6904449 146.183422,18.7338374 C146.183422,15.5747315 143.872804,14.5964278 141.075741,14.5964278 L136.393701,14.5964278 L136.393701,27.8850537 L139.373181,27.8850537 L139.373181,23.0954416 L140.933861,23.0954416 L143.467433,27.8850537 L146.811747,27.8850537 Z M148.433233,22.7693403 C148.433233,26.2137848 150.034451,28.1296296 153.257154,28.1296296 C156.459588,28.1296296 158,26.2137848 158,22.7693403 L158,14.5964278 L155.121863,14.5964278 L155.121863,23.0750603 C155.121863,24.6648039 154.513805,25.541201 153.257154,25.541201 C152.000502,25.541201 151.412714,24.6648039 151.412714,23.0750603 L151.412714,14.5964278 L148.433233,14.5964278 L148.433233,22.7693403 Z" id="SCRIPT.RU" fill="#333333" sketch:type="MSShapeGroup"></path>
            </g>
        </g>
    </g>
</svg>
