<svg width="160" height="60" viewBox="0 0 160 60" xmlns="http://www.w3.org/2000/svg" xmlns:xlink="http://www.w3.org/1999/xlink"><title>JavaScript.ru</title><style>a { cursor: pointer; }</style><a xlink:href="/" target="_top"><g fill="none" fill-rule="evenodd"><path d="M40.273 14.084l-.45.37 3.85 2.758.09-.094-1.373-1.91.717.044-1.528-1.79.393-.49L37.25 9.33l-.09.093 1.836 2.573-.578-.003 1.855 2.09" fill="#C13335"><animate attributeName="opacity" from="1" to="0" dur="1s" begin="overlay.mouseover" end="overlay.mouseout" repeatCount="indefinite"/><animateMotion from="0,0" to="-10,-10" dur="1s" begin="overlay.mouseover" end="overlay.mouseout" repeatCount="indefinite"/></path><path d="M40.07 20.032l.54-.393-2.458-.97.416-.6-5.487-.486-.04.132 2.234.897-.26.488 2.962.74-.455.583 4.095.564.058-.113-1.602-.842" fill="#C13335"><animate attributeName="opacity" from="1" to="0" dur="1s" begin="overlay.mouseover" end="overlay.mouseout" repeatCount="indefinite"/><animateMotion from="0,0" to="-10,-6" dur="1s" begin="overlay.mouseover" end="overlay.mouseout" repeatCount="indefinite"/></path><path d="M52.704 14.084l.45.37-3.85 2.758-.092-.094 1.374-1.91-.716.044 1.527-1.79-.394-.49 4.724-3.643.09.093-1.836 2.573.58-.003-1.856 2.09" fill="#C13335"><animate attributeName="opacity" from="1" to="0" dur="1s" begin="overlay.mouseover" end="overlay.mouseout" repeatCount="indefinite"/><animateMotion from="0,0" to="10,-10" dur="1s" begin="overlay.mouseover" end="overlay.mouseout" repeatCount="indefinite"/></path><path d="M52.907 20.032l-.54-.393 2.46-.97-.417-.6 5.487-.486.042.132-2.236.897.26.488-2.962.74.455.583-4.095.564-.057-.113 1.602-.842" fill="#C13335"><animate attributeName="opacity" from="1" to="0" dur="1s" begin="overlay.mouseover" end="overlay.mouseout" repeatCount="indefinite"/><animateMotion from="0,0" to="10,-6" dur="1s" begin="overlay.mouseover" end="overlay.mouseout" repeatCount="indefinite"/></path><path d="M1.463 35.037c1.177 1.66 2.93 2.24 4.417 2.24 3.716 0 5.016-2.2 5.016-4.855V23.5H2.598v2.552h5.264v6.12c0 1.87-.702 2.47-2.085 2.47-.887 0-1.775-.518-2.56-1.493l-1.754 1.886zm15.893-3.61l.31-1.246c.35-1.346.722-2.923 1.053-4.355h.08c.35 1.41.723 3.01 1.074 4.357l.31 1.246h-2.83zm4.252 5.602h3.22l-4.19-13.53h-3.632l-4.19 13.53h3.096l.825-3.218h4.066l.805 3.216zm7.782 0h3.653L37.09 23.5h-3.097l-1.59 6.308c-.392 1.473-.68 2.843-1.094 4.337h-.084c-.392-1.494-.66-2.864-1.074-4.337l-1.61-6.308h-3.22l4.067 13.53zm26.368-1.816c1.42 1.263 3.243 1.916 5.027 1.916 3.283 0 5.128-1.916 5.128-4.117 0-1.875-1.095-2.956-2.838-3.608l-1.6-.693c-1.278-.47-2.17-.754-2.17-1.57 0-.753.67-1.202 1.824-1.202 1.133 0 1.964.388 2.876 1.06l1.52-1.895c-1.195-1.142-2.796-1.753-4.398-1.753-2.86 0-4.845 1.753-4.845 3.954 0 1.936 1.338 3.077 2.817 3.628l1.703.733c1.277.49 2.047.755 2.047 1.59 0 .795-.608 1.284-1.986 1.284-1.156 0-2.392-.57-3.385-1.384l-1.723 2.06zm12.263-4.892c0 4.464 2.84 6.808 6.244 6.808 1.662 0 3.08-.673 4.176-1.957l-1.643-1.814c-.65.71-1.4 1.18-2.35 1.18-1.988 0-3.366-1.59-3.366-4.32 0-2.67 1.38-4.28 3.245-4.28.953 0 1.642.387 2.27.957l1.642-1.854c-.892-.877-2.23-1.692-3.912-1.692-3.527 0-6.303 2.57-6.303 6.97zm15.446-4.34h1.46c1.58 0 2.412.447 2.412 1.752 0 1.304-.83 1.977-2.412 1.977h-1.46v-3.73zm7.44 10.903l-2.98-5.32c1.398-.63 2.35-1.875 2.35-3.83 0-3.16-2.31-4.14-5.107-4.14h-4.683v13.29h2.98v-4.79h1.56l2.534 4.79h3.345zm1.823 0h9.16v-2.527h-3.08v-8.234h3.08v-2.528h-9.16v2.528h3.08v8.234h-3.08v2.527zm12.16 0h2.98V32.38h1.844c2.797 0 5.17-1.385 5.17-4.503 0-3.22-2.312-4.28-5.17-4.28h-4.824v13.288zm2.98-6.89V25.98h1.662c1.582 0 2.413.51 2.413 1.898 0 1.385-.77 2.12-2.412 2.12h-1.66zm12.262 6.89h3v-10.76h3.953v-2.53H116.18v2.53h3.95v10.76zm8.972-2.14c0 1.345.953 2.385 2.35 2.385 1.4 0 2.353-1.04 2.353-2.385 0-1.345-.953-2.405-2.352-2.405-1.398 0-2.35 1.06-2.35 2.405zm11.27-8.764h1.46c1.58 0 2.412.45 2.412 1.755s-.83 1.977-2.41 1.977h-1.46v-3.73zm7.44 10.906l-2.98-5.32c1.4-.63 2.35-1.875 2.35-3.83 0-3.16-2.31-4.14-5.106-4.14h-4.682v13.29h2.98v-4.79h1.56l2.533 4.79h3.344zm1.62-5.116c0 3.444 1.602 5.36 4.825 5.36 3.202 0 4.742-1.916 4.742-5.36v-8.174h-2.878v8.48c0 1.59-.608 2.465-1.865 2.465-1.257 0-1.845-.874-1.845-2.464v-8.48h-2.98v8.174z" fill="#333"/><path d="M44.63 23.476l-4.617 14.707c-.188.598.166 1.083.804 1.083h.912c.313 0 .64-.245.726-.55l1.085-3.783 6.27 1.864.068.02.55 1.9c.088.302.41.55.725.55h1.022c.63 0 .988-.49.8-1.084l-4.583-14.525c.827-.567 1.37-1.522 1.37-2.602 0-1.737-1.4-3.147-3.132-3.147-1.73 0-3.132 1.41-3.132 3.145 0 .973.44 1.843 1.13 2.42zm4.687 11.4l-.794-2.74-3.126 1.574 3.92 1.165zm-5.04-2.507l.545-1.9c.078-.27.153-.533.225-.793l2.29 1.152-3.06 1.54zM45.503 28c.272-1.006.545-1.997.89-3.076h.103c.447 1.463.777 2.763 1.157 4.158l-2.065-1.04-.085-.042zm-.302-6.947c0-.8.644-1.446 1.433-1.446.79 0 1.43.645 1.43 1.445s-.64 1.445-1.43 1.445c-.79 0-1.43-.645-1.43-1.444z" fill="#C13335"/></g><path id="overlay" pointer-events="all" fill="none" d="M0 0h160v60H0z"/></a></svg>
