<?xml version="1.0" encoding="UTF-8" standalone="no"?>
<svg width="85px" height="26px" viewBox="0 0 85 26" version="1.1" xmlns="http://www.w3.org/2000/svg" xmlns:xlink="http://www.w3.org/1999/xlink" xmlns:sketch="http://www.bohemiancoding.com/sketch/ns">
    <!-- Generator: Sketch 3.3 (11970) - http://www.bohemiancoding.com/sketch -->
    <title>Slice 1</title>
    <desc>Created with Sketch.</desc>
    <defs></defs>
    <g id="Page-1" stroke="none" stroke-width="1" fill="none" fill-rule="evenodd" sketch:type="MSPage">
        <g id="1423197485_payment_method_master_card-+-1423197481_payment_method_card_visa-copy" sketch:type="MSLayerGroup">
            <g id="1423197485_payment_method_master_card" transform="translate(45.000000, 0.000000)" sketch:type="MSShapeGroup">
                <g id="Page-1">
                    <g id="Master">
                        <path d="M37,0.254902219 C35,0.254902411 13.8251953,0.254901552 2,0.254902219 C1,0.254902275 0,1.27451006 0,2.2941179 L0,22.6862748 C-1.1575e-07,24.7254905 1,25.7450983 3,25.7450983 C14.1558024,25.7450983 35,25.7450985 37,25.7450983 C39,25.7450983 40,24.7254905 40,22.6862748 L40,3.31372575 C40,1.27451006 39,0.254902219 37,0.254902219 L37,0.254902219 Z" id="Rectangle-1" fill="#265697"></path>
                        <path d="M37.3863087,13.127451 C37.387953,19.0508029 32.7298992,23.8535404 26.9823825,23.8551139 C21.2347483,23.8565664 16.574698,19.0562499 16.5731711,13.1328979 L16.5731711,13.127451 C16.5716443,7.20422007 21.229698,2.40124055 26.9769797,2.39966699 C32.724614,2.39809344 37.384782,7.19865209 37.3863087,13.1220041 L37.3863087,13.127451 C37.3863087,13.127451 37.3863087,13.1255143 37.3863087,13.127451 L37.3863087,13.127451 L37.3863087,13.127451 Z" id="path2268" fill="#DFAC16"></path>
                        <path d="M12.9531376,2.40245098 C7.2396812,2.43985321 2.61357383,7.23036531 2.61357383,13.127451 C2.61357383,19.0475348 7.27573825,23.8523299 13.0202014,23.8523299 C15.7162584,23.8523299 18.1737752,22.7934472 20.0230201,21.0579351 C20.0229027,21.0579351 20.0226678,21.0576931 20.022198,21.057451 L20.0244295,21.057451 C20.4030873,20.7018271 20.7562584,20.3181214 21.0808893,19.9089966 L18.9488255,19.9089966 C18.6641275,19.5545832 18.4053859,19.1852815 18.172953,18.8042387 L21.8500671,18.8042387 C22.0736913,18.4354212 22.2761745,18.0524417 22.4558725,17.6557843 L17.5658557,17.6557843 C17.3991946,17.287572 17.2544967,16.9110078 17.1309396,16.5289966 L22.8912584,16.5289966 C23.2384396,15.4599463 23.4268289,14.3162126 23.4268289,13.1273299 C23.4268289,12.339099 23.3439094,11.5705981 23.1869967,10.8306633 L16.825453,10.8306633 C16.9042618,10.4498625 17.0037416,10.0736614 17.1223658,9.70399659 L22.8847987,9.70399659 C22.7559564,9.31060742 22.6063255,8.92726477 22.436141,8.55566326 L17.5652685,8.55566326 C17.7409732,8.16881038 17.9400503,7.79248822 18.1623826,7.42911765 L21.8367953,7.42911765 C21.5922651,7.02761859 21.3216611,6.64403386 21.029094,6.28066326 L18.9804195,6.28066326 C19.2971812,5.89647332 19.6458893,5.53467631 20.0244295,5.19732993 C18.1750671,3.46157574 15.7168457,2.40245098 13.0202014,2.40245098 C12.9977685,2.40245098 12.9755705,2.40232994 12.9531376,2.40245098 C12.9531376,2.40245098 12.9755705,2.40232994 12.9531376,2.40245098 L12.9531376,2.40245098 L12.9531376,2.40245098 Z" id="path1350" fill="#BF3126"></path>
                        <path d="M16.7623825,15.8580562 L16.9010906,14.8874137 C16.8253356,14.8874137 16.7138758,14.9208216 16.6155705,14.9208216 C16.2298658,14.9208216 16.187349,14.7094808 16.211896,14.5532145 L16.5234899,12.5727117 L17.1096812,12.5727117 L17.251208,11.4990618 L16.6984899,11.4990618 L16.8110067,10.8313895 L15.7029866,10.8313895 C15.678557,10.8565664 15.0489094,14.5865013 15.0489094,15.040654 C15.0489094,15.7130469 15.4152349,16.0125068 15.9317785,16.0076651 C16.3362752,16.0041549 16.6512752,15.8888011 16.7623825,15.8580562 C16.7623825,15.8580562 16.6512752,15.8888011 16.7623825,15.8580562 L16.7623825,15.8580562 L16.7623825,15.8580562 Z" id="path4157" fill="#FFFFFF"></path>
                        <path d="M17.1134396,14.0074323 C17.1134396,15.6211754 18.1469967,16.0046391 19.0275168,16.0046391 C19.8402685,16.0046391 20.1979027,15.8173858 20.1979027,15.8173858 L20.393104,14.7160171 C20.393104,14.7160171 19.774849,14.9967154 19.2164933,14.9967154 C18.0267282,14.9967154 18.2350839,14.0824789 18.2350839,14.0824789 L20.4868289,14.0824789 C20.4868289,14.0824789 20.6322316,13.3425441 20.6322316,13.0410264 C20.6322316,12.2886242 20.2688423,11.3718458 19.0522987,11.3718458 C17.9381712,11.3720878 17.1134396,12.6092666 17.1134396,14.0074323 C17.1134396,14.0074323 17.1134396,12.6092666 17.1134396,14.0074323 L17.1134396,14.0074323 L17.1134396,14.0074323 Z M19.0565269,12.3945366 C19.6818289,12.3945366 19.5664933,13.1187359 19.5664933,13.1773206 L18.3363255,13.1773206 C18.3363255,13.1025162 18.4526007,12.3945366 19.0565269,12.3945366 C19.0565269,12.3945366 18.4526007,12.3945366 19.0565269,12.3945366 L19.0565269,12.3945366 L19.0565269,12.3945366 Z" id="path4155" fill="#FFFFFF"></path>
                        <path d="M26.0729698,15.857572 L26.2712248,14.6126465 C26.2712248,14.6126465 25.7275503,14.8935869 25.3544128,14.8935869 C24.5684396,14.8935869 24.2532047,14.275058 24.2532047,13.6105329 C24.2532047,12.2624789 24.9294798,11.5208495 25.6823323,11.5208495 C26.2469128,11.5208495 26.7000335,11.8475441 26.7000335,11.8475441 L26.880906,10.6379631 C26.880906,10.6379631 26.2089765,10.3577489 25.6330033,10.3577489 C24.3538591,10.3577489 23.1094799,11.5013616 23.1094799,13.6491456 C23.1094799,15.0733355 23.7814094,16.0139594 25.1036578,16.0139594 C25.4775,16.0140804 26.0729698,15.857572 26.0729698,15.857572 L26.0729698,15.857572 L26.0729698,15.857572 Z" id="path4151" fill="#FFFFFF"></path>
                        <path d="M10.6682718,11.3896391 C9.90848993,11.3896391 9.32605705,11.6412871 9.32605705,11.6412871 L9.16526845,12.6250022 C9.16526845,12.6250022 9.64598993,12.423708 10.372651,12.423708 C10.7852517,12.423708 11.0870973,12.4715199 11.0870973,12.8170972 C11.0870973,13.0269854 11.0501007,13.1044528 11.0501007,13.1044528 C11.0501007,13.1044528 10.7246477,13.0763709 10.5739597,13.0763709 C9.61568793,13.0763709 8.60902685,13.497842 8.60902685,14.7685497 C8.60902685,15.769816 9.2694463,15.9995553 9.6787584,15.9995553 C10.4605034,15.9995553 10.7974665,15.4767713 10.8154363,15.4751977 L10.7789094,15.9115571 L11.7545638,15.9115571 L12.1898322,12.7667433 C12.1898322,11.4326093 11.0605537,11.3896391 10.6682718,11.3896391 L10.6682718,11.3896391 L10.6682718,11.3896391 Z M10.9056376,13.9501791 C10.9267785,14.1422741 10.7887752,15.0427117 10.1216611,15.0427117 C9.77753355,15.0427117 9.68803692,14.7718178 9.68803692,14.6115571 C9.68803692,14.2990245 9.8528188,13.9237918 10.6647483,13.9237918 C10.8536074,13.9240339 10.8738087,13.9448532 10.9056376,13.9501791 C10.9056376,13.9501791 10.8738087,13.9448532 10.9056376,13.9501791 L10.9056376,13.9501791 L10.9056376,13.9501791 Z" id="path4149" fill="#FFFFFF"></path>
                        <path d="M13.2267953,15.9765571 C13.4763759,15.9765571 14.9031544,16.0419203 14.9031544,14.5246484 C14.9031544,13.1061474 13.5824329,13.3863616 13.5824329,12.8164919 C13.5824329,12.5327676 13.7977181,12.4434379 14.1911745,12.4434379 C14.3473826,12.4434379 14.9483725,12.4946391 14.9483725,12.4946391 L15.0881376,11.4863523 C15.0881376,11.4864733 14.6991443,11.3966596 14.0658557,11.3966596 C13.2461745,11.3966596 12.4141611,11.7338849 12.4141611,12.8876651 C12.4141611,14.1950488 13.8014765,14.0638383 13.8014765,14.6145832 C13.8014765,14.9821903 13.4138926,15.0120878 13.1152181,15.0120878 C12.5983222,15.0120878 12.1328691,14.8293132 12.1312248,14.8380283 L11.9834732,15.8361474 C12.0102517,15.8446204 12.2972987,15.9765571 13.2267953,15.9765571 C13.2267953,15.9765571 12.2972987,15.9765571 13.2267953,15.9765571 L13.2267953,15.9765571 L13.2267953,15.9765571 Z" id="path4145" fill="#FFFFFF"></path>
                        <path d="M35.2510738,10.4848439 L35.0120638,12.0132517 C35.0120638,12.0132517 34.595,11.4195366 33.9420973,11.4195366 C32.9268625,11.4195366 32.0806375,12.681045 32.0806375,14.1305329 C32.0806375,15.066194 32.5319968,15.9829724 33.4546813,15.9829724 C34.1183893,15.9829724 34.486359,15.5060636 34.486359,15.5060636 L34.4376175,15.9133728 L35.5153355,15.9133728 L36.3617953,10.4830283 L35.2510738,10.4848439 L35.2510738,10.4848439 Z M34.7365268,13.4649184 C34.7365268,14.0680748 34.4467785,14.8737359 33.8460235,14.8737359 C33.447282,14.8737359 33.2604195,14.5287638 33.2604195,13.9873392 C33.2604195,13.102032 33.6462415,12.5178793 34.1330705,12.5178793 C34.5319295,12.5177582 34.7365268,12.8001512 34.7365268,13.4649184 C34.7365268,13.4649184 34.7365268,12.8001512 34.7365268,13.4649184 L34.7365268,13.4649184 L34.7365268,13.4649184 Z" id="path4139" fill="#FFFFFF"></path>
                        <path d="M4.6688255,15.9180934 L5.34333893,11.8183728 L5.442349,15.9180934 L6.2057718,15.9180934 L7.629849,11.8183728 L6.99902685,15.9180934 L8.1333557,15.9180934 L9.0069463,10.4804864 L7.25283558,10.4804864 L6.16043625,13.8167899 L6.1035906,10.4804864 L4.48666108,10.4804864 L3.60050335,15.9180934 L4.6688255,15.9180934 L4.6688255,15.9180934 Z" id="path4133" fill="#FFFFFF"></path>
                        <path d="M21.7403691,15.9255981 C22.0628859,14.0353933 22.1226678,12.5005702 22.8923154,12.7815106 C23.0270302,12.0499277 23.157047,11.7669296 23.3040939,11.457302 C23.3040939,11.457302 23.235151,11.4424137 23.090453,11.4424137 C22.5942282,11.4424137 22.2266107,12.1410729 22.2266107,12.1410729 L22.3253859,11.4994249 L21.293708,11.4994249 L20.6025168,15.9255981 L21.7403691,15.9255981 L21.7403691,15.9255981 Z" id="path4131" fill="#FFFFFF"></path>
                        <path d="M28.6296375,11.3896391 C27.8698558,11.3896391 27.2874228,11.6412871 27.2874228,11.6412871 L27.1267518,12.6250022 C27.1267518,12.6250022 27.6074733,12.423708 28.3341343,12.423708 C28.746735,12.423708 29.0483458,12.4715199 29.0483458,12.8170972 C29.0483458,13.0269854 29.011584,13.1044528 29.011584,13.1044528 C29.011584,13.1044528 28.6861308,13.0763709 28.5353255,13.0763709 C27.5771713,13.0763709 26.57051,13.497842 26.57051,14.7685497 C26.57051,15.769816 27.230812,15.9995553 27.6401243,15.9995553 C28.4218693,15.9995553 28.7588323,15.4767713 28.7766845,15.4751977 L28.7403925,15.9115571 L29.716047,15.9115571 L30.151198,12.7667433 C30.1513155,11.4326093 29.0219195,11.3896391 28.6296375,11.3896391 L28.6296375,11.3896391 L28.6296375,11.3896391 Z M28.8673558,13.9501791 C28.8884968,14.1422741 28.7503758,15.0427117 28.0830268,15.0427117 C27.7388993,15.0427117 27.6496375,14.7718178 27.6496375,14.6115571 C27.6496375,14.2990245 27.8144195,13.9237918 28.6262315,13.9237918 C28.8150905,13.9240339 28.8351745,13.9448532 28.8673558,13.9501791 C28.8673558,13.9501791 28.8351745,13.9448532 28.8673558,13.9501791 L28.8673558,13.9501791 L28.8673558,13.9501791 Z" id="path4149_1_" fill="#FFFFFF"></path>
                        <path d="M31.0429345,15.9255981 C31.3655688,14.0353933 31.4253508,12.5005702 32.1947635,12.7815106 C32.329713,12.0499277 32.4598473,11.7669296 32.6067768,11.457302 C32.6067768,11.457302 32.537834,11.4424137 32.393136,11.4424137 C31.896911,11.4424137 31.5292935,12.1410729 31.5292935,12.1410729 L31.6280688,11.4994249 L30.596391,11.4994249 L29.9051998,15.9255981 L31.0429345,15.9255981 L31.0429345,15.9255981 Z" id="path4131_1_" fill="#FFFFFF"></path>
                    </g>
                </g>
            </g>
            <g id="1423197481_payment_method_card_visa" sketch:type="MSShapeGroup">
                <g id="Page-1">
                    <g id="Visa">
                        <rect id="Rectangle-20" fill="#F6F6F6" x="0" y="2.47524752" width="40" height="19.8019802"></rect>
                        <path d="M37,0.247525003 C35,0.24752519 13.8251953,0.247524356 2,0.247525003 C1,0.247525058 -6.75015598e-14,1.23762401 -1.77635684e-14,2.22772302 L-1.77635684e-14,5.19802005 L40,5.19802005 C40,5.19802005 39.9999995,9.79503493 40,3.21782203 C40,1.23762401 39,0.247525003 37,0.247525003 L37,0.247525003 Z" id="Rectangle-1" fill="#265697"></path>
                        <path d="M0,20.049505 C0,20.049505 2.41593276e-07,20.0495052 0,22.0297031 C-1.15709967e-07,24.009901 1,24.9999999 3,24.9999999 C14.1558024,24.9999999 35,25 37,24.9999999 C39,24.9999999 40,24.009901 40,22.0297031 L40,20.049505 L0,20.049505 L0,20.049505 Z" id="Rectangle-1" fill="#D97B16"></path>
                        <path d="M27.9036363,7.61933376 C27.343,7.40655515 26.464606,7.17821782 25.3675683,7.17821782 C22.5715985,7.17821782 20.6021061,8.60275082 20.5852955,10.6442667 C20.5695455,12.1534068 21.9913409,12.9952397 23.0646743,13.4976784 C24.1661136,14.0124567 24.5363712,14.3407989 24.5310682,14.800478 C24.5241212,15.5044823 23.6515076,15.8261181 22.8382349,15.8261181 C21.7056667,15.8261181 21.1039849,15.6669365 20.1746818,15.2748037 L19.8100455,15.1078964 L19.4129015,17.4590304 C20.0737652,17.7521777 21.2959546,18.0062137 22.5649167,18.0193581 C25.5393333,18.0193581 27.4702728,16.6111886 27.4922273,14.431093 C27.5028863,13.2362923 26.7489545,12.3270741 25.1165228,11.5775204 C24.1274546,11.0916598 23.5217424,10.7674487 23.5281591,10.2754719 C23.5281591,9.83891626 24.0408561,9.37210163 25.148606,9.37210163 C26.0739318,9.3575623 26.7441818,9.56170317 27.2664773,9.77448178 L27.5200153,9.89567869 L27.9036363,7.61933376" id="Shape" fill="#265697"></path>
                        <path d="M35.1596137,7.37077012 L32.9731212,7.37077012 C32.2958182,7.37077012 31.7889015,7.55779641 31.4914545,8.24173535 L27.2890152,17.8668292 L30.260356,17.8668292 C30.260356,17.8668292 30.7461667,16.5726674 30.8560455,16.2885334 C31.18075,16.2885334 34.0672955,16.29304 34.4799242,16.29304 C34.5646137,16.6607082 34.824197,17.8668292 34.824197,17.8668292 L37.4498332,17.8668292 L35.1596137,7.37077012 L35.1596137,7.37077012 Z M31.6703787,14.1403063 C31.9044015,13.5351802 32.79775,11.2043262 32.79775,11.2043262 C32.7810455,11.2322782 33.0300227,10.5962493 33.1729395,10.2019168 L33.3641667,11.1074331 C33.3641667,11.1074331 33.9059772,13.6144759 34.01925,14.140199 L31.6703787,14.1403063 L31.6703787,14.1403063 Z" id="Shape" fill="#265697"></path>
                        <path d="M14.8124697,17.8635029 L16.5816136,7.36073745 L19.4112576,7.36073745 L17.6408939,17.8635029 L14.8124697,17.8635029 L14.8124697,17.8635029 Z" id="Shape" fill="#265697"></path>
                        <path d="M12.4392045,7.3684095 L9.66890152,14.5305077 L9.37373485,13.0750183 C8.85801515,11.3972004 7.25119697,9.57935423 5.45484847,8.66927767 L7.98794697,17.8544359 L10.9817727,17.8510023 L15.4365303,7.3684095 L12.4392045,7.3684095" id="Shape" fill="#265697"></path>
                        <path d="M7.09889395,7.36191777 L2.53611363,7.36191777 L2.5,7.580437 C6.04979545,8.44979272 8.39866667,10.5506999 9.37368183,13.0750183 L8.38153787,8.24860265 C8.21025,7.58354874 7.71346213,7.38509488 7.09889395,7.36191777" id="Shape" fill="#D97B16"></path>
                    </g>
                </g>
            </g>
        </g>
    </g>
</svg>