<?xml version="1.0" encoding="UTF-8" standalone="no"?>
<svg width="111px" height="47px" viewBox="0 0 111 47" version="1.1" xmlns="http://www.w3.org/2000/svg" xmlns:xlink="http://www.w3.org/1999/xlink" xmlns:sketch="http://www.bohemiancoding.com/sketch/ns">
    <!-- Generator: Sketch 3.3 (11970) - http://www.bohemiancoding.com/sketch -->
    <title>Artboard 39 Copy 5</title>
    <desc>Created with Sketch.</desc>
    <defs>
        <path id="path-1" d="M0.06,0.04 L111,0.04 L111,46 L0.06,46 L0.06,0.04 Z"></path>
        <path id="path-3" d="M0.06,0.04 L111,0.04 L111,46 L0.06,46"></path>
    </defs>
    <g id="Courses" stroke="none" stroke-width="1" fill="none" fill-rule="evenodd" sketch:type="MSPage">
        <g id="Artboard-39-Copy-5" sketch:type="MSArtboardGroup">
            <g id="yandex-copy-3" sketch:type="MSLayerGroup" transform="translate(0.000000, 0.500000)">
                <g id="Group-3">
                    <mask id="mask-2" sketch:name="Clip 2" fill="white">
                        <use xlink:href="#path-1"></use>
                    </mask>
                    <g id="Clip-2"></g>
                    <path d="M10.61,0 L8.15,0 C5.73,0 3.68,1.8 3.68,5.29 C3.68,7.39 4.67,8.94 6.44,9.7 L3.14,15.54 C3.03,15.73 3.14,15.88 3.31,15.88 L4.84,15.88 C4.97,15.88 5.06,15.84 5.1,15.73 L8.11,10 L9.19,10 L9.19,15.73 C9.19,15.8 9.25,15.88 9.34,15.88 L10.68,15.88 C10.81,15.88 10.85,15.82 10.85,15.71 L10.85,0.21 C10.85,0.06 10.76,0 10.61,0 L10.61,0 Z M9.19,8.64 L8.28,8.64 C6.85,8.64 5.47,7.62 5.47,5.08 C5.47,2.44 6.77,1.36 8.08,1.36 L9.19,1.36 L9.19,8.64 L9.19,8.64 Z" id="Fill-1" fill="#EC1B23" sketch:type="MSShapeGroup" mask="url(#mask-2)"></path>
                </g>
                <path d="M18.74,5.26 L17.4,5.26 C17.29,5.26 17.22,5.35 17.22,5.41 L17.22,9.46 L14.74,9.46 L14.74,5.41 C14.74,5.31 14.7,5.26 14.59,5.26 L13.25,5.26 C13.14,5.26 13.07,5.33 13.07,5.41 L13.07,15.7 C13.07,15.81 13.12,15.87 13.23,15.87 L14.59,15.87 C14.67,15.87 14.74,15.81 14.74,15.7 L14.74,10.79 L17.22,10.79 L17.22,15.7 C17.22,15.81 17.29,15.87 17.4,15.87 L18.74,15.87 C18.85,15.87 18.89,15.79 18.89,15.7 L18.89,5.41 C18.89,5.33 18.82,5.26 18.74,5.26" id="Fill-4" fill="#161617" sketch:type="MSShapeGroup"></path>
                <path d="M49.33,15.2 L49.16,14.47 C49.14,14.41 49.12,14.39 49.05,14.39 C48.95,14.39 48.36,14.62 47.52,14.62 C45.88,14.62 45.08,13.08 45.08,10.62 C45.08,8.46 45.75,6.32 46.87,6.32 C47.17,6.32 47.54,6.41 48.12,6.94 C48.19,7 48.23,7.02 48.3,7.02 C48.36,7.02 48.43,6.98 48.49,6.87 L49.08,5.94 C49.12,5.88 49.14,5.81 49.14,5.75 C49.14,5.67 49.05,5.6 48.92,5.54 C48.04,5.1 47.43,5.01 46.91,5.01 C44.88,5.01 43.3,7.38 43.3,11.09 C43.3,14.28 44.82,16.13 46.98,16.13 C47.89,16.13 48.86,15.7 49.25,15.43 C49.33,15.36 49.36,15.28 49.33,15.2" id="Fill-5" fill="#161617" sketch:type="MSShapeGroup"></path>
                <path d="M39.94,10.05 L42.53,5.41 C42.58,5.35 42.56,5.26 42.47,5.26 L41.19,5.26 C40.83,5.26 40.7,5.39 40.57,5.67 L38.62,9.63 C38.51,9.86 38.41,10.01 38.3,10.07 L38.3,5.41 C38.3,5.33 38.25,5.26 38.17,5.26 L36.76,5.26 C36.7,5.26 36.63,5.33 36.63,5.41 L36.63,15.72 C36.63,15.79 36.68,15.87 36.76,15.87 L38.17,15.87 C38.25,15.87 38.3,15.81 38.3,15.72 L38.3,10.41 C38.36,10.45 38.41,10.51 38.45,10.6 L40.91,15.55 C41.04,15.81 41.24,15.87 41.52,15.87 L42.9,15.87 C42.99,15.87 43.01,15.79 42.97,15.72 L39.94,10.05" id="Fill-6" fill="#161617" sketch:type="MSShapeGroup"></path>
                <path d="M27.56,14.54 L27.3,14.54 C26.97,14.54 26.89,14.41 26.89,14.16 L26.89,5.41 C26.89,5.31 26.84,5.26 26.76,5.26 L22.43,5.26 C22.32,5.26 22.26,5.33 22.26,5.41 L22.26,6.18 C22.26,8.74 22.11,12.04 20.73,14.54 L20.25,14.54 C20.12,14.54 20.08,14.6 20.08,14.71 L20.08,17.8 C20.08,17.91 20.16,17.95 20.23,17.95 L21.27,17.95 C21.5,17.95 21.59,17.78 21.59,17.63 L21.59,15.87 L26.22,15.87 L26.22,17.8 C26.22,17.88 26.28,17.95 26.37,17.95 L27.47,17.95 C27.6,17.95 27.73,17.84 27.73,17.63 L27.73,14.71 C27.73,14.6 27.66,14.54 27.56,14.54 L27.56,14.54 Z M25.22,14.54 L22.09,14.54 C23.19,12.7 23.62,10.62 23.77,8.08 C23.82,7.53 23.84,6.96 23.84,6.6 L25.22,6.6 L25.22,14.54 L25.22,14.54 Z" id="Fill-7" fill="#161617" sketch:type="MSShapeGroup"></path>
                <path d="M31.96,5.01 C29.63,5.01 28.59,7.89 28.59,11.02 C28.59,14.22 30.06,16.13 32.22,16.13 C33.28,16.13 34.21,15.72 34.69,15.43 C34.77,15.39 34.8,15.32 34.77,15.24 L34.6,14.52 C34.58,14.43 34.54,14.39 34.43,14.39 C34.34,14.39 33.72,14.62 32.83,14.62 C31.16,14.62 30.39,13.21 30.39,11.34 L30.39,10.84 C30.39,10.84 31.23,10.94 31.73,10.94 L34.88,10.94 L34.88,10.05 C34.88,6.77 33.69,5.01 31.96,5.01 L31.96,5.01 Z M31.73,9.61 C31.23,9.61 30.45,9.69 30.45,9.69 C30.45,9.69 30.45,9.37 30.5,9.03 C30.69,7.23 31.14,6.32 31.9,6.32 C32.59,6.32 33.02,7.26 33.13,8.88 C33.15,9.22 33.15,9.61 33.15,9.61 L31.73,9.61 L31.73,9.61 Z" id="Fill-8" fill="#161617" sketch:type="MSShapeGroup"></path>
                <path d="M43.01,42.34 L46.57,42.34 C49.84,42.34 52.56,40.5 52.56,36.13 C52.56,31.9 49.88,30.39 46.38,30.39 L45.49,30.39 L45.49,23.89 C45.49,23.79 45.39,23.66 45.25,23.66 L42.82,23.66 C42.62,23.66 42.55,23.76 42.55,23.92 L42.55,42.02 C42.55,42.25 42.69,42.34 43.01,42.34 L43.01,42.34 Z M45.49,32.67 L46.32,32.67 C48.5,32.67 49.77,34.12 49.77,36.16 C49.77,38.69 48.47,40.11 46.45,40.11 L45.49,40.11 L45.49,32.67 L45.49,32.67 Z" id="Fill-9" fill="#161617" sketch:type="MSShapeGroup"></path>
                <g id="Group-13">
                    <mask id="mask-4" sketch:name="Clip 11" fill="white">
                        <use xlink:href="#path-3"></use>
                    </mask>
                    <g id="Clip-11"></g>
                    <path d="M38.81,23.65 L36.45,23.65 C36.25,23.65 36.14,23.8 36.14,23.91 L36.14,31.04 L31.76,31.04 L31.76,23.91 C31.76,23.73 31.69,23.65 31.5,23.65 L29.13,23.65 C28.94,23.65 28.83,23.76 28.83,23.91 L28.83,42.05 C28.83,42.23 28.9,42.34 29.09,42.34 L31.5,42.34 C31.65,42.34 31.76,42.23 31.76,42.05 L31.76,33.39 L36.14,33.39 L36.14,42.05 C36.14,42.23 36.25,42.34 36.45,42.34 L38.81,42.34 C39,42.34 39.07,42.19 39.07,42.05 L39.07,23.91 C39.07,23.76 38.96,23.65 38.81,23.65" id="Fill-10" fill="#161617" sketch:type="MSShapeGroup" mask="url(#mask-4)"></path>
                    <path d="M13.18,39.99 L12.72,39.99 C12.15,39.99 12,39.77 12,39.32 L12,23.91 C12,23.73 11.92,23.65 11.77,23.65 L4.15,23.65 C3.96,23.65 3.85,23.76 3.85,23.91 L3.85,25.26 C3.85,29.77 3.58,35.59 1.14,39.99 L0.31,39.99 C0.08,39.99 0,40.11 0,40.29 L0,45.74 C0,45.93 0.15,46 0.27,46 L2.1,46 C2.51,46 2.67,45.7 2.67,45.44 L2.67,42.34 L10.82,42.34 L10.82,45.74 C10.82,45.89 10.93,46 11.08,46 L13.03,46 C13.25,46 13.48,45.82 13.48,45.44 L13.48,40.29 C13.48,40.11 13.37,39.99 13.18,39.99 L13.18,39.99 Z M9.06,39.99 L3.54,39.99 C5.49,36.75 6.25,33.09 6.51,28.61 C6.59,27.64 6.63,26.64 6.63,26 L9.06,26 L9.06,39.99 L9.06,39.99 Z" id="Fill-12" fill="#161617" sketch:type="MSShapeGroup" mask="url(#mask-4)"></path>
                </g>
                <path d="M20.93,23.21 C16.82,23.21 14.99,28.28 14.99,33.8 C14.99,39.43 17.58,42.79 21.39,42.79 C23.26,42.79 24.9,42.08 25.73,41.56 C25.88,41.49 25.92,41.37 25.88,41.23 L25.58,39.96 C25.54,39.81 25.47,39.73 25.28,39.73 C25.12,39.73 24.02,40.14 22.46,40.14 C19.53,40.14 18.15,37.65 18.15,34.36 L18.15,33.48 C18.15,33.48 19.64,33.65 20.52,33.65 L26.08,33.65 L26.08,32.08 C26.08,26.3 23.98,23.21 20.93,23.21 L20.93,23.21 Z M20.52,31.3 C19.64,31.3 18.27,31.45 18.27,31.45 C18.27,31.45 18.27,30.89 18.34,30.29 C18.69,27.12 19.49,25.52 20.82,25.52 C22.04,25.52 22.8,27.16 22.99,30.03 C23.03,30.63 23.03,31.3 23.03,31.3 L20.52,31.3 L20.52,31.3 Z" id="Fill-14" fill="#161617" sketch:type="MSShapeGroup"></path>
                <path d="M63.32,23.65 L55.33,23.65 C55.14,23.65 55.03,23.76 55.03,23.91 L55.03,42.05 C55.03,42.23 55.1,42.34 55.29,42.34 L57.69,42.34 C57.85,42.34 57.96,42.23 57.96,42.05 L57.96,26.02 L63.32,26.02 C63.44,26.02 63.59,25.95 63.59,25.76 L63.59,23.91 C63.59,23.76 63.48,23.65 63.32,23.65" id="Fill-15" fill="#161617" sketch:type="MSShapeGroup"></path>
                <path d="M75.17,23.65 L72.99,23.65 C72.86,23.65 72.76,23.72 72.72,23.81 C72.7,23.83 68.25,35.71 68.25,35.71 L67.96,36.66 L67.96,23.91 C67.96,23.73 67.88,23.65 67.69,23.65 L65.45,23.65 C65.26,23.65 65.19,23.78 65.19,23.91 L65.19,41.86 C65.19,42.23 65.27,42.34 65.46,42.34 L67.69,42.34 C67.8,42.34 67.89,42.29 67.93,42.19 L72.5,30.19 L72.69,29.57 L72.69,42.05 C72.69,42.23 72.8,42.34 72.99,42.34 L75.17,42.34 C75.36,42.34 75.44,42.19 75.44,41.86 L75.44,23.81 C75.44,23.71 75.32,23.65 75.17,23.65" id="Fill-16" fill="#161617" sketch:type="MSShapeGroup"></path>
                <path d="M108.74,23.6 L107.2,23.6 L107.2,32.95 C107.2,34.63 106.47,35.59 104.29,36.08 L90.37,39.93 C90.37,39.93 89.18,40.24 89.18,39.19 C89.18,38.32 90.24,38.21 90.41,38.05 L90.34,38.08 L103.04,33.15 C104.08,32.58 104.94,31.27 104.94,30.24 L104.94,15.49 C104.94,13.16 102.61,13.96 102.11,14.26 C101.55,14.58 87.39,22.32 87.39,22.32 C86.35,22.89 85.5,24.21 85.5,25.24 L85.5,39.93 C85.5,40.96 87.01,42.33 87.98,42.34 L108.74,42.34 C109.98,42.34 111,41.5 111,40.47 L111,25.48 C111,24.44 109.98,23.6 108.74,23.6 L108.74,23.6 Z M98.7,22.48 C99.68,21.84 100.61,22.05 100.78,22.94 C100.95,23.83 100.38,24.96 99.4,25.6 C98.42,26.23 97.49,26.03 97.32,25.13 C97.16,24.24 97.72,23.11 98.7,22.48 L98.7,22.48 Z" id="Fill-17" fill="#F37A1F" sketch:type="MSShapeGroup"></path>
            </g>
        </g>
    </g>
</svg>