<?xml version="1.0" encoding="UTF-8" standalone="no"?>
<svg width="139px" height="47px" viewBox="0 0 139 47" version="1.1" xmlns="http://www.w3.org/2000/svg" xmlns:xlink="http://www.w3.org/1999/xlink" xmlns:sketch="http://www.bohemiancoding.com/sketch/ns">
    <!-- Generator: Sketch 3.3 (11970) - http://www.bohemiancoding.com/sketch -->
    <title>Artboard 39 Copy 4</title>
    <desc>Created with Sketch.</desc>
    <defs>
        <path id="path-1" d="M0,14 L138.99669,14 L138.99669,0.00622222222 L0,0.00622222222"></path>
    </defs>
    <g id="Courses" stroke="none" stroke-width="1" fill="none" fill-rule="evenodd" sketch:type="MSPage">
        <g id="Artboard-39-Copy-4" sketch:type="MSArtboardGroup">
            <g id="payanyway_logo\-copy-2" sketch:type="MSLayerGroup" transform="translate(0.000000, 16.000000)">
                <g id="Group-10">
                    <mask id="mask-2" sketch:name="Clip 2" fill="white">
                        <use xlink:href="#path-1"></use>
                    </mask>
                    <g id="Clip-2"></g>
                    <path d="M98.6072619,7.07777778 L96.737381,10.6088889 C96.2244048,11.5888889 95.694881,12.5533333 95.215,13.5488889 C95.0329762,13.9222222 94.7682143,13.9688889 94.3710714,13.9688889 C93.9739286,13.9688889 93.7257143,13.9222222 93.5271429,13.5644444 C91.3759524,9.50444444 89.2082143,5.44444444 87.0239286,1.41555556 C86.7095238,0.824444444 87.1397619,0.513333333 87.5038095,0.248888889 C87.8678571,-0.0311111111 88.6952381,0.295555556 88.9269048,0.731111111 L94.040119,10.2977778 C94.1394048,10.5155556 94.1890476,10.7644444 94.4869048,10.9355556 C95.4632143,9.08444444 96.4229762,7.23333333 97.4158333,5.41333333 C97.5647619,5.13333333 97.4654762,4.94666667 97.3496429,4.72888889 L95.694881,1.60222222 C95.4135714,1.05777778 95.5790476,0.404444444 96.042381,0.217777778 C96.5222619,0.0155555556 97.2503571,0.342222222 97.5482143,0.902222222 L102.810357,10.7955556 C103.157857,10.7644444 103.14131,10.4844444 103.240595,10.3133333 L108.237976,0.793333333 C108.502738,0.295555556 109.313571,-0.0622222222 109.694167,0.217777778 C110.107857,0.528888889 110.356071,0.917777778 110.058214,1.49333333 C107.940119,5.46 105.871667,9.44222222 103.803214,13.4244444 C103.604643,13.8133333 103.389524,13.9844444 102.893095,13.9844444 C102.380119,13.9844444 102.165,13.8133333 101.966429,13.4244444 C100.890833,11.34 99.7655952,9.27111111 98.6072619,7.07777778" id="Fill-1" fill="#1A1A1A" sketch:type="MSShapeGroup" mask="url(#mask-2)"></path>
                    <path d="M55.8316667,3.65555556 L55.8316667,12.8488889 C55.8316667,13.4711111 55.384881,13.9688889 54.8553571,13.9688889 C54.3092857,13.9688889 53.8459524,13.4711111 53.8459524,12.8644444 L53.8459524,0.886666667 C53.8459524,0.653333333 53.6639286,0.233333333 54.0445238,0.202222222 C54.5244048,0.14 55.1035714,-0.0622222222 55.5172619,0.404444444 L56.99,2.1 L64.0558333,10.22 C64.3371429,9.98666667 64.2213095,9.72222222 64.2213095,9.50444444 C64.2213095,6.73555556 64.2544048,3.96666667 64.2047619,1.19777778 C64.1882143,0.513333333 64.6846429,0.357777778 65.1810714,0.217777778 C65.6278571,0.0933333333 66.2235714,0.7 66.2235714,1.19777778 C66.2235714,5.18 66.2235714,9.17777778 66.2070238,13.1755556 C66.2070238,13.4244444 66.4221429,13.8755556 65.9919048,13.9222222 C65.4954762,13.9844444 64.9163095,14.1555556 64.4860714,13.6422222 C62.5169048,11.34 60.5311905,9.06888889 58.5454762,6.79777778 L55.8316667,3.65555556" id="Fill-3" fill="#1A1A1A" sketch:type="MSShapeGroup" mask="url(#mask-2)"></path>
                    <path d="M16.200119,10.9977778 C15.0583333,10.9977778 13.9,11.0133333 12.7582143,10.9822222 C12.2783333,10.9666667 11.9970238,11.0911111 11.815,11.4955556 C11.5171429,12.1333333 11.1034524,12.7244444 10.8386905,13.3622222 C10.5739286,13.9844444 10.0278571,14 9.48178571,13.9222222 C9.05154762,13.86 8.81988095,13.0822222 9.05154762,12.6311111 C11.1696429,8.64888889 13.2877381,4.66666667 15.3892857,0.668888889 C15.5713095,0.326666667 15.769881,0.14 16.2497619,0.155555556 C16.7296429,0.171111111 16.9944048,0.264444444 17.2095238,0.668888889 C19.3110714,4.68222222 21.4457143,8.69555556 23.5638095,12.7088889 C23.762381,13.0822222 23.4645238,13.8755556 23.067381,13.9222222 C22.5709524,13.9844444 22.0083333,14.0311111 21.760119,13.4244444 C21.4953571,12.8022222 21.0816667,12.2422222 20.8169048,11.62 C20.6017857,11.1377778 20.3204762,10.9511111 19.7082143,10.9822222 C18.5333333,11.0288889 17.3584524,10.9977778 16.200119,10.9977778 L16.200119,10.9977778 Z M16.2828571,3.06444444 L12.9071429,9.39555556 L19.6420238,9.39555556 L16.2828571,3.06444444 L16.2828571,3.06444444 Z" id="Fill-4" fill="#1A1A1A" sketch:type="MSShapeGroup" mask="url(#mask-2)"></path>
                    <path d="M116.280119,0.186666667 C116.76,0.0777777778 116.975119,0.264444444 117.140595,0.606666667 C119.275238,4.65111111 121.393333,8.69555556 123.544524,12.7088889 C123.875476,13.3155556 123.445238,13.7044444 123.097738,13.8755556 C122.700595,14.0622222 122.055238,14.0622222 121.773929,13.4866667 C121.426429,12.7866667 121.029286,12.1177778 120.681786,11.4177778 C120.532857,11.1066667 120.334286,10.9822222 119.937143,10.9822222 C117.471548,10.9977778 115.0225,10.9977778 112.573452,10.9822222 C112.159762,10.9822222 111.977738,11.1222222 111.82881,11.4333333 C111.497857,12.0711111 111.100714,12.6933333 110.819405,13.3622222 C110.554643,13.9844444 110.008571,14 109.479048,13.9222222 C109.032262,13.86 108.817143,13.0666667 109.032262,12.6311111 C111.150357,8.64888889 113.268452,4.65111111 115.37,0.653333333 C115.568571,0.264444444 115.816786,0.0466666667 116.280119,0.186666667 L116.280119,0.186666667 Z M116.263571,3.08 L112.87131,9.44222222 C115.039048,9.44222222 117.04131,9.42666667 119.043571,9.44222222 C119.589643,9.45777778 119.573095,9.30222222 119.374524,8.94444444 C118.712619,7.71555556 118.067262,6.45555556 117.405357,5.22666667 L116.263571,3.08 L116.263571,3.08 Z" id="Fill-5" fill="#1A1A1A" sketch:type="MSShapeGroup" mask="url(#mask-2)"></path>
                    <path d="M51.2810714,13.9377778 C50.8177381,13.9377778 50.4371429,13.86 50.255119,13.3777778 C50.0565476,12.8955556 49.6925,12.4755556 49.5104762,11.9933333 C49.2291667,11.2 48.7161905,10.9355556 47.739881,10.9666667 C45.5721429,11.0444444 43.4044048,10.9977778 41.220119,10.9822222 C40.7567857,10.9822222 40.525119,11.0911111 40.3430952,11.4644444 C40.0121429,12.1488889 39.5984524,12.7866667 39.2840476,13.4555556 C39.0027381,14.0622222 38.3739286,14.0622222 37.9767857,13.8911111 C37.5961905,13.72 37.1825,13.3155556 37.4969048,12.7244444 C39.6646429,8.69555556 41.7992857,4.66666667 43.9008333,0.622222222 C44.0994048,0.248888889 44.3641667,0.155555556 44.7944048,0.155555556 C45.2577381,0.155555556 45.4894048,0.264444444 45.6879762,0.637777778 C47.7895238,4.65111111 49.9241667,8.66444444 52.0257143,12.6777778 C52.340119,13.2533333 51.909881,13.9533333 51.2810714,13.9377778 L51.2810714,13.9377778 Z M44.7944048,3.06444444 L41.4186905,9.39555556 L48.1370238,9.39555556 L44.7944048,3.06444444 L44.7944048,3.06444444 Z" id="Fill-6" fill="#1A1A1A" sketch:type="MSShapeGroup" mask="url(#mask-2)"></path>
                    <path d="M2.64761905,0.0155555556 C3.78940476,0.0466666667 4.93119048,-0.0622222222 6.05642857,0.233333333 C8.19107143,0.808888889 9.44869048,2.16222222 9.56452381,4.07555556 C9.69690476,6.09777778 8.62130952,7.62222222 6.58595238,8.4 C5.31178571,8.88222222 3.97142857,8.88222222 2.63107143,8.82 C2.11809524,8.78888889 1.91952381,8.89777778 1.93607143,9.39555556 C1.96916667,10.5777778 1.95261905,11.7444444 1.95261905,12.9266667 C1.93607143,13.4088889 1.35690476,14.0466667 0.926666667,13.9377778 C0.397142857,13.8133333 0,13.5955556 0,12.9266667 C0.0496428571,8.85111111 0.0330952381,4.76 0,0.668888889 C0,0.0777777778 0.215119048,-0.0311111111 0.810833333,0.0155555556 C1.40654762,0.0466666667 2.03535714,0.0155555556 2.64761905,0.0155555556 L2.64761905,0.0155555556 Z M1.93607143,4.40222222 L1.93607143,6.75111111 C1.93607143,6.95333333 1.86988095,7.21777778 2.26702381,7.23333333 C3.40880952,7.29555556 4.55059524,7.40444444 5.6427381,7.03111111 C6.88380952,6.59555556 7.57880952,5.53777778 7.47952381,4.24666667 C7.36369048,2.87777778 6.63559524,2.06888889 5.2125,1.75777778 C4.28583333,1.55555556 3.32607143,1.64888889 2.38285714,1.61777778 C2.0022619,1.60222222 1.93607143,1.75777778 1.93607143,2.05333333 C1.95261905,2.83111111 1.93607143,3.62444444 1.93607143,4.40222222 L1.93607143,4.40222222 Z" id="Fill-7" fill="#1A1A1A" sketch:type="MSShapeGroup" mask="url(#mask-2)"></path>
                    <path d="M29.0245238,9.52 C29.0245238,8.41555556 29.0079762,7.31111111 29.0410714,6.20666667 C29.057619,5.75555556 28.8755952,5.50666667 28.4288095,5.28888889 C26.2279762,4.23111111 24.0436905,3.14222222 21.8594048,2.06888889 C21.2305952,1.75777778 20.9327381,1.15111111 21.2967857,0.762222222 C21.6939286,0.326666667 22.1572619,0.171111111 22.8191667,0.528888889 C24.9538095,1.63333333 27.1380952,2.67555556 29.2892857,3.78 C29.8022619,4.04444444 30.1994048,4.06 30.7289286,3.78 C32.880119,2.67555556 35.0478571,1.61777778 37.1990476,0.544444444 C37.7947619,0.248888889 38.5890476,0.342222222 38.7710714,0.793333333 C38.9696429,1.30666667 38.9034524,1.74222222 38.2084524,2.06888889 C35.9910714,3.09555556 33.839881,4.21555556 31.6225,5.27333333 C31.142619,5.50666667 30.9771429,5.77111111 30.9771429,6.25333333 C31.0102381,8.46222222 30.9605952,10.6711111 31.0267857,12.8644444 C31.0433333,13.5644444 30.5965476,13.7977778 30.017381,13.9222222 C29.5375,14.0311111 29.0245238,13.4555556 29.0245238,12.8955556 L29.0245238,9.52" id="Fill-8" fill="#E25A7E" sketch:type="MSShapeGroup" mask="url(#mask-2)"></path>
                    <path d="M129.220357,9.50444444 C129.220357,8.41555556 129.20381,7.34222222 129.236905,6.26888889 C129.253452,5.78666667 129.104524,5.52222222 128.608095,5.27333333 C126.390714,4.23111111 124.239524,3.11111111 122.022143,2.06888889 C121.34369,1.74222222 121.244405,1.32222222 121.442976,0.808888889 C121.625,0.357777778 122.402738,0.233333333 122.981905,0.528888889 C125.133095,1.60222222 127.317381,2.66 129.452024,3.76444444 C130.014643,4.06 130.444881,4.02888889 130.990952,3.74888889 C133.125595,2.64444444 135.309881,1.60222222 137.444524,0.497777778 C138.089881,0.155555556 138.619405,0.326666667 138.851071,0.762222222 C139.06619,1.18222222 139.132381,1.72666667 138.404286,2.06888889 C136.22,3.09555556 134.06881,4.21555556 131.884524,5.24222222 C131.338452,5.50666667 131.189524,5.81777778 131.189524,6.34666667 C131.222619,8.52444444 131.206071,10.7022222 131.206071,12.8955556 C131.206071,13.44 130.693095,14.0155556 130.213214,13.9222222 C129.634048,13.8133333 129.154167,13.58 129.20381,12.88 C129.286548,11.76 129.220357,10.6244444 129.220357,9.50444444" id="Fill-9" fill="#F3BE58" sketch:type="MSShapeGroup" mask="url(#mask-2)"></path>
                </g>
                <path d="M75.7384524,9.50444444 C75.7384524,8.44666667 75.6888095,7.38888889 75.755,6.34666667 C75.7880952,5.75555556 75.5233333,5.47555556 74.9772619,5.21111111 C72.8095238,4.18444444 70.6914286,3.11111111 68.5567857,2.05333333 C67.9445238,1.75777778 67.6797619,1.16666667 67.9445238,0.746666667 C68.2258333,0.342222222 68.9208333,0.248888889 69.5496429,0.575555556 C71.6677381,1.61777778 73.7858333,2.66 75.8708333,3.74888889 C76.4830952,4.06 76.929881,4.04444444 77.5255952,3.73333333 C79.6436905,2.62888889 81.7783333,1.58666667 83.9129762,0.513333333 C84.4590476,0.248888889 85.269881,0.357777778 85.4188095,0.777777778 C85.5677381,1.27555556 85.5842857,1.72666667 84.8727381,2.06888889 C82.7215476,3.08 80.6034524,4.16888889 78.4522619,5.19555556 C77.8896429,5.46 77.6579762,5.75555556 77.6745238,6.33111111 C77.707619,8.49333333 77.6910714,10.64 77.6910714,12.8022222 C77.6745238,13.3933333 77.2111905,13.9377778 76.6982143,13.9533333 C76.2017857,13.9533333 75.7384524,13.4088889 75.7384524,12.8022222 L75.7384524,9.50444444" id="Fill-11" fill="#81BE57" sketch:type="MSShapeGroup"></path>
            </g>
        </g>
    </g>
</svg>