<?xml version="1.0" encoding="UTF-8" standalone="no"?>
<svg width="127px" height="47px" viewBox="0 0 127 47" version="1.1" xmlns="http://www.w3.org/2000/svg" xmlns:xlink="http://www.w3.org/1999/xlink" xmlns:sketch="http://www.bohemiancoding.com/sketch/ns">
    <!-- Generator: Sketch 3.3 (11970) - http://www.bohemiancoding.com/sketch -->
    <title>Artboard 39</title>
    <desc>Created with Sketch.</desc>
    <defs>
        <path id="path-1" d="M0,32.6944358 L126.147654,32.6944358 L126.147654,0.0353867799 L0,0.0353867799 L0,32.6944358 L0,32.6944358 Z"></path>
    </defs>
    <g id="Courses" stroke="none" stroke-width="1" fill="none" fill-rule="evenodd" sketch:type="MSPage">
        <g id="Artboard-39" sketch:type="MSArtboardGroup">
            <g id="PayPal_logo-Copy-2" sketch:type="MSLayerGroup" transform="translate(0.000000, 7.500000)">
                <g id="layer1" transform="translate(0.121762, 0.208360)">
                    <g id="g2993" transform="translate(63.378239, 16.833004) scale(1, -1) translate(-63.378239, -16.833004) translate(0.304412, 0.319173)">
                        <g id="g2995" transform="translate(84.258456, 7.614055)" fill="#336699" sketch:type="MSShapeGroup">
                            <path d="M12.2643552,5.30801699 C11.8333507,5.03376945 11.3778175,4.79903714 10.9006757,4.59910183 C10.2594252,4.33782944 9.65146354,4.20100056 9.08905525,4.20100056 C8.22587825,4.20100056 7.56243504,4.32426451 7.11391005,4.58789602 C6.66480104,4.8379626 6.42944222,5.27263021 6.43703444,5.89484776 C6.43703444,6.61319939 6.6011432,7.17054118 6.94104104,7.60756791 C7.28327495,8.02808081 7.79195369,8.36661434 8.42269195,8.61904004 C9.04992612,8.83371983 9.82141247,9.01065373 10.7120383,9.13745636 C11.5039652,9.23830869 13.0697146,9.4205506 13.2700324,9.42173016 C13.4703502,9.4234995 13.603506,9.53496786 13.5141514,8.99590924 C13.4744383,8.76176672 13.0224092,6.88744694 12.8150832,6.03521532 C12.7549294,5.77984073 12.4185357,5.40768976 12.2643552,5.30801699 L12.2643552,5.30801699 Z M18.4093812,18.4813356 C17.090671,19.224458 15.0279233,19.6001476 12.2053695,19.6001476 C10.8095691,19.6001476 9.40676046,19.4869099 7.99927969,19.2663323 C6.96615377,19.1065021 6.85986269,19.079962 6.2180281,18.9390046 C4.89756585,18.648833 4.69374395,17.3135719 4.69374395,17.3135719 L4.26974767,15.5524898 C4.0291327,14.4260106 4.6645431,14.4726032 4.94779131,14.5598906 C5.524216,14.735645 5.83666505,14.9102197 7.01287512,15.1791593 C8.13710768,15.436893 9.32499809,15.6297509 10.2728575,15.6220838 C11.6628178,15.6220838 12.7198884,15.4681513 13.4224608,15.1720819 C14.1256171,14.8624476 14.4736912,14.3351846 14.4736912,13.5808564 C14.4760273,13.4015633 14.4806994,13.2322966 14.4164576,13.0842619 C14.3586399,12.9462534 14.2476767,12.8129632 13.915371,12.7675502 C11.9314656,12.6484147 10.5076323,12.465583 8.79295868,12.2131573 C7.10106167,11.9725272 5.62057879,11.5602712 4.38304695,10.9893645 C3.06375274,10.3984053 2.07676415,9.60751076 1.39638444,8.6054751 C0.734109263,7.59872121 0.401219621,6.37964665 0.39946757,4.94353316 C0.39946757,3.58645015 0.882449559,2.47943372 1.81687662,1.62012474 C2.76240001,0.772021583 3.99233963,0.35209846 5.48041473,0.35209846 C6.41016966,0.358586037 7.13785474,0.426410698 7.65938185,0.557931564 C8.1756528,0.689452429 8.73864511,0.876412583 9.33317433,1.13650542 C9.7776112,1.32405535 10.2570891,1.595354 10.7634318,1.93565686 C11.2703584,2.27713929 11.6213526,2.51953873 12.0716296,2.81737746 L12.0879821,2.78906804 L11.9612504,2.2246489 C11.9606664,2.21934088 11.9530742,2.21639198 11.9530742,2.21108397 L11.9571623,2.20046793 C11.8123261,1.52045198 12.2170499,0.954853279 12.8839972,0.888208177 L12.8921734,0.876412583 L12.9511591,0.876412583 L12.9534952,0.873463685 C13.39618,0.873463685 14.915792,0.874053465 15.6259566,0.876412583 L16.121787,0.876412583 C16.1544919,0.876412583 16.157996,0.886438838 16.1708444,0.894105973 C16.8518081,0.978444466 17.504739,1.53873515 17.6583355,2.21108397 L20.1947209,13.2665038 C20.2531226,13.5265966 20.2992599,13.8267945 20.3267087,14.1724054 C20.3582457,14.5215549 20.3956227,14.8087776 20.3845264,15.0163801 C20.3903666,16.5810655 19.7245873,17.7376234 18.4093812,18.4813356 L18.4093812,18.4813356 Z" id="path2997"></path>
                        </g>
                        <g id="g2999">
                            <g id="g3001-Clipped">
                                <mask id="mask-2" sketch:name="path3005" fill="white">
                                    <use xlink:href="#path-1"></use>
                                </mask>
                                <g id="path3005"></g>
                                <g id="g3001" mask="url(#mask-2)">
                                    <g transform="translate(-0.584017, -0.589780)">
                                        <g id="g3007" transform="translate(43.265141, 0.429360)">
                                            <path d="M16.3524736,27.1298646 C15.6084361,27.1298646 14.6325438,26.5218018 14.1705864,25.7869363 C14.1705864,25.7869363 9.19359428,17.1702554 8.70477212,16.3091771 C8.43904443,15.8462001 8.16981263,16.1405001 8.12484333,16.3127158 C8.08863428,16.5220876 6.58245465,25.7303175 6.58245465,25.7303175 C6.41308975,26.4716705 5.64627554,27.1080428 4.68731976,27.1050939 L1.58385387,27.1003756 C0.835728206,27.1003756 0.369098691,26.4952617 0.535543511,25.7639349 C0.535543511,25.7639349 2.90782022,12.1848479 3.37036162,8.99119101 C3.6010483,7.22480091 3.34641693,6.9116279 3.34641693,6.9116279 L0.270983849,1.49627101 C-0.179293193,0.761995328 0.0671619453,0.160420069 0.811783512,0.160420069 L4.40815968,0.163368967 C5.15278124,0.163368967 6.13918582,0.761995328 6.58245465,1.49745057 L20.4178154,25.1281524 C20.4178154,25.1281524 21.7411977,27.1469682 20.5206024,27.1298646 C19.6883783,27.118069 16.3524736,27.1298646 16.3524736,27.1298646" id="path3009" fill="#1C3664" sketch:type="MSShapeGroup"></path>
                                        </g>
                                        <g id="g3011" transform="translate(0.080010, 9.126251)">
                                            <path d="M23.3606766,20.6422883 C22.9290881,21.4927506 22.2819974,22.1833826 21.4561975,22.7047478 C20.5994446,23.2384984 19.6031118,23.6065209 18.4415021,23.8282781 C17.2728843,24.040009 15.9080368,24.1438102 14.3422874,24.1579649 L7.09230142,24.1526569 C6.3389196,24.1438102 5.60072222,23.5469532 5.42668518,22.8156264 L0.537879579,1.35295455 C0.369682707,0.618678869 0.840400341,0.0117955933 1.59086208,0.0117955933 L5.06401067,0.0117955933 C5.81505643,0.0117955933 6.55909398,0.602754818 6.72787487,1.35295455 L7.92452553,6.56129878 C8.08454616,7.28967667 8.82683166,7.89243149 9.57962946,7.89243149 L10.5724582,7.89243149 C14.8200132,7.89655995 18.1144527,8.77415209 20.4820572,10.5305159 C22.8461577,12.2833411 24.028792,14.607073 24.0229518,17.4804795 C24.028792,18.742608 23.8121217,19.7989034 23.3606766,20.6422883 M15.8613154,13.6298081 C14.8141731,12.8566069 13.362891,12.4691217 11.4788525,12.4691217 L10.6273558,12.4691217 C9.87689407,12.4691217 9.40325636,13.0701072 9.56853314,13.8085113 L10.6139234,18.3580717 C10.77336,19.0911678 11.5220697,19.6992306 12.2725315,19.6921533 L13.4090284,19.6992306 C14.7364988,19.6992306 15.7456801,19.4698063 16.4266438,19.0133169 C17.0976792,18.5692128 17.4387451,17.8679648 17.4270648,16.9249071 C17.4469213,15.5047176 16.9137139,14.4053683 15.8613154,13.6298081" id="path3013" fill="#1C3664" sketch:type="MSShapeGroup"></path>
                                        </g>
                                    </g>
                                </g>
                            </g>
                        </g>
                        <g id="g3015" transform="translate(62.552884, 8.458030)" fill="#336699" sketch:type="MSShapeGroup">
                            <path d="M23.3606766,20.6422883 C22.9279201,21.4927506 22.2744052,22.1774848 21.4480212,22.7106456 C20.6006127,23.2426269 19.5937675,23.6135983 18.4280697,23.8300474 C17.2752204,24.0341112 15.9045327,24.1508875 14.3428714,24.1544262 L7.07653296,24.1508875 C6.3284073,24.1379124 5.59429803,23.544594 5.42142903,22.813857 L0.536127528,1.34469764 C0.358002369,0.615140191 0.843904443,0.00707735599 1.57859772,0.0112058137 L5.06517871,0.01769339 C5.80454412,0.0112058137 6.55792594,0.615140191 6.732547,1.34469764 L7.91109314,6.55481121 C8.07636992,7.28495843 8.82799969,7.89655995 9.57962946,7.88594391 L10.5707062,7.88594391 C14.8235173,7.88594391 18.1208769,8.76825429 20.4820572,10.5246181 C22.8373975,12.2898287 24.0229518,14.6053036 24.0229518,17.4851978 C24.0153596,18.742608 23.8033614,19.8018523 23.3606766,20.6422883 M15.8642355,13.6203716 C14.8235173,12.8560172 13.362891,12.4726604 11.4835246,12.4726604 L10.6191796,12.4726604 C9.87163792,12.4638137 9.38865593,13.0742356 9.56619707,13.8061522 L10.6080833,18.3627899 C10.7634318,19.0835006 11.5220697,19.6968715 12.2590991,19.6909737 L13.4008521,19.6968715 C14.7335787,19.6909737 15.7304956,19.4656779 16.4190516,19.0180351 C17.0959272,18.5650843 17.4241447,17.8626567 17.4294008,16.9266764 C17.4323209,15.4999994 16.9096258,14.4024194 15.8642355,13.6203716" id="path3017"></path>
                        </g>
                        <g id="g3019" transform="translate(21.188134, 7.630569)" fill="#1C3664" sketch:type="MSShapeGroup">
                            <path d="M12.2643552,5.30801699 C11.8333507,5.03376945 11.3784016,4.8002167 10.9012597,4.59969161 C10.2600092,4.33959878 9.64912748,4.20159034 9.08847124,4.20159034 C8.2276303,4.20159034 7.56243504,4.32544407 7.11332603,4.58789602 C6.66480104,4.83855238 6.42827419,5.27321999 6.43586641,5.89602732 C6.43586641,6.61260961 6.60172721,7.17172074 6.94104104,7.60815769 C7.28385897,8.02926037 7.79020164,8.36838368 8.4209399,8.6202196 C9.04992612,8.83607895 9.82374853,9.01065373 10.7114542,9.13745636 C11.5033812,9.23830869 13.0708826,9.41996082 13.2706164,9.42290972 C13.4691821,9.4234995 13.602922,9.53614742 13.5135674,8.9970888 C13.4750223,8.76294627 13.0224092,6.88744694 12.8150832,6.0358051 C12.7525934,5.77925095 12.4161996,5.40709998 12.2643552,5.30801699 L12.2643552,5.30801699 Z M18.4093812,18.4819254 C17.090671,19.2250478 15.0285073,19.6001476 12.2059535,19.6001476 C10.8095691,19.6001476 9.40734447,19.4880895 7.99927969,19.2669221 C6.96440172,19.1082714 6.86044671,19.0811415 6.2180281,18.9401842 C4.89698184,18.648833 4.69374395,17.3147514 4.69374395,17.3147514 L4.26974767,15.5524898 C4.02971672,14.4266004 4.66571114,14.473193 4.94779131,14.5604804 C5.52304797,14.7362347 5.83724907,14.9102197 7.01345914,15.1803388 C8.13593965,15.436893 9.32558211,15.6291611 10.2722735,15.6226736 C11.6634018,15.6226736 12.7193044,15.4693309 13.4218768,15.1732615 C14.1256171,14.8636271 14.4719392,14.3351846 14.4719392,13.5814461 C14.4766113,13.4021531 14.4801154,13.2322966 14.4176256,13.0854414 C14.3586399,12.9462534 14.2465086,12.813553 13.914203,12.7687298 C11.9326336,12.6478249 10.5093844,12.465583 8.79179064,12.2131573 C7.09989364,11.9725272 5.61999478,11.5602712 4.38187892,10.9899543 C3.0625847,10.3989951 2.07676415,9.60692098 1.39755248,8.6054751 C0.732941229,7.59931099 0.400635604,6.38023642 0.39946757,4.94353316 C0.39946757,3.58703993 0.883033576,2.47943372 1.81629261,1.62071452 C2.76240001,0.772611362 3.9911716,0.35209846 5.4792467,0.35209846 C6.40958565,0.358586037 7.13668671,0.427590258 7.65996586,0.557931564 C8.1756528,0.690631989 8.73922912,0.876412583 9.33142227,1.13650542 C9.7776112,1.32405535 10.2559211,1.59653356 10.7628477,1.93624664 C11.2686064,2.27713929 11.6213526,2.51953873 12.0733817,2.81737746 L12.0873981,2.78965782 L11.9606664,2.22582846 C11.9594984,2.22052044 11.9524902,2.21698176 11.9524902,2.21049419 L11.9577463,2.20164749 C11.8129101,1.5198622 12.2164658,0.954853279 12.8839972,0.889387736 L12.8921734,0.876412583 L12.9505751,0.876412583 L12.9523272,0.872284126 C13.39618,0.872284126 14.916376,0.874643244 15.6247886,0.876412583 L16.1212029,0.876412583 C16.1544919,0.876412583 16.159164,0.887618397 16.1696763,0.894695753 C16.8523921,0.981393364 17.502987,1.54050449 17.6583355,2.21049419 L20.1947209,13.2670936 C20.2519546,13.5265966 20.2986759,13.8267945 20.3243727,14.1718156 C20.3582457,14.5227345 20.3950387,14.8087776 20.3851104,15.0157903 C20.3909506,16.5816553 19.7240033,17.7382132 18.4093812,18.4819254 L18.4093812,18.4819254 Z" id="path3021"></path>
                        </g>
                        <g id="g3023" transform="translate(104.714233, 8.255146)" fill="#336699" sketch:type="MSShapeGroup">
                            <path d="M9.92828756,24.1809663 L6.82073356,24.1809663 C6.8189815,24.1809663 6.81722945,24.1803765 6.81606142,24.1803765 L6.81430937,24.1809663 C6.10297677,24.1809663 5.38113186,23.6307019 5.17964602,22.9306334 C5.17146979,22.902324 5.15745338,22.8751941 5.15102919,22.8457051 C5.15102919,22.8457051 5.07685905,22.5042227 4.94837532,21.9138533 L0.67979569,2.37445293 C0.581096831,1.93270796 0.515102919,1.64489549 0.495246344,1.56999347 L0.503422581,1.55937744 C0.355666302,0.876412583 0.762142075,0.311403664 1.42967341,0.248297239 L1.43843366,0.235322087 L4.66395909,0.235322087 C5.37061955,0.235322087 6.08779233,0.780278498 6.29570235,1.47150027 C6.30563064,1.50511771 6.32139909,1.53637603 6.32899131,1.56999347 L10.9853582,22.8468847 L10.97835,22.8492438 C11.1366186,23.5770319 10.6723251,24.1809663 9.92828756,24.1809663" id="path3025"></path>
                        </g>
                        <g id="g3027" transform="translate(118.190423, 27.514401)" fill="#336699" sketch:type="MSShapeGroup">
                            <path d="M2.33606766,0.589779666 C2.2303606,0.561470242 2.11472525,0.537879055 1.98799358,0.519595886 C1.86184593,0.501902496 1.74854664,0.491876241 1.65101582,0.491876241 C1.30410977,0.491876241 1.04247019,0.586240988 0.863177001,0.773201142 C0.683299791,0.960751076 0.593945203,1.26153871 0.593945203,1.67497425 L0.593945203,3.48972628 L0.209078056,3.48972628 L0.209078056,3.97334561 L0.593945203,3.97334561 L0.593945203,4.95414919 L1.16219366,4.95414919 L1.16219366,3.97334561 L2.33606766,3.97334561 L2.33606766,3.48972628 L1.16219366,3.48972628 L1.16219366,1.9344773 C1.16219366,1.75577407 1.16744981,1.6154065 1.17445802,1.51455418 C1.18321827,1.41311208 1.21125108,1.31933711 1.25972449,1.23204972 C1.30352576,1.15007035 1.36426351,1.09109238 1.44252178,1.05334648 C1.52078005,1.0150108 1.63933548,0.996137856 1.7987721,0.996137856 C1.89104677,0.996137856 1.98799358,1.01029257 2.08961252,1.03801221 C2.18947942,1.06514208 2.26248153,1.08814348 2.30686682,1.10642665 L2.33606766,1.10642665 L2.33606766,0.589779666" id="path3029"></path>
                        </g>
                        <g id="g3031" transform="translate(120.891501, 27.484322)" fill="#336699" sketch:type="MSShapeGroup">
                            <path d="M5.25615224,0.589779666 L4.68790378,0.589779666 L4.68790378,2.53369344 C4.68790378,2.6799588 4.68089558,2.8220957 4.66746319,2.9583348 C4.6540308,3.09516369 4.62541397,3.20368314 4.58394877,3.28566252 C4.53722742,3.37294991 4.4712335,3.43959501 4.38421498,3.48382849 C4.29719646,3.52865174 4.17280086,3.55106337 4.00927612,3.55106337 C3.84925549,3.55106337 3.69098691,3.51095835 3.53096627,3.43015854 C3.37152965,3.3499485 3.21267705,3.24791662 3.05324043,3.12347311 C3.0590806,3.07629074 3.06375274,3.02203101 3.06784086,2.95951436 C3.07251299,2.8975875 3.07426504,2.83625041 3.07426504,2.77491333 L3.07426504,0.589779666 L2.50601658,0.589779666 L2.50601658,2.53369344 C2.50601658,2.68467704 2.49842436,2.82740372 2.48557599,2.96305304 C2.47272762,3.09870236 2.44411079,3.20663204 2.40264559,3.28802164 C2.35534022,3.37589881 2.28876229,3.44136435 2.20174377,3.48559783 C2.11530927,3.52924152 1.99032965,3.55106337 1.82680491,3.55106337 C1.67145641,3.55106337 1.51669193,3.51213791 1.35959138,3.43487677 C1.20307485,3.35761564 1.04772635,3.25912243 0.89179383,3.13880738 L0.89179383,0.589779666 L0.322377337,0.589779666 L0.322377337,4.00342437 L0.89179383,4.00342437 L0.89179383,3.62478583 C1.06991899,3.7734103 1.24687611,3.8895969 1.42324922,3.97334561 C1.60079037,4.05591476 1.78709176,4.0983789 1.98740956,4.0983789 C2.21692821,4.0983789 2.41257388,4.04942719 2.57317853,3.95211354 C2.73319916,3.85362034 2.85292263,3.71856079 2.93176492,3.54516557 C3.16128356,3.74097242 3.37152965,3.88251954 3.56133515,3.96862737 C3.75055663,4.0547352 3.9532105,4.0983789 4.16929676,4.0983789 C4.54073152,4.0983789 4.81463545,3.98455142 4.99100856,3.75807603 C5.16738167,3.53042108 5.25615224,3.21311962 5.25615224,2.80558187 L5.25615224,0.589779666" id="path3033"></path>
                        </g>
                    </g>
                </g>
            </g>
        </g>
    </g>
</svg>