<?xml version="1.0" encoding="UTF-8" standalone="no"?>
<svg width="140px" height="47px" viewBox="0 0 140 47" version="1.1" xmlns="http://www.w3.org/2000/svg" xmlns:xlink="http://www.w3.org/1999/xlink" xmlns:sketch="http://www.bohemiancoding.com/sketch/ns">
    <!-- Generator: Sketch 3.3 (11970) - http://www.bohemiancoding.com/sketch -->
    <title>Artboard 39 Copy 2</title>
    <desc>Created with Sketch.</desc>
    <defs></defs>
    <g id="Courses" stroke="none" stroke-width="1" fill="none" fill-rule="evenodd" sketch:type="MSPage">
        <g id="Artboard-39-Copy-2" sketch:type="MSArtboardGroup" fill="#0068A3">
            <g id="WebMoney-logo-blue_8-Copy" sketch:type="MSLayerGroup" transform="translate(0.000000, 6.000000)">
                <path d="M122.340605,0.0847 C125.084534,0.0847 127.683174,0.7189 129.997582,1.84485 C130.361159,2.016 130.723678,2.2043 131.087254,2.4122 L129.478489,3.84125 L127.061461,1.3608 L122.982065,4.9721 L120.559043,2.34745 L112.959899,9.14585 L117.831688,14.4746 L115.917179,16.14585 L120.715617,21.48265 L118.812393,23.15005 L125.669219,30.7251 L129.739446,27.006 L133.258489,30.99145 C132.558489,31.5315 131.796071,32.0397 130.956071,32.5094 C128.411385,33.94965 125.470327,34.77425 122.340605,34.77425 C112.715516,34.77425 104.86529,26.98185 104.86529,17.43 C104.86529,7.87605 112.715516,0.0847 122.340605,0.0847" id="Fill-1" sketch:type="MSShapeGroup"></path>
                <path d="M119.155869,16.33345 L123.311436,12.61925 L127.05335,16.7447 L122.898136,20.4575 L119.155869,16.33345" id="Fill-2" sketch:type="MSShapeGroup"></path>
                <path d="M122.11068,23.46015 L126.266599,19.747 L130.008866,23.8714 L125.8533,27.5856 L122.11068,23.46015" id="Fill-3" sketch:type="MSShapeGroup"></path>
                <path d="M116.182368,9.29005 L120.337935,5.5769 L124.078791,9.7013 L119.923224,13.41445 L116.182368,9.29005" id="Fill-4" sketch:type="MSShapeGroup"></path>
                <path d="M123.80796,7.2912 L126.924635,4.5066 L129.73063,7.5999 L126.613955,10.38555 L123.80796,7.2912" id="Fill-5" sketch:type="MSShapeGroup"></path>
                <path d="M129.345542,20.04835 L132.463275,17.2627 L135.26927,20.3567 L132.152594,23.14165 L129.345542,20.04835" id="Fill-6" sketch:type="MSShapeGroup"></path>
                <path d="M132.087355,26.29655 L135.203325,23.51055 L138.010025,26.60385 L134.89335,29.3888 L132.087355,26.29655" id="Fill-7" sketch:type="MSShapeGroup"></path>
                <path d="M133.342771,11.9763 L135.420554,10.11955 L137.290982,12.18175 L135.214257,14.03815 L133.342771,11.9763" id="Fill-8" sketch:type="MSShapeGroup"></path>
                <path d="M130.68806,5.84885 L132.765844,3.99245 L134.636625,6.05465 L132.558489,7.91105 L130.68806,5.84885" id="Fill-9" sketch:type="MSShapeGroup"></path>
                <path d="M135.999244,18.1034 L138.077028,16.24665 L139.947809,18.3085 L137.870025,20.16525 L135.999244,18.1034" id="Fill-10" sketch:type="MSShapeGroup"></path>
                <path d="M126.680957,13.5121 L129.79728,10.7261 L132.603275,13.8194 L129.487657,16.60435 L126.680957,13.5121" id="Fill-11" sketch:type="MSShapeGroup"></path>
                <path d="M8.32418136,14.4396 L8.18453401,14.4396 L5.5520403,24.3152 L3.39914358,24.3152 L0.168916877,10.2837 L2.40186398,10.2837 L4.63516373,20.7529 L4.77481108,20.7529 L7.36675063,10.2837 L9.14125945,10.2837 L11.9134005,20.7529 L12.0523426,20.7529 L14.0860453,10.2837 L16.4191436,10.2837 L13.1885642,24.3152 L11.0353149,24.3152 L8.32418136,14.4396" id="Fill-12" sketch:type="MSShapeGroup"></path>
                <path d="M25.2546599,22.13785 L25.2546599,23.6418 C24.3575315,24.157 23.1613602,24.55285 21.7253904,24.55285 C18.3759698,24.55285 17.0003023,22.4945 17.0003023,19.36725 C17.0003023,16.3597 18.5357179,14.1827 21.5264987,14.1827 C24.0182872,14.1827 25.5537028,15.78605 25.5537028,19.0113 L25.5537028,19.74315 L19.0541058,19.74315 C19.0541058,22.11755 20.030932,23.16685 22.0847355,23.16685 C23.1613602,23.16685 24.1579345,22.79095 25.2546599,22.13785 L25.2546599,22.13785 Z M19.0943073,18.4177 L23.6592947,18.4177 C23.5605542,16.3394 22.5431738,15.50885 21.4665491,15.50885 C20.2495718,15.50885 19.3129471,16.43915 19.0943073,18.4177 L19.0943073,18.4177 Z" id="Fill-13" sketch:type="MSShapeGroup"></path>
                <path d="M29.4412594,14.91525 C30.0393451,14.5985 31.0560202,14.1827 32.1329975,14.1827 C34.6050378,14.1827 35.9412091,15.88475 35.9412091,19.0519 C35.9412091,22.75175 34.1473048,24.55285 31.2559698,24.55285 C30.1987406,24.55285 28.5638791,24.2165 27.3673552,23.5823 L27.3673552,9.7699 L29.4412594,9.275 L29.4412594,14.91525 L29.4412594,14.91525 Z M29.4215113,22.85045 C30.0590932,23.12765 30.75733,23.16685 31.2559698,23.16685 C32.7314358,23.16685 33.8479093,22.25685 33.8479093,19.0519 C33.8479093,16.53785 32.9306801,15.72655 31.5948615,15.72655 C30.7968262,15.72655 30.219194,15.94425 29.4215113,16.37965 L29.4215113,22.85045 L29.4215113,22.85045 Z" id="Fill-14" sketch:type="MSShapeGroup"></path>
                <path d="M45.0133501,21.3465 L45.1135013,21.3465 L49.3801511,10.2837 L51.8528967,10.2837 L51.8528967,24.3152 L49.6996474,24.3152 L49.6996474,14.14315 L49.5197985,14.14315 L45.4520403,24.3152 L44.1765239,24.3152 L40.1084131,14.3808 L39.9292695,14.3808 L39.9292695,24.3152 L38.1346599,24.3152 L38.1346599,10.2837 L40.5471033,10.2837 L45.0133501,21.3465" id="Fill-15" sketch:type="MSShapeGroup"></path>
                <path d="M54.045995,19.36725 C54.045995,15.904 55.9601511,14.1827 58.5919395,14.1827 C61.2240806,14.1827 63.1385894,15.904 63.1385894,19.36725 C63.1385894,22.75175 61.3238791,24.55285 58.5919395,24.55285 C55.86,24.55285 54.045995,22.75175 54.045995,19.36725 L54.045995,19.36725 Z M61.0445844,19.36725 C61.0445844,16.69605 59.9475063,15.56835 58.5919395,15.56835 C57.275869,15.56835 56.1392947,16.69605 56.1392947,19.36725 C56.1392947,22.0794 57.1767758,23.16685 58.5919395,23.16685 C60.0074559,23.16685 61.0445844,22.0794 61.0445844,19.36725 L61.0445844,19.36725 Z" id="Fill-16" sketch:type="MSShapeGroup"></path>
                <path d="M65.0322922,15.6471 C65.9294207,15.11265 67.8241814,14.1827 70.1160202,14.1827 C72.5097733,14.1827 73.4061965,15.11265 73.4061965,17.1507 L73.4061965,24.3152 L71.3326448,24.3152 L71.3326448,17.6064 C71.3326448,16.04295 70.5557683,15.76575 69.5390932,15.76575 C68.7410579,15.76575 67.7240302,16.12275 67.1061965,16.47835 L67.1061965,24.3152 L65.0322922,24.3152 L65.0322922,15.6471" id="Fill-17" sketch:type="MSShapeGroup"></path>
                <path d="M83.5147607,22.13785 L83.5147607,23.6418 C82.6179849,24.157 81.4221662,24.55285 79.9858438,24.55285 C76.6367758,24.55285 75.2607557,22.4945 75.2607557,19.36725 C75.2607557,16.3597 76.7965239,14.1827 79.7869521,14.1827 C82.2797985,14.1827 83.8155668,15.78605 83.8155668,19.0113 L83.8155668,19.74315 L77.3152645,19.74315 C77.3152645,22.11755 78.2920907,23.16685 80.3455416,23.16685 C81.4221662,23.16685 82.4190932,22.79095 83.5147607,22.13785 L83.5147607,22.13785 Z M77.3547607,18.4177 L81.9204534,18.4177 C81.8213602,16.3394 80.8036272,15.50885 79.7270025,15.50885 C78.5103778,15.50885 77.5744584,16.43915 77.3547607,18.4177 L77.3547607,18.4177 Z" id="Fill-18" sketch:type="MSShapeGroup"></path>
                <path d="M91.5712846,14.51905 L93.7047859,14.51905 L90.095466,24.4139 C89.0981864,27.1453 87.8815617,28.56945 85.5897229,28.56945 L85.5897229,26.94755 C86.9456423,26.94755 87.7821159,25.87795 88.2613602,24.4139 L84.4330479,14.51905 L86.6264987,14.51905 L89.1785894,21.80115 L89.2974307,21.80115 L91.5712846,14.51905" id="Fill-19" sketch:type="MSShapeGroup"></path>
            </g>
        </g>
    </g>
</svg>