<svg width="116" height="47" xmlns="http://www.w3.org/2000/svg">
 <!-- Generator: Sketch 3.3 (11970) - http://www.bohemiancoding.com/sketch -->
 <title>Slice 1</title>
 <desc>Created with Sketch.</desc>
 <defs>
  <radialGradient cx="57.7032432%" cy="87.6744292%" fx="57.7032432%" fy="87.6744292%" r="63.2767568%" id="radialGradient-1">
   <stop stop-color="#52A347" offset="0%"/>
   <stop stop-color="#83B03E" offset="50.2%"/>
   <stop stop-color="#2EA64C" offset="70.59%"/>
   <stop stop-color="#264122" offset="92.94%"/>
   <stop stop-color="#264122" offset="93.33%"/>
  </radialGradient>
  <radialGradient cx="53.2520245%" cy="32.8278509%" fx="53.2520245%" fy="32.8278509%" r="57.4547239%" id="radialGradient-2">
   <stop stop-color="#52A347" offset="0%"/>
   <stop stop-color="#83B03E" offset="50.2%"/>
   <stop stop-color="#2B9940" offset="70.59%"/>
   <stop stop-color="#264122" offset="92.94%"/>
   <stop stop-color="#264122" offset="93.33%"/>
  </radialGradient>
 </defs>
 <g>
  <title>Layer 1</title>
  <g id="Page-1" fill="none" fill-rule="evenodd">
   <g id="Shape-+-Shape-+-Shape-2-Copy">
    <path d="m111.878,15.565l2.738,0c-0.491,0.26795 -1.14799,0.77625 -1.973,1.52375l-2.737,2.73125l1.501,2.09875c1.571,2.18505 2.944,3.85245 4.122,5.00255l-3.916,0c-0.49,-1.1121 -1.129,-2.2425 -1.914,-3.3925l-1.766,-2.58755l1.532,-1.8975c1.373,-1.74397 2.178,-2.90375 2.413,-3.47875l0,0l0,0zm-4.151,1.265l0,8.7975l0.118,0.6612c0.078,0.1151 0.255,0.2111 0.529,0.2876l0,0.345l-3.798,0l0,-0.345l0.53001,-0.2876c0.078,-0.115 0.118,-0.3352 0.118,-0.6612l0,-8.7975l-0.118,-0.6325c-0.078,-0.13397 -0.256,-0.22023 -0.53001,-0.25875l0,-0.37375l3.798,0l0,0.37375c-0.274,0.03795 -0.452,0.12478 -0.529,0.25875l-0.118,0.6325l0,0zm-5.653,0l0,8.7975l0.118,0.6612l0.53,0.2876l0,0.345l-3.8276,0l0,-0.345c0.2744,-0.0765 0.4711,-0.1725 0.5889,-0.2876l0.0877,-0.6612l0,-4.57125l-4.4751,0l0,4.57125l0.1177,0.6612c0.0789,0.1151 0.255,0.2111 0.5294,0.2876l0,0.345l-3.8569,0l0,-0.345c0.3145,-0.0765 0.51,-0.1725 0.5889,-0.2876l0.1177,-0.6612l0,-8.7975l-0.1177,-0.6325c-0.0789,-0.13397 -0.2744,-0.22023 -0.5889,-0.25875l0,-0.37375l3.8569,0l0,0.37375c-0.27499,0.03795 -0.4511,0.12478 -0.5294,0.25875l-0.1177,0.6325l0,3.47875l4.4751,0l0,-3.47875l-0.0877,-0.6325c-0.1178,-0.13397 -0.3145,-0.22023 -0.5889,-0.25875l0,-0.37375l3.8276,0l0,0.37375c-0.275,0.03795 -0.452,0.12478 -0.53,0.25875l-0.118,0.6325l0,0zm13.455,14.0588l-85.2041,0l0,-1.1213l85.2041,0l0,1.1213l0,0zm-31.9737,-14.95005l0,-0.37375l3.3558,0c0.03889,0.5175 0.1772,1.07353 0.4122,1.6675l2.4731,6.785c0.4121,1.1885 0.8143,2.1562 1.2071,2.9038l-2.9442,0l-1.2654,-4.0826l-3.7397,0l-0.7949,2.7026l-0.2355,1.38l-2.1198,0l3.7679,-8.51005c0.3733,-0.90045 0.5594,-1.51398 0.5594,-1.84c0.0012,-0.36398 -0.2249,-0.575 -0.676,-0.6325l0,0l0,0zm1.3838,1.52375l-1.58981,4.5712l3.1796,0l-1.5898,-4.5712l0,0l0,0zm-5.9472,0.575l-0.6483,0l-0.14719,-0.48875c-0.1573,-0.55603 -0.39281,-0.92 -0.7066,-1.0925l-1.6193,-0.20125l-1.5598,0c-0.3539,0 -0.5889,0.0575 -0.7066,0.1725c-0.0978,0.09603 -0.1472,0.26795 -0.1472,0.5175l0,2.7025l0.6477,0c1.8843,0 3.1897,0.18227 3.9157,0.54625c1.0405,0.49853 1.5604,1.47603 1.5604,2.93255c0,1.4185 -0.4122,2.4339 -1.23711,3.0474c-0.726,0.4986 -1.85419,0.7476 -3.3858,0.7476l-4.6512,0l0,-0.345l0.5588,-0.2876l0.08839,-0.6612l0,-8.7975l-0.08839,-0.6325c-0.0783,-0.13397 -0.2644,-0.22023 -0.5588,-0.25875l0,-0.37375l8.6853,0l0,2.4725l0,0l0,0zm-5.535,2.32875l0,4.85875c0,0.3835 0.0689,0.6325 0.206,0.7475c0.1579,0.1535 0.4323,0.23 0.82439,0.23l0.3533,0c0.7466,0 1.2954,-0.2496 1.6493,-0.7475c0.3139,-0.46 0.4711,-1.1977 0.4711,-2.2137c0,-0.9965 -0.1672,-1.7055 -0.5011,-2.12755c-0.3533,-0.49853 -1.011,-0.7475 -1.9726,-0.7475l-1.0304,0l0,0l0,0zm-4.1808,-1.5525c0,1.3225 -0.4121,2.27125 -1.2371,2.84625c-0.7066,0.4985 -1.8054,0.7475 -3.2975,0.7475l-1.1776,0l0,3.22l0.1177,0.6612c0.0589,0.1151 0.245,0.2111 0.5588,0.2876l0,0.345l-3.8274,0l0,-0.345l0.53,-0.2876l0.1177,-0.6612l0,-8.7975l-0.1177,-0.6325c-0.0783,-0.13397 -0.2556,-0.22023 -0.53,-0.25875l0,-0.37375l4.8285,0c1.3148,0 2.2764,0.19147 2.8852,0.575c0.7667,0.49853 1.1494,1.38978 1.1494,2.67375l0,0zm-5.535,-2.44375c-0.1178,0.07648 -0.1766,0.24898 -0.1766,0.5175l0,4.80125l1.1776,0c0.7261,0 1.2366,-0.26852 1.531,-0.805c0.2555,-0.47898 0.3827,-1.2075 0.3827,-2.185c0,-1.62897 -0.6971,-2.44375 -2.0903,-2.44375l-0.2944,0l-0.53,0.115l0,0zm-5.0934,1.6675l-0.6183,0l-0.1472,-0.48875c-0.1961,-0.55603 -0.4416,-0.92 -0.736,-1.0925l-1.5898,-0.20125l-1.2955,0l-0.4711,0.115l-0.1177,0.43125l0,3.5075l1.5309,0c1.0599,0 1.7565,-0.115 2.0904,-0.345l0,1.4375c-0.3333,-0.23 -1.0305,-0.345 -2.0904,-0.345l-1.5309,0l0,4.25495c0,0.3451 0.1177,0.5848 0.3533,0.7188l1.4721,0.1725l0.3238,0l1.5899,-0.23c0.2749,-0.1725 0.491,-0.594 0.6477,-1.265l0.1178,-0.4313l0.736,0l0,2.6451l-8.3909,0l0,-0.345c0.2944,-0.0765 0.4811,-0.1725 0.5594,-0.2876l0.1178,-0.6612l0,-8.7975l-0.1178,-0.6325c-0.0783,-0.13397 -0.265,-0.22023 -0.5594,-0.25875l0,-0.37375l8.1259,0l0,2.4725l0,0zm-10.0396,0l-0.6183,0l-0.1472,-0.48875c-0.1766,-0.55603 -0.4222,-0.92 -0.736,-1.0925l-1.5604,-0.20125l-1.6193,0c-0.3339,0 -0.5694,0.0575 -0.7066,0.1725c-0.0589,0.09603 -0.0883,0.26795 -0.0883,0.5175l0,2.7025l0.6477,0c1.8648,0 3.1697,0.18227 3.9157,0.54625c1.0205,0.49853 1.531,1.47603 1.531,2.93255c0,1.4185 -0.4122,2.4339 -1.2366,3.0474c-0.7066,0.4986 -1.8353,0.7476 -3.3857,0.7476l-4.6813,0l0,-0.345c0.3145,-0.0765 0.5106,-0.1725 0.5889,-0.2876l0.1177,-0.6612l0,-8.7975l-0.1177,-0.6325c-0.0783,-0.13397 -0.2744,-0.22023 -0.5889,-0.25875l0,-0.37375l8.6853,0l0,2.4725l0,0zm-11.7177,-1.5525c-0.3533,-0.24898 -0.9027,-0.37375 -1.6488,-0.37375c-1.1776,0 -2.012,0.42147 -2.5025,1.265c-0.4122,0.72852 -0.6183,1.91648 -0.6183,3.565c0,1.64855 0.2255,2.86525 0.6772,3.65125c0.5494,0.9775 1.4915,1.4663 2.8264,1.4663c0.9815,0 1.9531,-0.2301 2.9147,-0.6901l0.3533,0.7188c-1.1188,0.6704 -2.4337,1.0063 -3.9452,1.0063c-3.6902,0 -5.535,-1.9073 -5.535,-5.7213c0,-4.00545 1.9137,-6.00875 5.7411,-6.00875c1.4721,0 2.6009,0.1725 3.3858,0.5175l0,2.3575l-0.736,0l-0.2061,-0.69c-0.1573,-0.47897 -0.3928,-0.83375 -0.7066,-1.06375l0,0zm6.2416,3.88125l0,4.85875c0,0.3835 0.0589,0.6325 0.1766,0.7475c0.1573,0.1535 0.4417,0.23 0.8538,0.23l0.3239,0c1.4132,0 2.1198,-0.9873 2.1198,-2.9612c0,-0.9965 -0.1667,-1.7055 -0.5005,-2.12755c-0.3728,-0.49853 -1.0405,-0.7475 -2.0021,-0.7475l-0.9715,0l0,0z" id="Shape" fill="#006236"/>
    <path d="m19.28426,13.75375l1.03046,0.92l-13.0132,7.3025l-6.3005,-3.565l0.58883,-1.15l5.71167,3.19125l11.98274,-6.69875l0,0zm-2.6203,-1.46625l1.38376,0.69l-10.7462,6.0375l-5.00507,-2.78875l0.8538,-1.00625l4.15127,2.32875l9.36244,-5.26125l0,0zm4.56345,3.335l0.76548,1.00625l-14.69137,8.25125l-7.09543,-3.9675l0.32386,-1.265l6.77157,3.795l13.92589,-7.82l0,0z" id="Shape" fill="url(#radialGradient-1)"/>
    <path d="m23.34721,19.33125c0.43161,1.18853 0.64771,2.43398 0.64771,3.7375c0,1.30353 -0.2161,2.56852 -0.64771,3.795l-0.29442,0.77683c-0.60826,1.39897 -1.46207,2.645 -2.56142,3.73749c-1.11878,1.07296 -2.39419,1.89751 -3.82741,2.4725c-1.51094,0.6325 -3.07135,0.94875 -4.68122,0.94875c-1.6293,0 -3.1897,-0.31682 -4.68122,-0.94875c-1.39376,-0.57499 -2.65975,-1.39954 -3.79797,-2.4725c-1.11878,-1.09249 -1.97259,-2.33852 -2.56142,-3.73749c-0.62828,-1.47661 -0.94213,-3.00035 -0.94213,-4.57183l0,-0.77625l7.30152,4.05375l15.39797,-8.625l0.64772,1.61l0,0z" id="Shape" fill="url(#radialGradient-2)"/>
   </g>
  </g>
 </g>
</svg>