<svg width="116" height="47" xmlns="http://www.w3.org/2000/svg" xmlns:xlink="http://www.w3.org/1999/xlink"><title>Slice 1</title><desc>Created with Sketch.</desc><defs><path d="M.087 0H116v34.913H.087" id="a"/></defs><title>Layer 1</title><g fill-rule="evenodd" fill="none"><g><g><mask id="b"><use xlink:href="#a"/></mask><path mask="url(#b)" fill="#5CB45A" d="M.03 31.77V35.5S5.915 41 12.223 41c6.292 0 11.672-5.498 11.672-5.498v-3.675c0-.03-5.699 3.63-11.6 3.617C6.264 35.444.03 31.77.03 31.77"/><path mask="url(#b)" fill="#13A85D" d="M23.896 18.06v-.145C23.707 11.308 18.444 6 11.962 6 5.482 6 .22 11.308.045 17.915H.028v11.93s5.277 3.353 12.455 3.353c6.815 0 11.41-3.413 11.41-3.413V18.06"/><path mask="url(#b)" fill="#fff" d="M12.398 24.506c2.436 0 4.393-2.012 4.393-4.506s-1.956-4.52-4.392-4.52c-2.422 0-4.38 2.026-4.38 4.52 0 2.494 1.958 4.506 4.38 4.506"/><path mask="url(#b)" fill="#fff" d="M18.56 32.22c-.29-3.907-2.93-6.97-6.162-6.97-3.25 0-5.917 3.135-6.149 7.102C2.594 31.317 0 29.785 0 29.785v2.028s6.525 3.733 12.398 3.733c5.887 0 11.527-3.544 11.527-3.544v-2.217s-2.842 1.692-5.365 2.436"/></g><path fill="#233540" d="M32.9 16.573v2.435c0 2.042-.115 4.01-.217 5.163h.058c.363-1.18.842-2.435 1.19-3.324l1.61-4.273h2.696v11.215h-2.58v-2.45c0-2.275.1-3.56.173-5.046h-.073c-.334 1.166-.61 2.114-1.03 3.18-.275.757-1.13 2.96-1.74 4.316h-2.653V16.573H32.9"/><path fill="#233540" d="M43.08 16.573v4.244h2.247v-4.244h2.857v11.215h-2.857v-4.42H43.08v4.42h-2.857V16.573h2.857"/><path fill="#233540" d="M56.956 16.573v2.435h-2.378v8.78h-2.885v-8.78h-2.378v-2.435h7.64"/><path fill="#233540" d="M60.074 23.252c.043 1.736 1 2.377 2.262 2.377.812 0 1.522-.176 2.03-.365l.39 2.158c-.74.292-1.855.496-2.943.496-2.9 0-4.495-2.014-4.495-5.514 0-3.762 1.856-6.008 4.278-6.008 2.29 0 3.61 1.896 3.61 5.294 0 .802-.014 1.24-.087 1.56h-5.047zm2.537-2.114c0-1.444-.347-2.567-1.188-2.567-.942 0-1.305 1.445-1.334 2.568h2.523z"/><path fill="#233540" d="M66.454 20.13c0-1.355-.044-2.492-.087-3.557h2.48l.16 1.283h.042c.434-.92 1.23-1.458 2.217-1.458 2.35 0 3.32 2.654 3.32 5.775 0 3.98-1.68 5.79-3.48 5.79-.87 0-1.45-.57-1.754-1.094h-.043v5.322h-2.857v-12.06zm2.856 3.56c0 .38.043.73.145.962.217.686.595.86.913.86 1 0 1.364-1.56 1.364-3.324 0-2.13-.494-3.267-1.335-3.267-.435 0-.855.438-.957.963-.115.22-.13.525-.13.802v3.005z"/><path fill="#13A85D" d="M78.837 16.573v4.477h.304l1.843-4.477h2.972L81.2 21.385c1.073.38 1.624 1.75 1.9 3.21.174.86.61 2.434.942 3.193h-2.856c-.305-.628-.522-1.59-.77-2.728-.26-1.122-.695-1.925-1.39-1.925h-.19v4.652H76.04V16.574h2.8"/><path fill="#13A85D" d="M90.147 27.788l-.16-1.11h-.043c-.58.876-1.407 1.285-2.35 1.285-1.61 0-2.812-1.415-2.812-3.413 0-2.93 2.465-4.142 4.886-4.17v-.25c0-.874-.507-1.515-1.508-1.515-.856 0-1.552.233-2.175.64l-.522-2.01c.58-.366 1.827-.847 3.306-.847 3.247 0 3.77 2.377 3.77 4.652v4.17c0 .89.042 1.81.173 2.568h-2.566zm-.392-5.455c-.957.015-2.262.336-2.262 1.896 0 1.122.58 1.545 1.015 1.545.464 0 .986-.306 1.175-.963.043-.16.072-.35.072-.54v-1.94z"/><path fill="#13A85D" d="M100.31 27.598c-.29.146-1.014.32-1.81.32-2.713 0-4.482-1.968-4.482-5.628 0-3.47 1.943-5.877 4.887-5.877.68 0 1.29.16 1.58.306l-.377 2.36c-.246-.1-.594-.203-1.073-.203-1.363 0-2.175 1.37-2.175 3.31 0 2.042.812 3.282 2.132 3.282.42 0 .768-.074 1.073-.235l.246 2.363"/><path fill="#13A85D" d="M107.17 27.598c-.29.146-1 .32-1.813.32-2.697 0-4.466-1.968-4.466-5.628 0-3.47 1.944-5.877 4.888-5.877.667 0 1.275.16 1.565.306l-.376 2.36c-.232-.1-.58-.203-1.06-.203-1.376 0-2.188 1.37-2.188 3.31 0 2.042.81 3.282 2.145 3.282.406 0 .754-.074 1.058-.235l.247 2.363"/><path fill="#13A85D" d="M113.433 27.788l-.16-1.11h-.042c-.594.876-1.42 1.285-2.348 1.285-1.625 0-2.814-1.415-2.814-3.413 0-2.93 2.466-4.142 4.873-4.17v-.25c0-.874-.492-1.515-1.493-1.515-.856 0-1.552.233-2.19.64l-.52-2.01c.593-.366 1.84-.847 3.32-.847 3.247 0 3.77 2.377 3.77 4.652v4.17c0 .89.042 1.81.173 2.568h-2.567zm-.406-5.455c-.957.015-2.262.336-2.262 1.896 0 1.122.595 1.545 1.03 1.545.45 0 .972-.306 1.175-.963.043-.16.057-.35.057-.54v-1.94z"/></g></g></svg>