<svg width="146" height="146" viewBox="0 0 146 146" xmlns="http://www.w3.org/2000/svg" xmlns:xlink="http://www.w3.org/1999/xlink"><title>Group</title><desc>Created with Sketch.</desc><defs><circle id="a" cx="70" cy="70" r="70"/></defs><g fill="none" fill-rule="evenodd"><g transform="translate(-714 -72) translate(717 75)"><mask id="b"><use xlink:href="#a"/></mask><use stroke-opacity=".191" stroke="#fff" stroke-width="6" fill="#D8D8D8" xlink:href="#a"/><g mask="url(#b)"><path id="Rectangle-path" fill="#ddd" d="M1.908 1h140v140.007h-140z"/><g fill="#eee"><path d="M105.536 107.247c0 5.485 1.097 9.93 2.467 9.93s2.468-4.445 2.468-9.93c0-5.485-1.095-9.93-2.466-9.93-1.37 0-2.467 4.445-2.467 9.93zm3.854 8.937c1.623 0 2.96-3.983 3.054-8.89 0-4.91-1.336-8.984-2.958-8.984s-2.958 3.982-2.958 8.89c-.096 4.91 1.24 8.89 2.863 8.984zm3.5-.002c1.945.096 3.502-3.644 3.502-8.343 0-4.604-1.46-8.44-3.405-8.536-1.85-.096-3.503 3.644-3.503 8.247 0 4.7 1.46 8.535 3.405 8.63zm4.894-1.986c1.947.094 3.54-3.205 3.54-7.257.088-4.15-1.505-7.54-3.363-7.636-1.944-.094-3.537 3.204-3.537 7.257-.088 4.148 1.416 7.54 3.362 7.635zm6.412-3.972c2.2.09 4.036-2.654 4.036-6.224.092-3.57-1.65-6.497-3.853-6.68-2.203-.092-4.038 2.654-4.038 6.223-.09 3.57 1.65 6.498 3.853 6.68zm6.41-4.974c2.457.193 4.535-2.397 4.535-5.66.096-3.26-1.89-6.043-4.343-6.234-2.456-.192-4.535 2.398-4.535 5.66 0 3.357 1.89 6.14 4.347 6.235zm3.874-6.952c2.435.187 4.522-1.87 4.61-4.58.086-2.71-1.827-5.14-4.262-5.325-2.434-.187-4.52 1.87-4.608 4.58-.174 2.71 1.826 5.14 4.26 5.325zm1.47-5.958c2.692.18 5.023-1.44 5.113-3.6.09-2.158-2.063-4.137-4.753-4.317-2.69-.18-5.02 1.35-5.11 3.598-.09 2.16 2.06 4.14 4.75 4.32zm.49-3.006c2.943.29 5.518-1.064 5.61-3 .092-1.936-2.207-3.678-5.242-3.872-3.034-.29-5.517 1.065-5.61 3-.09 1.84 2.3 3.582 5.242 3.872zm.445-2.992c3.312.275 6.057-.55 6.152-1.925.094-1.376-2.46-2.66-5.68-2.934-3.312-.275-6.056.55-6.15 1.925-.19 1.284 2.365 2.66 5.678 2.934z" id="Shape"/></g><path d="M133.394 70.507h.998c0 .273-.09.273-.09.364v5.547c0 1.545 1.36 2.818 3.173 2.818 1.814 0 3.174-1.273 3.174-2.818V70.87c0-.09.18-.09.18-.363h.997L146 76.96l-4.172 6.455h-8.434l-4.172-6.454 4.172-6.452z" fill="#eee"/><path fill="#eee" d="M52.242 86.394h35.53v3.972H52.24z"/><path d="M46.32 70.617l51.32-.22" stroke="#ddd"/><path fill="#eee" d="M34.477 89.373h71.06v51.634h-71.06z"/></g><path d="M72.5 93.5s.59-4.78 7.053-12.807c6.462-8.026 12.647 4.04 3.397 4.04-4.978 0-4.09-7.975-.6-18.595 3.76-11.44 14.507 1.293 5.902 3.727-8.606 2.433-15.057-8.262-15.057-8.262M26.827 123.24s.59-4.78 7.053-12.807c6.462-8.026 12.647 4.038 3.397 4.038-4.978 0-4.09-7.97-.6-18.59 3.76-11.44 14.507 1.29 5.9 3.725-8.604 2.434-15.055-8.26-15.055-8.26M73.106 93.512s-20.7-17.29-14.24-25.316c6.464-8.026 20.354 3.83 11.367 8.182-4.962 2.403-11.658-7.118-8.17-17.737 3.76-11.44-10.247-9.573-10.247-9.573" stroke="#eee" stroke-width="3" stroke-linecap="square" mask="url(#b)"/></g></g></svg>