<svg width="146" height="146" viewBox="0 0 146 146" xmlns="http://www.w3.org/2000/svg" xmlns:xlink="http://www.w3.org/1999/xlink"><title>Userpic Default Rounded</title><desc>Created with Sketch.</desc><defs><circle id="a" cx="70" cy="70" r="70"/></defs><g transform="translate(-97 -72) translate(100 75)" fill="none" fill-rule="evenodd"><mask id="b"><use xlink:href="#a"/></mask><use stroke-opacity=".191" stroke="#fff" stroke-width="6" fill="#D8D8D8" xlink:href="#a"/><g transform="translate(-5 1)" mask="url(#b)"><path id="Rectangle-path" fill="#ddd" d="M6.908 0h139.157v140.007H6.908z"/><path id="Rectangle-path" fill="#eee" d="M46.386 23.83h61.19V84.4h-61.19z"/><path d="M75.007 44.187c0 5.77-4.636 10.426-10.363 10.426-5.727 0-10.363-4.655-10.363-10.426 0-5.772 4.638-10.426 10.365-10.426s10.363 4.656 10.363 10.428z" id="Shape" stroke="#ddd" stroke-width="2" fill="#fff"/><path d="M70.072 44.683c0 2.175-1.786 3.972-3.948 3.972s-3.948-1.797-3.948-3.972 1.786-3.972 3.948-3.972c2.162.097 3.948 1.8 3.948 3.974z" id="Shape" fill="#ddd"/><path d="M66.124 43.194c0 .837-.61 1.49-1.48 1.49-.784 0-1.48-.653-1.48-1.49 0-.838.696-1.49 1.48-1.49s1.48.652 1.48 1.49z" id="Shape" fill="#fff"/><path d="M97.706 44.187c0 5.77-4.636 10.426-10.363 10.426-5.727 0-10.363-4.655-10.363-10.426 0-5.77 4.636-10.425 10.363-10.425 5.727-.093 10.363 4.654 10.363 10.425z" id="Shape" stroke="#ddd" stroke-width="2" fill="#fff"/><path d="M91.784 44.683c0 2.175-1.786 3.972-3.947 3.972-2.162 0-3.948-1.797-3.948-3.972s1.784-3.972 3.946-3.972c2.16.097 3.947 1.8 3.947 3.974z" id="Shape" fill="#ddd"/><path d="M87.837 44.19c0 .836-.61 1.486-1.48 1.486-.785 0-1.48-.65-1.48-1.485 0-.834.608-1.484 1.48-1.484.783-.093 1.48.65 1.48 1.486z" id="Shape" fill="#fff"/><path id="Rectangle-path" fill="#eee" d="M39.477 43.69h6.908v16.88h-6.908zm67.11 0h6.91v16.88h-6.91z"/><path d="M95.482 62.556H58.48c-3.906 0-7.16 3.11-7.16 6.95 0 3.842 3.254 6.952 7.16 6.952h37c3.905 0 7.16-3.11 7.16-6.95 0-3.842-3.255-6.952-7.16-6.952z" id="Shape" stroke="#ddd" stroke-width="2" fill="#fff"/><g fill="#eee"><path d="M40.464 106.246c0 5.485-1.097 9.93-2.467 9.93s-2.468-4.445-2.468-9.93c0-5.484 1.095-9.93 2.466-9.93 1.37 0 2.467 4.446 2.467 9.93zm-3.854 8.937c-1.623 0-2.96-3.982-3.054-8.89 0-4.908 1.336-8.983 2.958-8.983s2.958 3.982 2.958 8.89c.096 4.908-1.24 8.89-2.863 8.983zm-3.5-.003c-1.848.097-3.405-3.643-3.502-8.34 0-4.604 1.46-8.44 3.405-8.535 1.85-.096 3.503 3.643 3.503 8.246 0 4.7-1.557 8.536-3.405 8.63zm-5.88-1.985c-1.948.094-3.452-3.204-3.54-7.257-.09-4.146 1.504-7.54 3.362-7.633 1.946-.094 3.54 3.204 3.54 7.257.088 4.146-1.417 7.54-3.363 7.633zm-5.426-3.972c-2.2.092-4.036-2.654-4.036-6.223-.092-3.57 1.65-6.498 3.853-6.68 2.203-.092 4.038 2.653 4.038 6.222.09 3.57-1.65 6.498-3.853 6.68zm-6.41-4.973c-2.456.192-4.535-2.398-4.535-5.66-.096-3.26 1.89-6.043 4.344-6.235 2.455-.192 4.534 2.398 4.534 5.66 0 3.358-1.89 6.14-4.347 6.236zm-3.874-6.952c-2.435.187-4.522-1.87-4.61-4.58-.086-2.71 1.827-5.14 4.262-5.326 2.435-.187 4.52 1.87 4.608 4.58.174 2.71-1.826 5.14-4.26 5.326zm-1.47-5.96c-2.692.18-5.023-1.44-5.113-3.598-.09-2.158 2.063-4.137 4.753-4.317 2.69-.18 5.022 1.35 5.11 3.598.09 2.16-2.06 4.14-4.75 4.32zm-.49-3.004c-2.943.29-5.518-1.065-5.61-3-.092-1.936 2.207-3.68 5.242-3.872 3.035-.29 5.517 1.064 5.61 3 .09 1.84-2.3 3.582-5.242 3.872zm-.445-2.992c-3.312.275-6.057-.55-6.152-1.926-.094-1.375 2.46-2.66 5.68-2.934 3.312-.275 6.056.55 6.15 1.926.19 1.283-2.365 2.66-5.678 2.934z" id="Shape"/></g><path d="M12.515 69.507h-.997c0 .273.09.273.09.364v5.547c0 1.545-1.36 2.818-3.174 2.818-1.723 0-3.174-1.273-3.174-2.818V69.87c0-.09-.09-.09-.09-.363h-1L0 75.96l4.172 6.455h8.434l4.172-6.454-4.263-6.452z" id="Shape" fill="#eee"/><g fill="#eee"><path d="M110.536 106.246c0 5.485 1.097 9.93 2.467 9.93s2.468-4.445 2.468-9.93c0-5.484-1.095-9.93-2.466-9.93-1.37 0-2.467 4.446-2.467 9.93zm3.854 8.937c1.623 0 2.96-3.982 3.054-8.89 0-4.908-1.336-8.983-2.958-8.983s-2.958 3.982-2.958 8.89c-.096 4.908 1.24 8.89 2.863 8.983zm3.5-.003c1.945.097 3.502-3.643 3.502-8.34 0-4.604-1.46-8.44-3.405-8.535-1.85-.096-3.503 3.643-3.503 8.246 0 4.7 1.46 8.536 3.405 8.63zm4.894-1.985c1.947.094 3.54-3.204 3.54-7.257.088-4.146-1.505-7.54-3.363-7.633-1.944-.094-3.537 3.204-3.537 7.257-.088 4.146 1.416 7.54 3.362 7.633zm6.412-3.972c2.2.092 4.036-2.654 4.036-6.223.092-3.57-1.65-6.498-3.853-6.68-2.203-.092-4.038 2.653-4.038 6.222-.09 3.57 1.65 6.498 3.853 6.68zm6.41-4.973c2.456.192 4.535-2.398 4.535-5.66.096-3.26-1.89-6.043-4.344-6.235-2.455-.192-4.534 2.398-4.534 5.66 0 3.358 1.89 6.14 4.347 6.236zm3.874-6.952c2.435.187 4.522-1.87 4.61-4.58.086-2.71-1.827-5.14-4.262-5.326-2.435-.187-4.52 1.87-4.608 4.58-.174 2.71 1.826 5.14 4.26 5.326zm1.47-5.96c2.692.18 5.023-1.44 5.113-3.598.09-2.158-2.063-4.137-4.753-4.317-2.69-.18-5.022 1.35-5.11 3.598-.09 2.16 2.06 4.14 4.75 4.32zm.49-3.004c2.943.29 5.518-1.065 5.61-3 .092-1.936-2.207-3.68-5.242-3.872-3.035-.29-5.517 1.064-5.61 3-.09 1.84 2.3 3.582 5.242 3.872zm.445-2.992c3.312.275 6.057-.55 6.152-1.926.094-1.375-2.46-2.66-5.68-2.934-3.312-.275-6.056.55-6.15 1.926-.19 1.283 2.365 2.66 5.678 2.934z" id="Shape"/></g><path d="M138.394 69.507h.998c0 .273-.09.273-.09.364v5.547c0 1.545 1.36 2.818 3.173 2.818 1.814 0 3.174-1.273 3.174-2.818V69.87c0-.09.18-.09.18-.363h.997L151 75.96l-4.172 6.455h-8.434l-4.172-6.454 4.172-6.452z" id="Shape" fill="#eee"/><path id="Rectangle-path" fill="#eee" d="M57.242 85.394h35.53v3.972H57.24zM76.98 9.93h1.974v14.894H76.98z"/><path d="M75.007 7.944c0 1.675 1.295 2.98 2.96 2.98 1.666 0 2.96-1.305 2.96-2.98 0-1.583-1.294-2.98-2.96-2.98-1.665 0-2.96 1.304-2.96 2.98z" fill="#eee"/><path fill="#eee" d="M68.098 19.86h19.74v4.964h-19.74z"/><path d="M51.32 69.617l51.32-.22" stroke="#ddd"/><path fill="#eee" d="M39.477 88.373h71.06v51.634h-71.06z"/><ellipse cx="75.5" cy="70.5" rx="64.644" ry="65.535"/></g></g></svg>