<svg width="60" height="60" viewBox="0 0 60 60" xmlns="http://www.w3.org/2000/svg"  xmlns:xlink="http://www.w3.org/1999/xlink">

    <style>
        a {
            cursor: pointer;
        }
    </style>
        <a xlink:href="/" target="_top">

<g fill="none" fill-rule="evenodd">

            <path d="M8.21476319,14.0840225 L7.76457136,14.453277 L11.616185,17.2123388 L11.7064535,17.1182391 L10.3325798,15.2096995 L11.0490717,15.2525158 L9.52141949,13.4627441 L9.91539945,12.9727671 L5.1920059,9.32979099 L5.10173737,9.42389072 L6.93776565,11.9967392 L6.35970029,11.9937536 L8.21476319,14.0840225" id="flash2" fill="#C13335" >
                                            <animate attributeName="opacity" from="1" to="0" dur="1s" begin="overlay.mouseover" end="overlay.mouseout" repeatCount="indefinite" />
                                            <animateMotion from="0,0" to="-10,-10" dur="1s" begin="overlay.mouseover" end="overlay.mouseout" repeatCount="indefinite" />

            </path>
            <path d="M8.01280556,20.0327627 L8.55136768,19.6394092 L6.09393314,18.6702679 L6.51020962,18.0694484 L1.0227618,17.5848491 L0.980664196,17.7168438 L3.21618441,18.6133077 L2.9565224,19.1016075 L5.91793908,19.8412144 L5.46283679,20.4236519 L9.5574075,20.9878163 L9.6146139,20.8741631 L8.01280556,20.0327627" id="flash1" fill="#C13335" >
                        <animate attributeName="opacity" from="1" to="0" dur="1s" begin="overlay.mouseover" end="overlay.mouseout" repeatCount="indefinite" />
                        <animateMotion from="0,0" to="-10,-6" dur="1s" begin="overlay.mouseover" end="overlay.mouseout" repeatCount="indefinite" />


            </path>
            <path d="M20.2681283,14.0840225 L19.8179365,14.453277 L23.6695501,17.2123388 L23.7598186,17.1182391 L22.3859449,15.2096995 L23.1024368,15.2525158 L21.5747846,13.4627441 L21.9687646,12.9727671 L17.245371,9.32979099 L17.1551025,9.42389072 L18.9911308,11.9967392 L18.4130654,11.9937536 L20.2681283,14.0840225" id="flash3" fill="#C13335"  transform="translate(20.457461, 13.271065) scale(-1, 1) translate(-20.457461, -13.271065) ">
        <animate attributeName="opacity" from="1" to="0" dur="1s" begin="overlay.mouseover" end="overlay.mouseout" repeatCount="indefinite" />
        <animateMotion from="0,0" to="10,-10" dur="1s" begin="overlay.mouseover" end="overlay.mouseout" repeatCount="indefinite" />

            </path>
            <path d="M26.2790835,20.0327627 L26.8176456,19.6394092 L24.360211,18.6702679 L24.7764875,18.0694484 L19.2890397,17.5848491 L19.2469421,17.7168438 L21.4824623,18.6133077 L21.2228003,19.1016075 L24.184217,19.8412144 L23.7291147,20.4236519 L27.8236854,20.9878163 L27.8808918,20.8741631 L26.2790835,20.0327627" id="flash4" fill="#C13335"  transform="translate(23.563917, 19.286333) scale(-1, 1) translate(-23.563917, -19.286333) ">
                                    <animate attributeName="opacity" from="1" to="0" dur="1s" begin="overlay.mouseover" end="overlay.mouseout" repeatCount="indefinite" />
                                    <animateMotion from="0,0" to="10,-6" dur="1s" begin="overlay.mouseover" end="overlay.mouseout" repeatCount="indefinite" />

            </path>

<path d="M24.463 35.037c1.177 1.66 2.93 2.24 4.417 2.24 3.716 0 5.016-2.2 5.016-4.855V23.5h-8.298v2.552h5.264v6.12c0 1.87-.702 2.47-2.085 2.47-.887 0-1.775-.518-2.56-1.493l-1.754 1.887zm11.295.177c1.42 1.263 3.243 1.916 5.027 1.916 3.283 0 5.128-1.916 5.128-4.117 0-1.875-1.095-2.956-2.838-3.608l-1.6-.693c-1.278-.47-2.17-.754-2.17-1.57 0-.753.67-1.202 1.824-1.202 1.134 0 1.965.388 2.877 1.06l1.52-1.895c-1.195-1.142-2.796-1.753-4.398-1.753-2.86 0-4.845 1.753-4.845 3.954 0 1.936 1.338 3.077 2.817 3.628l1.703.733c1.277.49 2.047.755 2.047 1.59 0 .795-.608 1.284-1.986 1.284-1.156 0-2.392-.57-3.385-1.385l-1.722 2.06zm15.707-9.233h1.46c1.58 0 2.412.45 2.412 1.754s-.83 1.977-2.412 1.977h-1.46v-3.73zm7.44 10.905l-2.98-5.32c1.398-.63 2.35-1.875 2.35-3.83 0-3.16-2.31-4.14-5.107-4.14h-4.682v13.29h2.98v-4.79h1.56l2.534 4.79h3.344z" fill="#333"/><path d="M12.572 23.476L7.954 38.183c-.187.598.167 1.083.805 1.083h.91c.316 0 .64-.245.728-.55l1.086-3.783 6.27 1.864.067.02.55 1.9c.09.302.413.55.726.55h1.022c.63 0 .988-.49.8-1.084l-4.583-14.525c.828-.567 1.37-1.522 1.37-2.602 0-1.737-1.4-3.147-3.132-3.147-1.73 0-3.132 1.41-3.132 3.146 0 .973.44 1.843 1.132 2.42zm4.686 11.4l-.793-2.74-3.126 1.574 3.918 1.165zm-5.04-2.507l.546-1.898c.078-.27.152-.534.225-.794l2.288 1.152-3.06 1.54zm1.227-4.367c.272-1.006.544-1.997.89-3.076h.102c.448 1.463.778 2.763 1.157 4.158l-2.064-1.04-.085-.042zm-.303-6.947c0-.8.642-1.446 1.43-1.446.79 0 1.432.646 1.432 1.446 0 .8-.64 1.445-1.43 1.445-.79 0-1.432-.645-1.432-1.444z" fill="#C13335"/></g>


    <rect id="overlay" x="0" y="0" width="60" height="60" pointer-events="all" fill="none" />
    </a>
</svg>
