<svg width="160" height="60" viewBox="0 0 160 60" xmlns="http://www.w3.org/2000/svg" xmlns:xlink="http://www.w3.org/1999/xlink">
    <!-- Logo with animation
    * We use SMIL, not CSS translate, because SMIL looks smoother.

    * SMIL works on mouseover/mouseout. We need the animation to start onmouseout the whole picture and end when mouseover.

    * I can't use the root document element.mouseover, because mouseover/out bubbles up, so that moving the pointer
      around the document subelements causes the animation to restart.
      To fix that I added an <rect id="overlay"> below, which is invisible, but covers the whole element and gets all pointer events
      Then I use it for animation.

    * For SMIL to work, the SVG is not <img>, but <embed> (can also be object/iframe)

    * For <a><embed></a>, the embed is not clickable, so we move the <a> here, into the SVG
    -->
    <title>JavaScript.ru</title>
    <style>
        a {
            cursor: pointer;
        }
    </style>
        <a xlink:href="/" target="_top">

    <g fill="none" fill-rule="evenodd">
        <path d="M40.273,14.084 L39.822,14.453 L43.674,17.212 L43.764,17.118 L42.390,15.209 L43.107,15.252 L41.579,13.462 L41.973,12.972 L37.250,9.329 L37.160,9.423 L38.996,11.996 L38.418,11.993 L40.273,14.084" fill="#C13335">
                                <animate attributeName="opacity" from="1" to="0" dur="1s" begin="overlay.mouseover" end="overlay.mouseout" repeatCount="indefinite" />
                                <animateMotion from="0,0" to="-10,-10" dur="1s" begin="overlay.mouseover" end="overlay.mouseout" repeatCount="indefinite" />

        </path>
            <path d="M40.071,20.032 L40.609,19.639 L38.152,18.670 L38.568,18.069 L33.081,17.584 L33.039,17.716 L35.274,18.613 L35.014,19.101 L37.976,19.841 L37.521,20.423 L41.615,20.987 L41.673,20.874 L40.071,20.032" fill="#C13335">
                        <animate attributeName="opacity" from="1" to="0" dur="1s" begin="overlay.mouseover" end="overlay.mouseout" repeatCount="indefinite" />
                        <animateMotion from="0,0" to="-10,-6" dur="1s" begin="overlay.mouseover" end="overlay.mouseout" repeatCount="indefinite" />

            </path>
            <path d="M52.326,14.084 L51.876,14.453 L55.727,17.212 L55.818,17.118 L54.444,15.209 L55.160,15.252 L53.633,13.462 L54.027,12.972 L49.303,9.329 L49.213,9.423 L51.049,11.996 L50.471,11.993 L52.326,14.084" fill="#C13335" transform="translate(52.515, 13.271) scale(-1, 1) translate(-52.515, -13.271) ">

        <animate attributeName="opacity" from="1" to="0" dur="1s" begin="overlay.mouseover" end="overlay.mouseout" repeatCount="indefinite" />
        <animateMotion from="0,0" to="10,-10" dur="1s" begin="overlay.mouseover" end="overlay.mouseout" repeatCount="indefinite" />
            </path>
            <path d="M58.337,20.032 L58.876,19.639 L56.418,18.670 L56.834,18.069 L51.347,17.584 L51.305,17.716 L53.540,18.613 L53.281,19.101 L56.242,19.841 L55.787,20.423 L59.882,20.987 L59.939,20.874 L58.337,20.032" fill="#C13335"  transform="translate(55.622, 19.286) scale(-1, 1) translate(-55.622, -19.286) ">
                                    <animate attributeName="opacity" from="1" to="0" dur="1s" begin="overlay.mouseover" end="overlay.mouseout" repeatCount="indefinite" />
                                    <animateMotion from="0,0" to="10,-6" dur="1s" begin="overlay.mouseover" end="overlay.mouseout" repeatCount="indefinite" />

            </path>

        <path d="M1.463 35.037c1.177 1.66 2.93 2.24 4.417 2.24 3.716 0 5.016-2.2 5.016-4.855V23.5H2.598v2.552h5.264v6.12c0 1.87-.702 2.47-2.085 2.47-.887 0-1.775-.518-2.56-1.493l-1.754 1.887zm15.893-3.61l.31-1.246c.35-1.347.722-2.924 1.053-4.356h.08c.352 1.41.724 3.01 1.075 4.357l.31 1.246h-2.83zm4.252 5.602h3.22l-4.19-13.53h-3.632l-4.19 13.53h3.096l.825-3.217h4.066l.805 3.216zm7.782 0h3.653L37.09 23.5h-3.097l-1.59 6.308c-.392 1.473-.68 2.843-1.094 4.337h-.083c-.392-1.494-.66-2.864-1.074-4.337l-1.61-6.308h-3.22l4.067 13.53zM55.758 35.214c1.42 1.263 3.243 1.916 5.027 1.916 3.283 0 5.128-1.916 5.128-4.117 0-1.875-1.095-2.956-2.838-3.608l-1.6-.693c-1.278-.47-2.17-.754-2.17-1.57 0-.753.67-1.202 1.824-1.202 1.134 0 1.965.388 2.877 1.06l1.52-1.895c-1.195-1.142-2.796-1.753-4.398-1.753-2.86 0-4.845 1.753-4.845 3.954 0 1.936 1.338 3.077 2.817 3.628l1.703.733c1.277.49 2.047.755 2.047 1.59 0 .795-.608 1.284-1.986 1.284-1.156 0-2.392-.57-3.385-1.385l-1.722 2.06zm12.263-4.892c0 4.464 2.838 6.808 6.243 6.808 1.662 0 3.08-.673 4.176-1.957l-1.643-1.814c-.65.712-1.4 1.18-2.35 1.18-1.988 0-3.366-1.59-3.366-4.32 0-2.67 1.38-4.28 3.244-4.28.953 0 1.642.388 2.27.958l1.642-1.854c-.892-.877-2.23-1.692-3.912-1.692-3.527 0-6.303 2.568-6.303 6.97zm15.445-4.34h1.46c1.58 0 2.412.447 2.412 1.752 0 1.304-.83 1.977-2.412 1.977h-1.46v-3.73zm7.44 10.903l-2.98-5.32c1.398-.63 2.35-1.875 2.35-3.83 0-3.16-2.31-4.14-5.107-4.14h-4.682v13.29h2.98v-4.79h1.56l2.534 4.79h3.344zm1.823 0h9.16v-2.527h-3.08v-8.234h3.08v-2.528h-9.16v2.528h3.08v8.234h-3.08v2.527zm12.16 0h2.98V32.38h1.845c2.797 0 5.17-1.385 5.17-4.503 0-3.22-2.312-4.28-5.17-4.28h-4.824v13.288zm2.98-6.89v-4.014h1.663c1.582 0 2.413.51 2.413 1.897 0 1.385-.77 2.12-2.412 2.12h-1.66zm12.263 6.89h3v-10.76h3.953v-2.53H116.18v2.53h3.95v10.76zm8.972-2.14c0 1.345.953 2.385 2.35 2.385 1.4 0 2.353-1.04 2.353-2.385 0-1.345-.953-2.405-2.352-2.405-1.398 0-2.35 1.06-2.35 2.405zm11.27-8.764h1.46c1.58 0 2.412.45 2.412 1.754s-.83 1.977-2.41 1.977h-1.46v-3.73zm7.44 10.905l-2.98-5.32c1.4-.63 2.35-1.875 2.35-3.83 0-3.16-2.31-4.14-5.106-4.14h-4.682v13.29h2.98v-4.79h1.56l2.533 4.79h3.345zm1.62-5.116c0 3.444 1.602 5.36 4.825 5.36 3.203 0 4.743-1.916 4.743-5.36v-8.174h-2.878v8.48c0 1.59-.608 2.465-1.865 2.465-1.256 0-1.844-.875-1.844-2.465v-8.48h-2.98v8.174z" fill="#333" />
        <path d="M44.63 23.476l-4.617 14.707c-.188.598.166 1.083.804 1.083h.912c.314 0 .64-.245.727-.55l1.085-3.783 6.27 1.864.067.02.55 1.9c.088.302.41.55.725.55h1.022c.63 0 .988-.49.8-1.084l-4.583-14.525c.827-.567 1.37-1.522 1.37-2.602 0-1.737-1.4-3.147-3.132-3.147-1.73 0-3.132 1.41-3.132 3.146 0 .973.44 1.843 1.13 2.42zm4.687 11.4l-.794-2.74-3.126 1.574 3.92 1.165zm-5.04-2.507l.545-1.898c.078-.27.153-.534.225-.794l2.29 1.152-3.06 1.54zm1.226-4.367c.272-1.006.545-1.997.89-3.076h.103c.447 1.463.777 2.763 1.157 4.158l-2.065-1.04-.085-.042zm-.302-6.947c0-.8.643-1.446 1.432-1.446.79 0 1.43.646 1.43 1.446 0 .8-.64 1.445-1.43 1.445-.79 0-1.43-.645-1.43-1.444z" fill="#C13335" />
    </g>
    <rect id="overlay" x="0" y="0" width="160" height="60" pointer-events="all" fill="none" />
    </a>
</svg>
