<?xml version="1.0" encoding="UTF-8" standalone="no"?>
<svg width="146px" height="146px" viewBox="0 0 146 146" version="1.1" xmlns="http://www.w3.org/2000/svg" xmlns:xlink="http://www.w3.org/1999/xlink" xmlns:sketch="http://www.bohemiancoding.com/sketch/ns">
    <!-- Generator: Sketch 3.1.1 (8761) - http://www.bohemiancoding.com/sketch -->
    <title>Userpic Default Rounded</title>
    <desc>Created with Sketch.</desc>
    <defs>
        <circle id="path-1" cx="70" cy="70" r="70"></circle>
    </defs>
    <g id="Account" stroke="none" stroke-width="1" fill="none" fill-rule="evenodd" sketch:type="MSPage">
        <g id="Account-Helpers" sketch:type="MSArtboardGroup" transform="translate(-97.000000, -72.000000)">
            <g id="Userpic-Default-Rounded" sketch:type="MSLayerGroup" transform="translate(100.000000, 75.000000)">
                <mask id="mask-2" sketch:name="Oval 1" fill="white">
                    <use xlink:href="#path-1"></use>
                </mask>
                <use id="Oval-1" stroke-opacity="0.19103827" stroke="#FFFFFF" stroke-width="6" fill="#D8D8D8" sketch:type="MSShapeGroup" xlink:href="#path-1"></use>
                <g id="Userpic" mask="url(#mask-2)">
                    <g transform="translate(-5.000000, 1.000000)">
                        <rect id="Rectangle-path" stroke="none" fill="#DDDDDD" fill-rule="evenodd" sketch:type="MSShapeGroup" x="6.90849673" y="0" width="139.156863" height="140.007042"></rect>
                        <rect id="Rectangle-path" stroke="none" fill="#EEEEEE" fill-rule="evenodd" sketch:type="MSShapeGroup" x="46.3856209" y="23.8309859" width="61.1895425" height="60.5704225"></rect>
                        <path d="M75.0065359,44.1866197 C75.0065359,49.9581866 70.370571,54.6126761 64.6437908,54.6126761 C58.9170107,54.6126761 54.2810458,49.9581866 54.2810458,44.1866197 C54.2810458,38.4150528 58.9170107,33.7605634 64.6437908,33.7605634 C70.370571,33.7605634 75.0065359,38.4150528 75.0065359,44.1866197 L75.0065359,44.1866197 Z" id="Shape" stroke="#DDDDDD" stroke-width="2" fill="#FFFFFF" fill-rule="evenodd" sketch:type="MSShapeGroup"></path>
                        <path d="M70.0718954,44.6830986 C70.0718954,46.8581489 68.2860255,48.6549296 66.124183,48.6549296 C63.9623405,48.6549296 62.1764706,46.8581489 62.1764706,44.6830986 C62.1764706,42.5080483 63.9623405,40.7112676 66.124183,40.7112676 C68.2860255,40.805835 70.0718954,42.5080483 70.0718954,44.6830986 L70.0718954,44.6830986 Z" id="Shape" stroke="none" fill="#DDDDDD" fill-rule="evenodd" sketch:type="MSShapeGroup"></path>
                        <path d="M66.124183,43.193662 C66.124183,44.0314701 65.5146098,44.6830986 64.6437908,44.6830986 C63.8600538,44.6830986 63.1633987,44.0314701 63.1633987,43.193662 C63.1633987,42.3558539 63.8600538,41.7042254 64.6437908,41.7042254 C65.4275279,41.7042254 66.124183,42.3558539 66.124183,43.193662 L66.124183,43.193662 Z" id="Shape" stroke="none" fill="#FFFFFF" fill-rule="evenodd" sketch:type="MSShapeGroup"></path>
                        <path d="M97.7058824,44.1872927 C97.7058824,49.9584871 93.0699174,54.6126761 87.3431373,54.6126761 C81.6163571,54.6126761 76.9803922,49.9584871 76.9803922,44.1872927 C76.9803922,38.4160983 81.6163571,33.7619093 87.3431373,33.7619093 C93.0699174,33.6688256 97.7058824,38.4160983 97.7058824,44.1872927 L97.7058824,44.1872927 Z" id="Shape" stroke="#DDDDDD" stroke-width="2" fill="#FFFFFF" fill-rule="evenodd" sketch:type="MSShapeGroup"></path>
                        <path d="M91.7843137,44.6830986 C91.7843137,46.8581489 89.9984438,48.6549296 87.8366013,48.6549296 C85.6747588,48.6549296 83.8888889,46.8581489 83.8888889,44.6830986 C83.8888889,42.5080483 85.6747588,40.7112676 87.8366013,40.7112676 C89.9984438,40.805835 91.7843137,42.5080483 91.7843137,44.6830986 L91.7843137,44.6830986 Z" id="Shape" stroke="none" fill="#DDDDDD" fill-rule="evenodd" sketch:type="MSShapeGroup"></path>
                        <path d="M87.8366013,44.1905544 C87.8366013,45.0261492 87.2270281,45.6760563 86.3562092,45.6760563 C85.5724721,45.6760563 84.875817,45.0261492 84.875817,44.1905544 C84.875817,43.3549595 85.4853902,42.7050524 86.3562092,42.7050524 C87.1399462,42.6122085 87.8366013,43.3549595 87.8366013,44.1905544 L87.8366013,44.1905544 Z" id="Shape" stroke="none" fill="#FFFFFF" fill-rule="evenodd" sketch:type="MSShapeGroup"></path>
                        <rect id="Rectangle-path" stroke="none" fill="#EEEEEE" fill-rule="evenodd" sketch:type="MSShapeGroup" x="39.4771242" y="43.6901408" width="6.90849673" height="16.8802817"></rect>
                        <rect id="Rectangle-path" stroke="none" fill="#EEEEEE" fill-rule="evenodd" sketch:type="MSShapeGroup" x="106.588235" y="43.6901408" width="6.90849673" height="16.8802817"></rect>
                        <path d="M95.4817183,62.556338 L58.479066,62.556338 C54.5742635,62.556338 51.3202614,65.6658636 51.3202614,69.5070423 C51.3202614,73.3482209 54.5742635,76.4577465 58.479066,76.4577465 L95.4817183,76.4577465 C99.3865208,76.4577465 102.640523,73.3482209 102.640523,69.5070423 C102.640523,65.6658636 99.3865208,62.556338 95.4817183,62.556338 L95.4817183,62.556338 Z" id="Shape" stroke="#DDDDDD" stroke-width="2" fill="#FFFFFF" fill-rule="evenodd" sketch:type="MSShapeGroup"></path>
                        <g id="Group" stroke="none" stroke-width="1" fill="none" fill-rule="evenodd" sketch:type="MSLayerGroup" transform="translate(2.960784, 80.429577)">
                            <path d="M37.503268,25.8169014 C37.503268,31.3018109 36.4066812,35.7464789 35.0359477,35.7464789 C33.6652142,35.7464789 32.5686275,31.3018109 32.5686275,25.8169014 C32.5686275,20.331992 33.6652142,15.8873239 35.0359477,15.8873239 C36.4066812,15.8873239 37.503268,20.331992 37.503268,25.8169014 L37.503268,25.8169014 Z" id="Shape" fill="#EEEEEE" sketch:type="MSShapeGroup"></path>
                            <path d="M33.6485796,34.7535211 C32.0262439,34.7535211 30.6902028,30.7714004 30.5947712,25.8632051 C30.5947712,20.9550099 31.9308124,16.8802817 33.5531481,16.8802817 C35.1754838,16.8802817 36.511525,20.8624024 36.511525,25.7705977 C36.6069565,30.678793 35.2709153,34.6609137 33.6485796,34.7535211 L33.6485796,34.7535211 Z" id="Shape" fill="#EEEEEE" sketch:type="MSShapeGroup"></path>
                            <path d="M30.1499586,34.7517175 C28.3012059,34.8476077 26.7443616,31.1078901 26.6470588,26.4092706 C26.6470588,21.8065412 28.1066004,17.9709334 30.0526558,17.8750432 C31.9014085,17.779153 33.5555556,21.5188706 33.5555556,26.1216 C33.5555556,30.8202195 31.9987112,34.6558273 30.1499586,34.7517175 L30.1499586,34.7517175 Z" id="Shape" fill="#EEEEEE" sketch:type="MSShapeGroup"></path>
                            <path d="M24.2681199,32.7656351 C22.3216089,32.8598783 20.8174868,29.5613664 20.729009,25.5089089 C20.6405312,21.3622083 22.2331311,17.9694532 24.0911644,17.87521 C26.0376754,17.7809668 27.6302753,21.0794787 27.6302753,25.1319361 C27.7187531,29.2786368 26.2146309,32.6713919 24.2681199,32.7656351 L24.2681199,32.7656351 Z" id="Shape" fill="#EEEEEE" sketch:type="MSShapeGroup"></path>
                            <path d="M18.8433608,28.793552 C16.6419184,28.8850698 14.8073831,26.1395367 14.8073831,22.5703437 C14.7156564,19.0011507 16.4584649,16.0725821 18.6599072,15.8895466 C20.8613496,15.7980288 22.6958848,18.5435619 22.6958848,22.1127549 C22.7876116,25.6819479 21.0448031,28.6105164 18.8433608,28.793552 L18.8433608,28.793552 Z" id="Shape" fill="#EEEEEE" sketch:type="MSShapeGroup"></path>
                            <path d="M12.4326796,23.8209737 C9.97675455,24.0128361 7.89866412,21.4226938 7.89866412,18.161033 C7.80420547,14.8993723 9.78783724,12.1173675 12.2437623,11.9255052 C14.6996873,11.7336428 16.7777778,14.3237851 16.7777778,17.5854458 C16.7777778,20.9430378 14.8886047,23.7250425 12.4326796,23.8209737 L12.4326796,23.8209737 Z" id="Shape" fill="#EEEEEE" sketch:type="MSShapeGroup"></path>
                            <path d="M8.55894125,16.8684826 C6.12432639,17.0553878 4.03751366,14.9994299 3.95056313,12.2893035 C3.8636126,9.5791771 5.77652427,7.14940862 8.21113913,6.96250335 C10.645754,6.77559808 12.7325667,8.83155603 12.8195172,11.5416824 C12.9934183,14.2518088 10.9935561,16.6815773 8.55894125,16.8684826 L8.55894125,16.8684826 Z" id="Shape" fill="#EEEEEE" sketch:type="MSShapeGroup"></path>
                            <path d="M7.08783988,10.9088809 C4.39769265,11.0887822 2.06623172,9.4696705 1.97656014,7.31085488 C1.88688857,5.15203925 4.03900635,3.17312493 6.72915358,2.99322363 C9.41930081,2.81332233 11.7507617,4.3424834 11.8404333,6.59124967 C11.9301049,8.75006529 9.77798711,10.7289796 7.08783988,10.9088809 L7.08783988,10.9088809 Z" id="Shape" fill="#EEEEEE" sketch:type="MSShapeGroup"></path>
                            <path d="M6.59899643,7.90446477 C3.65635836,8.19484406 1.08155005,6.83974071 0.989592614,4.90387879 C0.897635175,2.96801687 3.19657116,1.22574114 6.23116667,1.03215495 C9.26576218,0.741775663 11.748613,2.09687901 11.8405705,4.03274093 C11.9325279,5.87180975 9.54163449,7.61408548 6.59899643,7.90446477 L6.59899643,7.90446477 Z" id="Shape" fill="#EEEEEE" sketch:type="MSShapeGroup"></path>
                            <path d="M6.15451926,4.91208686 C2.84191859,5.18714638 0.0971923198,4.3619678 0.00254658645,2.98667017 C-0.0920991469,1.61137253 2.46333565,0.327761402 5.68129059,0.0527018751 C8.99389126,-0.222357652 11.7386175,0.60282093 11.8332633,1.97811857 C12.0225547,3.26172969 9.46711992,4.63702733 6.15451926,4.91208686 L6.15451926,4.91208686 Z" id="Shape" fill="#EEEEEE" sketch:type="MSShapeGroup"></path>
                        </g>
                        <path d="M12.5153153,69.5070423 L11.5177177,69.5070423 C11.5177177,69.779756 11.6084084,69.779756 11.6084084,69.8706606 L11.6084084,75.4158401 C11.6084084,76.961218 10.248048,78.2338822 8.43423423,78.2338822 C6.71111111,78.2338822 5.26006006,76.961218 5.26006006,75.4158401 L5.26006006,69.8706606 C5.26006006,69.779756 5.16936937,69.779756 5.16936937,69.5070423 L4.17177177,69.5070423 L0,75.9612676 L4.17177177,82.415493 L12.606006,82.415493 L16.7777778,75.9612676 L12.5153153,69.5070423 L12.5153153,69.5070423 Z" id="Shape" stroke="none" fill="#EEEEEE" fill-rule="evenodd" sketch:type="MSShapeGroup"></path>
                        <g id="Group" stroke="none" stroke-width="1" fill="none" fill-rule="evenodd" sketch:type="MSLayerGroup" transform="translate(110.535948, 80.429577)">
                            <path d="M0,25.8169014 C0,31.3018109 1.09658678,35.7464789 2.46732026,35.7464789 C3.83805374,35.7464789 4.93464052,31.3018109 4.93464052,25.8169014 C4.93464052,20.331992 3.83805374,15.8873239 2.46732026,15.8873239 C1.09658678,15.8873239 0,20.331992 0,25.8169014 L0,25.8169014 Z" id="Shape" fill="#EEEEEE" sketch:type="MSShapeGroup"></path>
                            <path d="M3.85468834,34.7535211 C5.47702405,34.7535211 6.81306522,30.7714004 6.90849673,25.8632051 C6.90849673,20.9550099 5.57245556,16.8802817 3.95011985,16.8802817 C2.32778414,16.8802817 0.991742966,20.8624024 0.991742966,25.7705977 C0.896311453,30.678793 2.23235263,34.6609137 3.85468834,34.7535211 L3.85468834,34.7535211 Z" id="Shape" fill="#EEEEEE" sketch:type="MSShapeGroup"></path>
                            <path d="M7.3533094,34.7517175 C9.29936482,34.8476077 10.8562092,31.1078901 10.8562092,26.4092706 C10.8562092,21.8065412 9.39666759,17.9709334 7.45061217,17.8750432 C5.60185952,17.779153 3.94771242,21.5188706 3.94771242,26.1216 C3.94771242,30.8202195 5.40725398,34.6558273 7.3533094,34.7517175 L7.3533094,34.7517175 Z" id="Shape" fill="#EEEEEE" sketch:type="MSShapeGroup"></path>
                            <path d="M12.2482199,32.7656351 C14.194731,32.8598783 15.7873309,29.5613664 15.7873309,25.5089089 C15.8758087,21.3622083 14.2832087,17.9694532 12.4251755,17.87521 C10.4786645,17.7809668 8.88606455,21.0794787 8.88606455,25.1319361 C8.79758677,29.2786368 10.3017089,32.6713919 12.2482199,32.7656351 L12.2482199,32.7656351 Z" id="Shape" fill="#EEEEEE" sketch:type="MSShapeGroup"></path>
                            <path d="M18.6599072,28.793552 C20.8613496,28.8850698 22.6958848,26.1395367 22.6958848,22.5703437 C22.7876116,19.0011507 21.0448031,16.0725821 18.8433608,15.8895466 C16.6419184,15.7980288 14.8073831,18.5435619 14.8073831,22.1127549 C14.7156564,25.6819479 16.4584649,28.6105164 18.6599072,28.793552 L18.6599072,28.793552 Z" id="Shape" fill="#EEEEEE" sketch:type="MSShapeGroup"></path>
                            <path d="M25.0705884,23.8209737 C27.5265134,24.0128361 29.6046039,21.4226938 29.6046039,18.161033 C29.6990625,14.8993723 27.7154307,12.1173675 25.2595057,11.9255052 C22.8035806,11.7336428 20.7254902,14.3237851 20.7254902,17.5854458 C20.7254902,20.9430378 22.6146633,23.7250425 25.0705884,23.8209737 L25.0705884,23.8209737 Z" id="Shape" fill="#EEEEEE" sketch:type="MSShapeGroup"></path>
                            <path d="M28.9443267,16.8684826 C31.3789416,17.0553878 33.4657543,14.9994299 33.5527048,12.2893035 C33.6396554,9.5791771 31.7267437,7.14940862 29.2921288,6.96250335 C26.857514,6.77559808 24.7707013,8.83155603 24.6837507,11.5416824 C24.5098497,14.2518088 26.5097119,16.6815773 28.9443267,16.8684826 L28.9443267,16.8684826 Z" id="Shape" fill="#EEEEEE" sketch:type="MSShapeGroup"></path>
                            <path d="M30.4154281,10.9088809 C33.1055753,11.0887822 35.4370363,9.4696705 35.5267078,7.31085488 C35.6163794,5.15203925 33.4642616,3.17312493 30.7741144,2.99322363 C28.0839672,2.81332233 25.7525062,4.3424834 25.6628347,6.59124967 C25.5731631,8.75006529 27.7252809,10.7289796 30.4154281,10.9088809 L30.4154281,10.9088809 Z" id="Shape" fill="#EEEEEE" sketch:type="MSShapeGroup"></path>
                            <path d="M30.9042715,7.90446477 C33.8469096,8.19484406 36.4217179,6.83974071 36.5136754,4.90387879 C36.6056328,2.96801687 34.3066968,1.22574114 31.2721013,1.03215495 C28.2375058,0.741775663 25.7546549,2.09687901 25.6626975,4.03274093 C25.5707401,5.87180975 27.9616335,7.61408548 30.9042715,7.90446477 L30.9042715,7.90446477 Z" id="Shape" fill="#EEEEEE" sketch:type="MSShapeGroup"></path>
                            <path d="M31.3487487,4.91208686 C34.6613494,5.18714638 37.4060757,4.3619678 37.5007214,2.98667017 C37.5953671,1.61137253 35.0399323,0.327761402 31.8219774,0.0527018751 C28.5093767,-0.222357652 25.7646504,0.60282093 25.6700047,1.97811857 C25.4807132,3.26172969 28.0361481,4.63702733 31.3487487,4.91208686 L31.3487487,4.91208686 Z" id="Shape" fill="#EEEEEE" sketch:type="MSShapeGroup"></path>
                        </g>
                        <path d="M138.393994,69.5070423 L139.391592,69.5070423 C139.391592,69.779756 139.300901,69.779756 139.300901,69.8706606 L139.300901,75.4158401 C139.300901,76.961218 140.661261,78.2338822 142.475075,78.2338822 C144.288889,78.2338822 145.649249,76.961218 145.649249,75.4158401 L145.649249,69.8706606 C145.649249,69.779756 145.830631,69.779756 145.830631,69.5070423 L146.828228,69.5070423 L151,75.9612676 L146.828228,82.415493 L138.393994,82.415493 L134.222222,75.9612676 L138.393994,69.5070423 L138.393994,69.5070423 Z" id="Shape" stroke="none" fill="#EEEEEE" fill-rule="evenodd" sketch:type="MSShapeGroup"></path>
                        <rect id="Rectangle-path" stroke="none" fill="#EEEEEE" fill-rule="evenodd" sketch:type="MSShapeGroup" x="57.2418301" y="85.3943662" width="35.5294118" height="3.97183099"></rect>
                        <rect id="Rectangle-path" stroke="none" fill="#EEEEEE" fill-rule="evenodd" sketch:type="MSShapeGroup" x="76.9803922" y="9.92957746" width="1.97385621" height="14.8943662"></rect>
                        <path d="M75.0065359,7.94366197 C75.0065359,9.61927817 76.3018791,10.9225352 77.9673203,10.9225352 C79.6327614,10.9225352 80.9281046,9.61927817 80.9281046,7.94366197 C80.9281046,6.36113556 79.6327614,4.96478873 77.9673203,4.96478873 C76.3018791,4.96478873 75.0065359,6.26804577 75.0065359,7.94366197 L75.0065359,7.94366197 Z" id="Shape" stroke="none" fill="#EEEEEE" fill-rule="evenodd" sketch:type="MSShapeGroup"></path>
                        <rect id="Rectangle-path" stroke="none" fill="#EEEEEE" fill-rule="evenodd" sketch:type="MSShapeGroup" x="68.0980392" y="19.8591549" width="19.7385621" height="4.96478873"></rect>
                        <path d="M51.3202614,69.6173709 L102.640523,69.3967136" id="Shape" stroke="#DDDDDD" stroke-width="1" fill="none" sketch:type="MSShapeGroup"></path>
                        <rect id="Rectangle-path" stroke="none" fill="#EEEEEE" fill-rule="evenodd" sketch:type="MSShapeGroup" x="39.4771242" y="88.3732394" width="71.0588235" height="51.6338028"></rect>
                        <ellipse id="Oval" stroke="none" fill="none" sketch:type="MSShapeGroup" cx="75.5" cy="70.5" rx="64.6437908" ry="65.5352113"></ellipse>
                    </g>
                </g>
            </g>
        </g>
    </g>
</svg>