<?xml version="1.0" encoding="UTF-8" standalone="no"?>
<svg width="146px" height="146px" viewBox="0 0 146 146" version="1.1" xmlns="http://www.w3.org/2000/svg" xmlns:xlink="http://www.w3.org/1999/xlink" xmlns:sketch="http://www.bohemiancoding.com/sketch/ns">
    <!-- Generator: Sketch 3.1.1 (8761) - http://www.bohemiancoding.com/sketch -->
    <title>Group</title>
    <desc>Created with Sketch.</desc>
    <defs>
        <circle id="path-1" cx="70" cy="70" r="70"></circle>
    </defs>
    <g id="Account" stroke="none" stroke-width="1" fill="none" fill-rule="evenodd" sketch:type="MSPage">
        <g id="Account-Helpers" sketch:type="MSArtboardGroup" transform="translate(-714.000000, -72.000000)">
            <g id="Oval-1-+-Userpic" sketch:type="MSLayerGroup" transform="translate(717.000000, 75.000000)">
                <g id="Group">
                    <mask id="mask-2" sketch:name="Oval 1" fill="white">
                        <use xlink:href="#path-1"></use>
                    </mask>
                    <use id="Oval-1" stroke-opacity="0.19103827" stroke="#FFFFFF" stroke-width="6" fill="#D8D8D8" sketch:type="MSShapeGroup" xlink:href="#path-1"></use>
                    <g id="Userpic" mask="url(#mask-2)">
                        <g transform="translate(2.000000, 1.000000)">
                            <rect id="Rectangle-path" stroke="none" fill="#DDDDDD" fill-rule="evenodd" sketch:type="MSShapeGroup" x="-0.091503268" y="0" width="140" height="140.007042"></rect>
                            <g id="Group" stroke="none" stroke-width="1" fill="none" fill-rule="evenodd" sketch:type="MSLayerGroup" transform="translate(103.535948, 80.429577)">
                                <path d="M0,25.8169014 C0,31.3018109 1.09658678,35.7464789 2.46732026,35.7464789 C3.83805374,35.7464789 4.93464052,31.3018109 4.93464052,25.8169014 C4.93464052,20.331992 3.83805374,15.8873239 2.46732026,15.8873239 C1.09658678,15.8873239 0,20.331992 0,25.8169014 L0,25.8169014 Z" id="Shape" fill="#EEEEEE" sketch:type="MSShapeGroup"></path>
                                <path d="M3.85468834,34.7535211 C5.47702405,34.7535211 6.81306522,30.7714004 6.90849673,25.8632051 C6.90849673,20.9550099 5.57245556,16.8802817 3.95011985,16.8802817 C2.32778414,16.8802817 0.991742966,20.8624024 0.991742966,25.7705977 C0.896311453,30.678793 2.23235263,34.6609137 3.85468834,34.7535211 L3.85468834,34.7535211 Z" id="Shape" fill="#EEEEEE" sketch:type="MSShapeGroup"></path>
                                <path d="M7.3533094,34.7517175 C9.29936482,34.8476077 10.8562092,31.1078901 10.8562092,26.4092706 C10.8562092,21.8065412 9.39666759,17.9709334 7.45061217,17.8750432 C5.60185952,17.779153 3.94771242,21.5188706 3.94771242,26.1216 C3.94771242,30.8202195 5.40725398,34.6558273 7.3533094,34.7517175 L7.3533094,34.7517175 Z" id="Shape" fill="#EEEEEE" sketch:type="MSShapeGroup"></path>
                                <path d="M12.2482199,32.7656351 C14.194731,32.8598783 15.7873309,29.5613664 15.7873309,25.5089089 C15.8758087,21.3622083 14.2832087,17.9694532 12.4251755,17.87521 C10.4786645,17.7809668 8.88606455,21.0794787 8.88606455,25.1319361 C8.79758677,29.2786368 10.3017089,32.6713919 12.2482199,32.7656351 L12.2482199,32.7656351 Z" id="Shape" fill="#EEEEEE" sketch:type="MSShapeGroup"></path>
                                <path d="M18.6599072,28.793552 C20.8613496,28.8850698 22.6958848,26.1395367 22.6958848,22.5703437 C22.7876116,19.0011507 21.0448031,16.0725821 18.8433608,15.8895466 C16.6419184,15.7980288 14.8073831,18.5435619 14.8073831,22.1127549 C14.7156564,25.6819479 16.4584649,28.6105164 18.6599072,28.793552 L18.6599072,28.793552 Z" id="Shape" fill="#EEEEEE" sketch:type="MSShapeGroup"></path>
                                <path d="M25.0705884,23.8209737 C27.5265134,24.0128361 29.6046039,21.4226938 29.6046039,18.161033 C29.6990625,14.8993723 27.7154307,12.1173675 25.2595057,11.9255052 C22.8035806,11.7336428 20.7254902,14.3237851 20.7254902,17.5854458 C20.7254902,20.9430378 22.6146633,23.7250425 25.0705884,23.8209737 L25.0705884,23.8209737 Z" id="Shape" fill="#EEEEEE" sketch:type="MSShapeGroup"></path>
                                <path d="M28.9443267,16.8684826 C31.3789416,17.0553878 33.4657543,14.9994299 33.5527048,12.2893035 C33.6396554,9.5791771 31.7267437,7.14940862 29.2921288,6.96250335 C26.857514,6.77559808 24.7707013,8.83155603 24.6837507,11.5416824 C24.5098497,14.2518088 26.5097119,16.6815773 28.9443267,16.8684826 L28.9443267,16.8684826 Z" id="Shape" fill="#EEEEEE" sketch:type="MSShapeGroup"></path>
                                <path d="M30.4154281,10.9088809 C33.1055753,11.0887822 35.4370363,9.4696705 35.5267078,7.31085488 C35.6163794,5.15203925 33.4642616,3.17312493 30.7741144,2.99322363 C28.0839672,2.81332233 25.7525062,4.3424834 25.6628347,6.59124967 C25.5731631,8.75006529 27.7252809,10.7289796 30.4154281,10.9088809 L30.4154281,10.9088809 Z" id="Shape" fill="#EEEEEE" sketch:type="MSShapeGroup"></path>
                                <path d="M30.9042715,7.90446477 C33.8469096,8.19484406 36.4217179,6.83974071 36.5136754,4.90387879 C36.6056328,2.96801687 34.3066968,1.22574114 31.2721013,1.03215495 C28.2375058,0.741775663 25.7546549,2.09687901 25.6626975,4.03274093 C25.5707401,5.87180975 27.9616335,7.61408548 30.9042715,7.90446477 L30.9042715,7.90446477 Z" id="Shape" fill="#EEEEEE" sketch:type="MSShapeGroup"></path>
                                <path d="M31.3487487,4.91208686 C34.6613494,5.18714638 37.4060757,4.3619678 37.5007214,2.98667017 C37.5953671,1.61137253 35.0399323,0.327761402 31.8219774,0.0527018751 C28.5093767,-0.222357652 25.7646504,0.60282093 25.6700047,1.97811857 C25.4807132,3.26172969 28.0361481,4.63702733 31.3487487,4.91208686 L31.3487487,4.91208686 Z" id="Shape" fill="#EEEEEE" sketch:type="MSShapeGroup"></path>
                            </g>
                            <path d="M131.393994,69.5070423 L132.391592,69.5070423 C132.391592,69.779756 132.300901,69.779756 132.300901,69.8706606 L132.300901,75.4158401 C132.300901,76.961218 133.661261,78.2338822 135.475075,78.2338822 C137.288889,78.2338822 138.649249,76.961218 138.649249,75.4158401 L138.649249,69.8706606 C138.649249,69.779756 138.830631,69.779756 138.830631,69.5070423 L139.828228,69.5070423 L144,75.9612676 L139.828228,82.415493 L131.393994,82.415493 L127.222222,75.9612676 L131.393994,69.5070423 L131.393994,69.5070423 Z" id="Shape" stroke="none" fill="#EEEEEE" fill-rule="evenodd" sketch:type="MSShapeGroup"></path>
                            <rect id="Rectangle-path" stroke="none" fill="#EEEEEE" fill-rule="evenodd" sketch:type="MSShapeGroup" x="50.2418301" y="85.3943662" width="35.5294118" height="3.97183099"></rect>
                            <path d="M44.3202614,69.6173709 L95.6405229,69.3967136" id="Shape" stroke="#DDDDDD" stroke-width="1" fill="none" sketch:type="MSShapeGroup"></path>
                            <rect id="Rectangle-path" stroke="none" fill="#EEEEEE" fill-rule="evenodd" sketch:type="MSShapeGroup" x="32.4771242" y="88.3732394" width="71.0588235" height="51.6338028"></rect>
                        </g>
                    </g>
                    <path d="M72.5,93.5 C72.5,93.5 73.0900917,88.7190895 79.5527134,80.6929588 C86.0153351,72.6668282 92.2001476,84.7316208 82.9504251,84.7316208 C77.9721846,84.7316208 78.8609653,76.7578515 82.3500738,66.1383104 C86.1092024,54.6969295 96.8571911,67.4306459 88.2515574,69.8645582 C79.6459236,72.2984705 73.194863,61.6028137 73.194863,61.6028137" id="Line" stroke="#EEEEEE" stroke-width="3" stroke-linecap="square" sketch:type="MSShapeGroup" mask="url(#mask-2)"></path>
                    <path d="M26.8269034,123.239817 C26.8269034,123.239817 27.4169951,118.458906 33.8796168,110.432775 C40.3422385,102.406645 46.5270511,114.471437 37.2773286,114.471437 C32.2990881,114.471437 33.1878687,106.497668 36.6769772,95.878127 C40.4361058,84.436746 51.1840945,97.1704625 42.5784608,99.6043748 C33.972827,102.038287 27.5217664,91.3426303 27.5217664,91.3426303" id="Line-7" stroke="#EEEEEE" stroke-width="3" stroke-linecap="square" sketch:type="MSShapeGroup" mask="url(#mask-2)">
                        <g transform="translate(36.326903, 107.239817) scale(-1, -1) rotate(-267.000000) translate(-36.326903, -107.239817) "></g>
                    </path>
                    <path d="M73.1063773,93.5117572 C73.1063773,93.5117572 52.4048445,76.2221606 58.8674662,68.19603 C65.3300878,60.1698993 79.2201533,72.0255917 70.2325217,76.3781303 C65.2713019,78.7807544 58.5745871,69.2600699 62.0636956,58.6405288 C65.8228242,47.1991478 51.8160407,49.0655895 51.8160407,49.0655895" id="Line-2" stroke="#EEEEEE" stroke-width="3" stroke-linecap="square" sketch:type="MSShapeGroup" mask="url(#mask-2)">
                        <g transform="translate(62.500000, 71.500000) scale(-1, -1) translate(-62.500000, -71.500000) "></g>
                    </path>
                </g>
            </g>
        </g>
    </g>
</svg>